Fira Sans-Bold Italic.ufo
<glyph name="parenleft" format="1">
  <advance width="313"/>
  <unicode hex="0028"/>
  <outline>
    <contour>
      <point x="107" y="671"/>
      <point x="6" y="502"/>
      <point x="6" y="238" type="curve" smooth="yes"/>
      <point x="6" y="64"/>
      <point x="69" y="-51"/>
      <point x="136" y="-166" type="curve"/>
      <point x="271" y="-88" type="line"/>
      <point x="219" y="5"/>
      <point x="197" y="101"/>
      <point x="197" y="217" type="curve" smooth="yes"/>
      <point x="197" y="418"/>
      <point x="258" y="619"/>
      <point x="394" y="781" type="curve"/>
      <point x="276" y="868" type="line"/>
    </contour>
  </outline>
</glyph>
<glyph name="parenright" format="1">
  <advance width="313"/>
  <unicode hex="0029"/>
  <outline>
    <contour>
      <point x="64" y="788" type="line"/>
      <point x="117" y="694"/>
      <point x="138" y="598"/>
      <point x="138" y="480" type="curve" smooth="yes"/>
      <point x="138" y="279"/>
      <point x="78" y="82"/>
      <point x="-58" y="-81" type="curve"/>
      <point x="59" y="-168" type="line"/>
      <point x="227" y="25"/>
      <point x="330" y="199"/>
      <point x="330" y="459" type="curve" smooth="yes"/>
      <point x="330" y="635"/>
      <point x="267" y="751"/>
      <point x="200" y="866" type="curve"/>
    </contour>
  </outline>
</glyph>
<glyph name="period" format="1">
  <advance width="240"/>
  <unicode hex="002E"/>
  <outline>
    <contour>
      <point x="146" y="-20"/>
      <point x="196" y="33"/>
      <point x="196" y="95" type="curve" smooth="yes"/>
      <point x="196" y="149"/>
      <point x="158" y="186"/>
      <point x="107" y="186" type="curve" smooth="yes"/>
      <point x="42" y="186"/>
      <point x="-8" y="133"/>
      <point x="-8" y="73" type="curve" smooth="yes"/>
      <point x="-8" y="18"/>
      <point x="29" y="-20"/>
      <point x="82" y="-20" type="curve" smooth="yes"/>
    </contour>
  </outline>
</glyph>
<glyph name="zero" format="1">
  <advance width="590"/>
  <unicode hex="0030"/>
  <outline>
    <contour>
      <point x="499" y="696"/>
      <point x="581" y="603"/>
      <point x="581" y="432" type="curve" smooth="yes"/>
      <point x="581" y="254"/>
      <point x="510" y="-20"/>
      <point x="259" y="-20" type="curve" smooth="yes"/>
      <point x="110" y="-20"/>
      <point x="29" y="76"/>
      <point x="29" y="248" type="curve" smooth="yes"/>
      <point x="29" y="429"/>
      <point x="100" y="696"/>
      <point x="351" y="696" type="curve" smooth="yes"/>
    </contour>
    <contour>
      <point x="252" y="553"/>
      <point x="222" y="336"/>
      <point x="222" y="207" type="curve" smooth="yes"/>
      <point x="222" y="144"/>
      <point x="240" y="124"/>
      <point x="271" y="124" type="curve" smooth="yes"/>
      <point x="358" y="124"/>
      <point x="389" y="345"/>
      <point x="389" y="474" type="curve" smooth="yes"/>
      <point x="389" y="537"/>
      <point x="370" y="553"/>
      <point x="340" y="553" type="curve" smooth="yes"/>
    </contour>
  </outline>
</glyph>
<glyph name="less" format="1">
  <advance width="520"/>
  <unicode hex="003C"/>
  <outline>
    <contour>
      <point x="45" y="416" type="line"/>
      <point x="22" y="249" type="line"/>
      <point x="409" y="75" type="line"/>
      <point x="488" y="215" type="line"/>
      <point x="201" y="333" type="line"/>
      <point x="528" y="449" type="line"/>
      <point x="481" y="591" type="line"/>
    </contour>
  </outline>
</glyph>
<glyph name="at" format="1">
  <advance width="1008"/>
  <unicode hex="0040"/>
  <outline>
    <contour>
      <point x="190" y="716"/>
      <point x="28" y="404"/>
      <point x="28" y="182" type="curve" smooth="yes"/>
      <point x="28" y="-58"/>
      <point x="192" y="-227"/>
      <point x="470" y="-227" type="curve" smooth="yes"/>
      <point x="537" y="-227"/>
      <point x="635" y="-209"/>
      <point x="699" y="-184" type="curve"/>
      <point x="671" y="-51" type="line"/>
      <point x="620" y="-70"/>
      <point x="541" y="-86"/>
      <point x="487" y="-86" type="curve" smooth="yes"/>
      <point x="296" y="-86"/>
      <point x="200" y="20"/>
      <point x="200" y="182" type="curve" smooth="yes"/>
      <point x="200" y="349"/>
      <point x="280" y="577"/>
      <point x="556" y="577" type="curve" smooth="yes"/>
      <point x="730" y="577"/>
      <point x="813" y="497"/>
      <point x="813" y="350" type="curve" smooth="yes"/>
      <point x="813" y="246"/>
      <point x="776" y="116"/>
      <point x="716" y="116" type="curve" smooth="yes"/>
      <point x="694" y="116"/>
      <point x="685" y="130"/>
      <point x="689" y="161" type="curve" smooth="yes"/>
      <point x="728" y="460" type="line"/>
      <point x="679" y="490"/>
      <point x="609" y="509"/>
      <point x="553" y="509" type="curve" smooth="yes"/>
      <point x="338" y="509"/>
      <point x="275" y="305"/>
      <point x="275" y="179" type="curve" smooth="yes"/>
      <point x="275" y="79"/>
      <point x="328" y="6"/>
      <point x="435" y="6" type="curve" smooth="yes"/>
      <point x="505" y="6"/>
      <point x="553" y="41"/>
      <point x="586" y="100" type="curve"/>
      <point x="597" y="46"/>
      <point x="651" y="1"/>
      <point x="726" y="1" type="curve" smooth="yes"/>
      <point x="896" y="1"/>
      <point x="981" y="192"/>
      <point x="981" y="349" type="curve" smooth="yes"/>
      <point x="981" y="554"/>
      <point x="831" y="716"/>
      <point x="572" y="716" type="curve" smooth="yes"/>
    </contour>
    <contour>
      <point x="457" y="125"/>
      <point x="445" y="138"/>
      <point x="445" y="175" type="curve" smooth="yes"/>
      <point x="445" y="257"/>
      <point x="463" y="389"/>
      <point x="530" y="389" type="curve" smooth="yes"/>
      <point x="539" y="389"/>
      <point x="547" y="388"/>
      <point x="556" y="384" type="curve"/>
      <point x="523" y="154" type="line"/>
      <point x="511" y="136"/>
      <point x="495" y="125"/>
      <point x="477" y="125" type="curve" smooth="yes"/>
    </contour>
  </outline>
</glyph>
<glyph name="A" format="1">
  <advance width="589"/>
  <unicode hex="0041"/>
  <outline>
    <contour>
      <point x="233" y="696" type="line"/>
      <point x="-63" y="0" type="line"/>
      <point x="148" y="0" type="line"/>
      <point x="331" y="567" type="line"/>
      <point x="362" y="0" type="line"/>
      <point x="576" y="0" type="line"/>
      <point x="475" y="696" type="line"/>
    </contour>
    <contour>
      <point x="224" y="279" type="line"/>
      <point x="176" y="135" type="line"/>
      <point x="369" y="135" type="line"/>
      <point x="361" y="279" type="line"/>
    </contour>
    <contour>
      <point x="488" y="0" type="move" name="ogonek"/>
    </contour>
    <contour>
      <point x="354" y="696" type="move" name="top"/>
    </contour>
    <contour>
      <point x="202" y="696" type="move" name="topleft"/>
    </contour>
    <contour>
      <point x="255" y="0" type="move" name="bottom"/>
    </contour>
  </outline>
</glyph>
<glyph name="E" format="1">
  <advance width="510"/>
  <unicode hex="0045"/>
  <outline>
    <contour>
      <point x="103" y="696" type="line"/>
      <point x="6" y="0" type="line"/>
      <point x="450" y="0" type="line"/>
      <point x="470" y="144" type="line"/>
      <point x="228" y="144" type="line"/>
      <point x="248" y="284" type="line"/>
      <point x="446" y="284" type="line"/>
      <point x="464" y="423" type="line"/>
      <point x="267" y="423" type="line"/>
      <point x="285" y="553" type="line"/>
      <point x="511" y="553" type="line"/>
      <point x="552" y="696" type="line"/>
    </contour>
    <contour>
      <point x="420" y="0" type="move" name="ogonek"/>
    </contour>
    <contour>
      <point x="328" y="696" type="move" name="top"/>
    </contour>
    <contour>
      <point x="103" y="696" type="move" name="topleft"/>
    </contour>
    <contour>
      <point x="228" y="0" type="move" name="bottom"/>
    </contour>
  </outline>
</glyph>
<glyph name="H" format="1">
  <advance width="645"/>
  <unicode hex="0048"/>
  <outline>
    <contour>
      <point x="247" y="281" type="line"/>
      <point x="400" y="281" type="line"/>
      <point x="362" y="0" type="line"/>
      <point x="564" y="0" type="line"/>
      <point x="661" y="696" type="line"/>
      <point x="459" y="696" type="line"/>
      <point x="423" y="439" type="line"/>
      <point x="269" y="439" type="line"/>
      <point x="305" y="696" type="line"/>
      <point x="103" y="696" type="line"/>
      <point x="5" y="0" type="line"/>
      <point x="207" y="0" type="line"/>
    </contour>
    <contour>
      <point x="284" y="0" type="move" name="bottom"/>
    </contour>
    <contour>
      <point x="382" y="696" type="move" name="top"/>
    </contour>
    <contour>
      <point x="104" y="696" type="move" name="topleft"/>
    </contour>
    <contour>
      <point x="574" y="0" type="move" name="bottomright"/>
    </contour>
    <contour>
      <point x="334" y="348" type="move" name="center"/>
    </contour>
  </outline>
</glyph>
<glyph name="M" format="1">
  <advance width="777"/>
  <unicode hex="004D"/>
  <outline>
    <contour>
      <point x="516" y="696" type="line"/>
      <point x="380" y="226" type="line"/>
      <point x="367" y="696" type="line"/>
      <point x="123" y="696" type="line"/>
      <point x="-23" y="0" type="line"/>
      <point x="176" y="0" type="line"/>
      <point x="215" y="247" type="line" smooth="yes"/>
      <point x="231" y="341"/>
      <point x="237" y="415"/>
      <point x="239" y="550" type="curve"/>
      <point x="262" y="70" type="line"/>
      <point x="456" y="70" type="line"/>
      <point x="602" y="552" type="line"/>
      <point x="578" y="428"/>
      <point x="564" y="338"/>
      <point x="554" y="248" type="curve" smooth="yes"/>
      <point x="525" y="0" type="line"/>
      <point x="724" y="0" type="line"/>
      <point x="772" y="696" type="line"/>
    </contour>
    <contour>
      <point x="442" y="696" type="move" name="top"/>
    </contour>
    <contour>
      <point x="350" y="0" type="move" name="bottom"/>
    </contour>
    <contour>
      <point x="735" y="0" type="move" name="bottomright"/>
    </contour>
  </outline>
</glyph>
<glyph name="P" format="1">
  <advance width="600"/>
  <unicode hex="0050"/>
  <outline>
    <contour>
      <point x="6" y="0" type="line"/>
      <point x="208" y="0" type="line"/>
      <point x="285" y="553" type="line"/>
      <point x="328" y="553" type="line" smooth="yes"/>
      <point x="385" y="553"/>
      <point x="409" y="528"/>
      <point x="409" y="483" type="curve" smooth="yes"/>
      <point x="409" y="438"/>
      <point x="389" y="362"/>
      <point x="304" y="362" type="curve" smooth="yes"/>
      <point x="243" y="362" type="line"/>
      <point x="223" y="217" type="line"/>
      <point x="306" y="217" type="line" smooth="yes"/>
      <point x="534" y="217"/>
      <point x="617" y="370"/>
      <point x="617" y="495" type="curve" smooth="yes"/>
      <point x="617" y="627"/>
      <point x="516" y="696"/>
      <point x="349" y="696" type="curve" smooth="yes"/>
      <point x="103" y="696" type="line"/>
    </contour>
    <contour>
      <point x="360" y="696" type="move" name="top"/>
    </contour>
    <contour>
      <point x="262" y="0" type="move" name="bottom"/>
    </contour>
    <contour>
      <point x="103" y="696" type="move" name="topleft"/>
    </contour>
  </outline>
</glyph>
<glyph name="V" format="1">
  <advance width="567"/>
  <unicode hex="0056"/>
  <outline>
    <contour>
      <point x="443" y="696" type="line"/>
      <point x="273" y="143" type="line"/>
      <point x="246" y="696" type="line"/>
      <point x="35" y="696" type="line"/>
      <point x="122" y="0" type="line"/>
      <point x="382" y="0" type="line"/>
      <point x="652" y="696" type="line"/>
    </contour>
    <contour>
      <point x="343" y="696" type="move" name="top"/>
    </contour>
    <contour>
      <point x="245" y="0" type="move" name="bottom"/>
    </contour>
  </outline>
</glyph>
<glyph name="X" format="1">
  <advance width="594"/>
  <unicode hex="0058"/>
  <outline>
    <contour>
      <point x="62" y="696" type="line"/>
      <point x="186" y="369" type="line"/>
      <point x="290" y="249" type="line"/>
      <point x="350" y="0" type="line"/>
      <point x="566" y="0" type="line"/>
      <point x="428" y="375" type="line"/>
      <point x="322" y="486" type="line"/>
      <point x="277" y="696" type="line"/>
    </contour>
    <contour>
      <point x="434" y="696" type="line"/>
      <point x="322" y="486" type="line"/>
      <point x="186" y="369" type="line"/>
      <point x="-48" y="0" type="line"/>
      <point x="168" y="0" type="line"/>
      <point x="290" y="249" type="line"/>
      <point x="428" y="375" type="line"/>
      <point x="649" y="696" type="line"/>
    </contour>
    <contour>
      <point x="356" y="696" type="move" name="top"/>
    </contour>
    <contour>
      <point x="258" y="0" type="move" name="bottom"/>
    </contour>
    <contour>
      <point x="507" y="0" type="move" name="bottomright"/>
    </contour>
  </outline>
</glyph>
<glyph name="d" format="1">
  <advance width="585"/>
  <unicode hex="0064"/>
  <outline>
    <contour>
      <point x="384" y="511" type="line"/>
      <point x="358" y="537"/>
      <point x="319" y="554"/>
      <point x="271" y="554" type="curve" smooth="yes"/>
      <point x="88" y="554"/>
      <point x="11" y="347"/>
      <point x="11" y="197" type="curve" smooth="yes"/>
      <point x="11" y="61"/>
      <point x="65" y="-20"/>
      <point x="178" y="-20" type="curve" smooth="yes"/>
      <point x="253" y="-20"/>
      <point x="303" y="25"/>
      <point x="335" y="69" type="curve"/>
      <point x="334" y="0" type="line"/>
      <point x="507" y="0" type="line"/>
      <point x="611" y="744" type="line"/>
      <point x="419" y="764" type="line"/>
    </contour>
    <contour>
      <point x="336" y="413"/>
      <point x="352" y="406"/>
      <point x="367" y="391" type="curve"/>
      <point x="341" y="205" type="line"/>
      <point x="317" y="166"/>
      <point x="284" y="122"/>
      <point x="251" y="122" type="curve" smooth="yes"/>
      <point x="230" y="122"/>
      <point x="211" y="133"/>
      <point x="211" y="199" type="curve" smooth="yes"/>
      <point x="211" y="278"/>
      <point x="233" y="413"/>
      <point x="315" y="413" type="curve" smooth="yes"/>
    </contour>
    <contour>
      <point x="263" y="0" type="move" name="bottom"/>
    </contour>
    <contour>
      <point x="337" y="744" type="move" name="top"/>
    </contour>
    <contour>
      <point x="625" y="744" type="move" name="topright"/>
    </contour>
    <contour>
      <point x="291" y="267" type="move" name="center"/>
    </contour>
  </outline>
</glyph>
<glyph name="g" format="1">
  <advance width="575"/>
  <unicode hex="0067"/>
  <outline>
    <contour>
      <point x="94" y="554"/>
      <point x="12" y="352"/>
      <point x="12" y="211" type="curve" smooth="yes"/>
      <point x="12" y="87"/>
      <point x="71" y="0"/>
      <point x="189" y="0" type="curve" smooth="yes"/>
      <point x="246" y="0"/>
      <point x="291" y="26"/>
      <point x="324" y="63" type="curve"/>
      <point x="317" y="21" type="line" smooth="yes"/>
      <point x="304" y="-67"/>
      <point x="257" y="-82"/>
      <point x="206" y="-82" type="curve" smooth="yes"/>
      <point x="166" y="-82"/>
      <point x="120" y="-72"/>
      <point x="60" y="-40" type="curve"/>
      <point x="-3" y="-164" type="line"/>
      <point x="59" y="-203"/>
      <point x="140" y="-227"/>
      <point x="207" y="-227" type="curve" smooth="yes"/>
      <point x="401" y="-227"/>
      <point x="482" y="-139"/>
      <point x="510" y="58" type="curve" smooth="yes"/>
      <point x="571" y="491" type="line"/>
      <point x="497" y="535"/>
      <point x="410" y="554"/>
      <point x="335" y="554" type="curve" smooth="yes"/>
    </contour>
    <contour>
      <point x="343" y="418"/>
      <point x="354" y="416"/>
      <point x="369" y="412" type="curve"/>
      <point x="337" y="202" type="line"/>
      <point x="313" y="166"/>
      <point x="285" y="144"/>
      <point x="257" y="144" type="curve" smooth="yes"/>
      <point x="235" y="144"/>
      <point x="211" y="155"/>
      <point x="211" y="218" type="curve" smooth="yes"/>
      <point x="211" y="292"/>
      <point x="238" y="418"/>
      <point x="328" y="418" type="curve" smooth="yes"/>
    </contour>
    <contour>
      <point x="336" y="534" type="move" name="top"/>
    </contour>
    <contour>
      <point x="207" y="-215" type="move" name="bottom"/>
    </contour>
  </outline>
</glyph>
<glyph name="w" format="1">
  <advance width="756"/>
  <unicode hex="0077"/>
  <outline>
    <contour>
      <point x="611" y="534" type="line"/>
      <point x="514" y="151" type="line"/>
      <point x="512" y="534" type="line"/>
      <point x="331" y="534" type="line"/>
      <point x="209" y="151" type="line"/>
      <point x="231" y="534" type="line"/>
      <point x="35" y="534" type="line"/>
      <point x="66" y="0" type="line"/>
      <point x="289" y="0" type="line"/>
      <point x="393" y="358" type="line"/>
      <point x="400" y="0" type="line"/>
      <point x="620" y="0" type="line"/>
      <point x="797" y="534" type="line"/>
    </contour>
    <contour>
      <point x="416" y="534" type="move" name="top"/>
    </contour>
    <contour>
      <point x="345" y="0" type="move" name="bottom"/>
    </contour>
  </outline>
</glyph>
<glyph name="x" format="1">
  <advance width="518"/>
  <unicode hex="0078"/>
  <outline>
    <contour>
      <point x="30" y="534" type="line"/>
      <point x="141" y="283" type="line"/>
      <point x="246" y="178" type="line"/>
      <point x="290" y="0" type="line"/>
      <point x="499" y="0" type="line"/>
      <point x="379" y="282" type="line"/>
      <point x="270" y="377" type="line"/>
      <point x="241" y="534" type="line"/>
    </contour>
    <contour>
      <point x="338" y="534" type="line"/>
      <point x="270" y="377" type="line"/>
      <point x="141" y="283" type="line"/>
      <point x="-57" y="0" type="line"/>
      <point x="155" y="0" type="line"/>
      <point x="246" y="178" type="line"/>
      <point x="379" y="282" type="line"/>
      <point x="545" y="534" type="line"/>
    </contour>
    <contour>
      <point x="292" y="534" type="move" name="top"/>
    </contour>
    <contour>
      <point x="219" y="0" type="move" name="bottom"/>
    </contour>
    <contour>
      <point x="431" y="0" type="move" name="bottomright"/>
    </contour>
  </outline>
</glyph>
<glyph name="y" format="1">
  <advance width="520"/>
  <unicode hex="0079"/>
  <outline>
    <contour>
      <point x="371" y="534" type="line"/>
      <point x="235" y="122" type="line"/>
      <point x="224" y="534" type="line"/>
      <point x="22" y="534" type="line"/>
      <point x="97" y="0" type="line"/>
      <point x="165" y="0" type="line"/>
      <point x="127" y="-60"/>
      <point x="81" y="-83"/>
      <point x="-21" y="-93" type="curve"/>
      <point x="-17" y="-228" type="line"/>
      <point x="159" y="-223"/>
      <point x="281" y="-148"/>
      <point x="345" y="0" type="curve" smooth="yes"/>
      <point x="574" y="534" type="line"/>
    </contour>
    <contour>
      <point x="298" y="534" type="move" name="top"/>
    </contour>
    <contour>
      <point x="205" y="-215" type="move" name="bottom"/>
    </contour>
  </outline>
</glyph>
<glyph name="ordfeminine" format="1">
  <advance width="473"/>
  <unicode hex="00AA"/>
  <outline>
    <contour>
      <point x="219" y="260"/>
      <point x="266" y="274"/>
      <point x="303" y="318" type="curve"/>
      <point x="327" y="282"/>
      <point x="362" y="267"/>
      <point x="415" y="264" type="curve"/>
      <point x="463" y="374" type="line"/>
      <point x="440" y="382"/>
      <point x="442" y="398"/>
      <point x="445" y="417" type="curve" smooth="yes"/>
      <point x="458" y="514" type="line" smooth="yes"/>
      <point x="477" y="648"/>
      <point x="416" y="696"/>
      <point x="297" y="696" type="curve" smooth="yes"/>
      <point x="240" y="696"/>
      <point x="170" y="684"/>
      <point x="114" y="663" type="curve"/>
      <point x="137" y="555" type="line"/>
      <point x="181" y="568"/>
      <point x="224" y="576"/>
      <point x="258" y="576" type="curve" smooth="yes"/>
      <point x="293" y="576"/>
      <point x="300" y="565"/>
      <point x="297" y="539" type="curve" smooth="yes"/>
      <point x="296" y="530" type="line"/>
      <point x="271" y="530" type="line" smooth="yes"/>
      <point x="98" y="530"/>
      <point x="45" y="458"/>
      <point x="45" y="381" type="curve" smooth="yes"/>
      <point x="45" y="315"/>
      <point x="94" y="260"/>
      <point x="173" y="260" type="curve" smooth="yes"/>
    </contour>
    <contour>
      <point x="225" y="381"/>
      <point x="220" y="389"/>
      <point x="220" y="402" type="curve" smooth="yes"/>
      <point x="220" y="433"/>
      <point x="239" y="442"/>
      <point x="276" y="442" type="curve" smooth="yes"/>
      <point x="284" y="442" type="line"/>
      <point x="277" y="395" type="line"/>
      <point x="269" y="388"/>
      <point x="255" y="381"/>
      <point x="240" y="381" type="curve" smooth="yes"/>
    </contour>
    <component base="minus" xOffset="-47" yOffset="-257" xScale="0.95"/>
  </outline>
</glyph>
<glyph name="degree" format="1">
  <advance width="507"/>
  <unicode hex="00B0"/>
  <outline>
    <contour>
      <point x="336" y="362"/>
      <point x="432" y="437"/>
      <point x="432" y="561" type="curve" smooth="yes"/>
      <point x="432" y="657"/>
      <point x="363" y="716"/>
      <point x="269" y="716" type="curve"/>
      <point x="161" y="716"/>
      <point x="65" y="641"/>
      <point x="65" y="517" type="curve" smooth="yes"/>
      <point x="65" y="421"/>
      <point x="134" y="362"/>
      <point x="228" y="362" type="curve"/>
    </contour>
    <contour>
      <point x="205" y="470"/>
      <point x="190" y="491"/>
      <point x="190" y="525" type="curve" smooth="yes"/>
      <point x="190" y="573"/>
      <point x="216" y="608"/>
      <point x="260" y="608" type="curve"/>
      <point x="292" y="608"/>
      <point x="307" y="587"/>
      <point x="307" y="553" type="curve" smooth="yes"/>
      <point x="307" y="505"/>
      <point x="281" y="470"/>
      <point x="237" y="470" type="curve"/>
    </contour>
  </outline>
</glyph>
<glyph name="ordmasculine" format="1">
  <advance width="488"/>
  <unicode hex="00BA"/>
  <outline>
    <contour>
      <point x="150" y="696"/>
      <point x="50" y="590"/>
      <point x="50" y="437" type="curve" smooth="yes"/>
      <point x="50" y="321"/>
      <point x="126" y="260"/>
      <point x="246" y="260" type="curve"/>
      <point x="397" y="260"/>
      <point x="498" y="365"/>
      <point x="498" y="517" type="curve" smooth="yes"/>
      <point x="498" y="635"/>
      <point x="423" y="696"/>
      <point x="302" y="696" type="curve"/>
    </contour>
    <contour>
      <point x="313" y="574"/>
      <point x="325" y="559"/>
      <point x="325" y="523" type="curve" smooth="yes"/>
      <point x="325" y="463"/>
      <point x="310" y="382"/>
      <point x="259" y="382" type="curve"/>
      <point x="234" y="382"/>
      <point x="223" y="398"/>
      <point x="223" y="435" type="curve" smooth="yes"/>
      <point x="223" y="495"/>
      <point x="237" y="574"/>
      <point x="289" y="574" type="curve"/>
    </contour>
    <component base="minus" xOffset="-52" yOffset="-257"/>
  </outline>
</glyph>
<glyph name="multiply" format="1">
  <advance width="519"/>
  <unicode hex="00D7"/>
  <outline>
    <contour>
      <point x="274" y="408" type="line"/>
      <point x="182" y="525" type="line"/>
      <point x="65" y="423" type="line"/>
      <point x="161" y="305" type="line"/>
      <point x="34" y="193" type="line"/>
      <point x="127" y="87" type="line"/>
      <point x="256" y="206" type="line"/>
      <point x="349" y="87" type="line"/>
      <point x="465" y="189" type="line"/>
      <point x="368" y="309" type="line"/>
      <point x="496" y="419" type="line"/>
      <point x="404" y="525" type="line"/>
    </contour>
  </outline>
</glyph>
<glyph name="germandbls" format="1">
  <advance width="599"/>
  <unicode hex="00DF"/>
  <outline>
    <contour>
      <point x="65" y="-184"/>
      <point x="182" y="-112"/>
      <point x="208" y="76" type="curve" smooth="yes"/>
      <point x="272" y="536" type="line" smooth="yes"/>
      <point x="280" y="596"/>
      <point x="300" y="629"/>
      <point x="340" y="629" type="curve" smooth="yes"/>
      <point x="362" y="629"/>
      <point x="373" y="615"/>
      <point x="373" y="595" type="curve" smooth="yes"/>
      <point x="373" y="508"/>
      <point x="270" y="501"/>
      <point x="270" y="375" type="curve" smooth="yes"/>
      <point x="270" y="269"/>
      <point x="382" y="260"/>
      <point x="382" y="181" type="curve" smooth="yes"/>
      <point x="382" y="165"/>
      <point x="375" y="130"/>
      <point x="330" y="130" type="curve" smooth="yes"/>
      <point x="320" y="130"/>
      <point x="307" y="132"/>
      <point x="294" y="139" type="curve"/>
      <point x="221" y="10" type="line"/>
      <point x="253" y="-7"/>
      <point x="299" y="-20"/>
      <point x="346" y="-20" type="curve" smooth="yes"/>
      <point x="518" y="-20"/>
      <point x="583" y="97"/>
      <point x="583" y="193" type="curve" smooth="yes"/>
      <point x="583" y="344"/>
      <point x="442" y="360"/>
      <point x="442" y="424" type="curve" smooth="yes"/>
      <point x="442" y="490"/>
      <point x="559" y="505"/>
      <point x="559" y="613" type="curve" smooth="yes"/>
      <point x="559" y="697"/>
      <point x="493" y="764"/>
      <point x="359" y="764" type="curve" smooth="yes"/>
      <point x="195" y="764"/>
      <point x="97" y="675"/>
      <point x="77" y="531" type="curve"/>
      <point x="9" y="44" type="line" smooth="yes"/>
      <point x="-1" y="-29"/>
      <point x="-46" y="-61"/>
      <point x="-117" y="-86" type="curve"/>
      <point x="-70" y="-227" type="line"/>
    </contour>
  </outline>
</glyph>
<glyph name="ae" format="1">
  <advance width="843"/>
  <unicode hex="00E6"/>
  <outline>
    <contour>
      <point x="231" y="554"/>
      <point x="160" y="540"/>
      <point x="90" y="513" type="curve"/>
      <point x="118" y="387" type="line"/>
      <point x="173" y="405"/>
      <point x="225" y="412"/>
      <point x="263" y="412" type="curve" smooth="yes"/>
      <point x="305" y="412"/>
      <point x="339" y="399"/>
      <point x="347" y="370" type="curve"/>
      <point x="342" y="359"/>
      <point x="336" y="347"/>
      <point x="331" y="330" type="curve"/>
      <point x="285" y="330" type="line" smooth="yes"/>
      <point x="53" y="330"/>
      <point x="-3" y="224"/>
      <point x="-3" y="127" type="curve" smooth="yes"/>
      <point x="-3" y="39"/>
      <point x="63" y="-20"/>
      <point x="164" y="-20" type="curve" smooth="yes"/>
      <point x="235" y="-20"/>
      <point x="299" y="1"/>
      <point x="359" y="65" type="curve"/>
      <point x="397" y="11"/>
      <point x="464" y="-20"/>
      <point x="562" y="-20" type="curve" smooth="yes"/>
      <point x="652" y="-20"/>
      <point x="728" y="13"/>
      <point x="787" y="56" type="curve"/>
      <point x="720" y="169" type="line"/>
      <point x="670" y="137"/>
      <point x="632" y="120"/>
      <point x="588" y="120" type="curve" smooth="yes"/>
      <point x="545" y="120"/>
      <point x="512" y="131"/>
      <point x="507" y="191" type="curve"/>
      <point x="662" y="205"/>
      <point x="846" y="252"/>
      <point x="846" y="401" type="curve" smooth="yes"/>
      <point x="846" y="488"/>
      <point x="771" y="554"/>
      <point x="632" y="554" type="curve" smooth="yes"/>
      <point x="561" y="554"/>
      <point x="492" y="528"/>
      <point x="452" y="489" type="curve"/>
      <point x="418" y="529"/>
      <point x="374" y="554"/>
      <point x="290" y="554" type="curve" smooth="yes"/>
    </contour>
    <contour>
      <point x="315" y="194"/>
      <point x="316" y="178"/>
      <point x="319" y="162" type="curve"/>
      <point x="292" y="138"/>
      <point x="269" y="119"/>
      <point x="241" y="119" type="curve" smooth="yes"/>
      <point x="212" y="119"/>
      <point x="201" y="137"/>
      <point x="201" y="159" type="curve" smooth="yes"/>
      <point x="201" y="200"/>
      <point x="234" y="222"/>
      <point x="286" y="222" type="curve" smooth="yes"/>
      <point x="315" y="222" type="line"/>
    </contour>
    <contour>
      <point x="642" y="429"/>
      <point x="652" y="413"/>
      <point x="652" y="389" type="curve" smooth="yes"/>
      <point x="652" y="372"/>
      <point x="636" y="309"/>
      <point x="515" y="302" type="curve"/>
      <point x="527" y="367"/>
      <point x="555" y="429"/>
      <point x="609" y="429" type="curve" smooth="yes"/>
    </contour>
    <contour>
      <point x="459" y="534" type="move" name="top"/>
    </contour>
    <contour>
      <point x="358" y="0" type="move" name="bottom"/>
    </contour>
  </outline>
</glyph>
<glyph name="oslash" format="1">
  <advance width="572"/>
  <unicode hex="00F8"/>
  <outline>
    <contour>
      <point x="481" y="-20"/>
      <point x="557" y="165"/>
      <point x="558" y="323" type="curve" smooth="yes"/>
      <point x="559" y="453"/>
      <point x="472" y="554"/>
      <point x="323" y="554" type="curve" smooth="yes"/>
      <point x="89" y="554"/>
      <point x="13" y="370"/>
      <point x="13" y="211" type="curve" smooth="yes"/>
      <point x="13" y="75"/>
      <point x="103" y="-20"/>
      <point x="247" y="-20" type="curve" smooth="yes"/>
    </contour>
    <contour>
      <point x="211" y="122"/>
      <point x="189" y="143"/>
      <point x="189" y="206" type="curve" smooth="yes"/>
      <point x="189" y="270"/>
      <point x="212" y="412"/>
      <point x="311" y="412" type="curve" smooth="yes"/>
      <point x="354" y="412"/>
      <point x="381" y="389"/>
      <point x="381" y="324" type="curve" smooth="yes"/>
      <point x="381" y="264"/>
      <point x="358" y="122"/>
      <point x="262" y="122" type="curve" smooth="yes"/>
    </contour>
    <contour>
      <point x="40" y="-97" type="line"/>
      <point x="172" y="-138" type="line"/>
      <point x="230" y="-4" type="line"/>
      <point x="256" y="107" type="line"/>
      <point x="378" y="369" type="line"/>
      <point x="470" y="495" type="line"/>
      <point x="535" y="632" type="line"/>
      <point x="402" y="673" type="line"/>
      <point x="341" y="538" type="line"/>
      <point x="317" y="427" type="line"/>
      <point x="194" y="161" type="line"/>
      <point x="101" y="39" type="line"/>
    </contour>
    <contour>
      <point x="322" y="544" type="move" name="top"/>
    </contour>
    <contour>
      <point x="251" y="0" type="move" name="bottom"/>
    </contour>
  </outline>
</glyph>
<glyph name="dcroat" format="1">
  <advance width="596"/>
  <unicode hex="0111"/>
  <outline>
    <contour>
      <point x="282" y="696" type="line"/>
      <point x="281" y="590" type="line"/>
      <point x="589" y="590" type="line"/>
      <point x="640" y="590" type="line"/>
      <point x="655" y="696" type="line"/>
    </contour>
    <component base="d"/>
  </outline>
</glyph>
<glyph name="Lslash" format="1">
  <advance width="562"/>
  <unicode hex="0141"/>
  <outline>
    <contour>
      <point x="486" y="439" type="line"/>
      <point x="437" y="541" type="line"/>
      <point x="0" y="287" type="line"/>
      <point x="47" y="184" type="line"/>
      <point x="83" y="205" type="line"/>
    </contour>
    <component base="L" xOffset="48"/>
  </outline>
</glyph>
<glyph name="Tbar" format="1">
  <advance width="542"/>
  <unicode hex="0166"/>
  <outline>
    <contour>
      <point x="390" y="391" type="line"/>
      <point x="81" y="391" type="line"/>
      <point x="67" y="285" type="line"/>
      <point x="173" y="285" type="line"/>
      <point x="482" y="285" type="line"/>
      <point x="496" y="391" type="line"/>
    </contour>
    <component base="T"/>
  </outline>
</glyph>
<glyph name="uni0180" format="1">
  <advance width="595"/>
  <unicode hex="0180"/>
  <outline>
    <contour>
      <point x="61" y="696" type="line"/>
      <point x="46" y="590" type="line"/>
      <point x="97" y="590" type="line"/>
      <point x="404" y="590" type="line"/>
      <point x="434" y="696" type="line"/>
    </contour>
    <component base="b" xOffset="12"/>
  </outline>
</glyph>
<glyph name="uni0184" format="1">
  <advance width="616"/>
  <unicode hex="0184"/>
  <outline>
    <contour>
      <point x="301" y="0" type="line" smooth="yes"/>
      <point x="523" y="0"/>
      <point x="607" y="147"/>
      <point x="607" y="276" type="curve" smooth="yes"/>
      <point x="607" y="402"/>
      <point x="516" y="469"/>
      <point x="356" y="469" type="curve" smooth="yes"/>
      <point x="279" y="469" type="line"/>
      <point x="260" y="331" type="line"/>
      <point x="317" y="331" type="line" smooth="yes"/>
      <point x="373" y="331"/>
      <point x="395" y="300"/>
      <point x="395" y="260" type="curve" smooth="yes"/>
      <point x="395" y="217"/>
      <point x="376" y="145"/>
      <point x="293" y="145" type="curve" smooth="yes"/>
      <point x="249" y="145" type="line"/>
      <point x="326" y="696" type="line"/>
      <point x="160" y="696" type="line"/>
      <point x="93" y="471" type="line"/>
      <point x="27" y="0" type="line"/>
    </contour>
    <contour>
      <point x="160" y="696" type="line"/>
      <point x="121" y="633"/>
      <point x="75" y="575"/>
      <point x="22" y="528" type="curve"/>
      <point x="93" y="471" type="line"/>
    </contour>
    <contour>
      <point x="369" y="696" type="move" name="top"/>
    </contour>
    <contour>
      <point x="271" y="0" type="move" name="bottom"/>
    </contour>
  </outline>
</glyph>
<glyph name="uni018B" format="1">
  <advance width="598"/>
  <unicode hex="018B"/>
  <outline>
    <contour>
      <point x="142" y="543" type="line"/>
      <point x="406" y="543" type="line"/>
      <point x="614" y="696" type="line"/>
      <point x="164" y="696" type="line"/>
    </contour>
    <component base="uni0500" xOffset="1"/>
    <contour>
      <point x="358" y="696" type="move" name="top"/>
    </contour>
    <contour>
      <point x="260" y="0" type="move" name="bottom"/>
    </contour>
  </outline>
</glyph>
<glyph name="uni018C" format="1">
  <advance width="585"/>
  <unicode hex="018C"/>
  <outline>
    <contour>
      <point x="397" y="605" type="line"/>
      <point x="605" y="744" type="line"/>
      <point x="213" y="744" type="line"/>
      <point x="193" y="605" type="line"/>
    </contour>
    <contour>
      <point x="381" y="491" type="line"/>
      <point x="355" y="518"/>
      <point x="316" y="534"/>
      <point x="270" y="534" type="curve" smooth="yes"/>
      <point x="84" y="534"/>
      <point x="11" y="347"/>
      <point x="11" y="197" type="curve" smooth="yes"/>
      <point x="11" y="61"/>
      <point x="63" y="-20"/>
      <point x="178" y="-20" type="curve" smooth="yes"/>
      <point x="253" y="-20"/>
      <point x="303" y="25"/>
      <point x="335" y="69" type="curve"/>
      <point x="334" y="0" type="line"/>
      <point x="507" y="0" type="line"/>
      <point x="611" y="744" type="line"/>
      <point x="416" y="744" type="line"/>
    </contour>
    <contour>
      <point x="335" y="393"/>
      <point x="349" y="386"/>
      <point x="364" y="369" type="curve"/>
      <point x="341" y="205" type="line"/>
      <point x="317" y="166"/>
      <point x="284" y="122"/>
      <point x="252" y="122" type="curve" smooth="yes"/>
      <point x="230" y="122"/>
      <point x="211" y="133"/>
      <point x="211" y="199" type="curve" smooth="yes"/>
      <point x="211" y="278"/>
      <point x="237" y="393"/>
      <point x="312" y="393" type="curve" smooth="yes"/>
    </contour>
    <contour>
      <point x="363" y="744" type="move" name="top"/>
    </contour>
    <contour>
      <point x="258" y="0" type="move" name="bottom"/>
    </contour>
  </outline>
</glyph>
<glyph name="uni0194" format="1">
  <advance width="569"/>
  <unicode hex="0194"/>
  <outline>
    <contour>
      <point x="338" y="-227"/>
      <point x="407" y="-170"/>
      <point x="407" y="-62" type="curve" smooth="yes"/>
      <point x="407" y="-4"/>
      <point x="386" y="41"/>
      <point x="358" y="97" type="curve"/>
      <point x="281" y="237" type="line"/>
      <point x="246" y="696" type="line"/>
      <point x="35" y="696" type="line"/>
      <point x="164" y="106" type="line"/>
      <point x="251" y="7" type="line"/>
      <point x="261" y="-21"/>
      <point x="266" y="-44"/>
      <point x="266" y="-66" type="curve" smooth="yes"/>
      <point x="266" y="-89"/>
      <point x="255" y="-106"/>
      <point x="233" y="-106" type="curve" smooth="yes"/>
      <point x="219" y="-106"/>
      <point x="211" y="-99"/>
      <point x="211" y="-83" type="curve" smooth="yes"/>
      <point x="211" y="-58"/>
      <point x="229" y="-23"/>
      <point x="251" y="7" type="curve"/>
      <point x="358" y="97" type="line"/>
      <point x="654" y="696" type="line"/>
      <point x="445" y="696" type="line"/>
      <point x="281" y="237" type="line"/>
      <point x="164" y="106" type="line"/>
      <point x="108" y="37"/>
      <point x="70" y="-27"/>
      <point x="70" y="-97" type="curve" smooth="yes"/>
      <point x="70" y="-175"/>
      <point x="114" y="-227"/>
      <point x="220" y="-227" type="curve" smooth="yes"/>
    </contour>
    <contour>
      <point x="344" y="696" type="move" name="top"/>
    </contour>
  </outline>
</glyph>
<glyph name="uni01AC" format="1">
  <advance width="607"/>
  <unicode hex="01AC"/>
  <outline>
    <contour>
      <point x="400" y="0" type="line"/>
      <point x="476" y="542" type="line"/>
      <point x="631" y="542" type="line"/>
      <point x="673" y="696" type="line"/>
      <point x="282" y="696" type="line"/>
      <point x="241" y="542" type="line"/>
      <point x="274" y="542" type="line"/>
      <point x="198" y="0" type="line"/>
    </contour>
    <contour>
      <point x="192" y="454" type="line"/>
      <point x="188" y="474"/>
      <point x="186" y="485"/>
      <point x="186" y="500" type="curve" smooth="yes"/>
      <point x="186" y="525"/>
      <point x="199" y="542"/>
      <point x="226" y="542" type="curve" smooth="yes"/>
      <point x="259" y="542" type="line"/>
      <point x="289" y="696" type="line"/>
      <point x="233" y="696" type="line" smooth="yes"/>
      <point x="121" y="696"/>
      <point x="36" y="626"/>
      <point x="36" y="507" type="curve" smooth="yes"/>
      <point x="36" y="466"/>
      <point x="47" y="435"/>
      <point x="61" y="404" type="curve"/>
    </contour>
    <contour>
      <point x="363" y="696" type="move" name="top"/>
    </contour>
    <contour>
      <point x="299" y="0" type="move" name="bottom"/>
    </contour>
  </outline>
</glyph>
<glyph name="uni01B4" format="1">
  <advance width="536"/>
  <unicode hex="01B4"/>
  <outline>
    <contour>
      <point x="157" y="-223"/>
      <point x="293" y="-155"/>
      <point x="360" y="37" type="curve" smooth="yes"/>
      <point x="489" y="407" type="line" smooth="yes"/>
      <point x="500" y="439"/>
      <point x="516" y="447"/>
      <point x="534" y="447" type="curve" smooth="yes"/>
      <point x="544" y="447"/>
      <point x="552" y="445"/>
      <point x="558" y="443" type="curve"/>
      <point x="603" y="574" type="line"/>
      <point x="578" y="582"/>
      <point x="551" y="587"/>
      <point x="514" y="587" type="curve" smooth="yes"/>
      <point x="411" y="587"/>
      <point x="365" y="539"/>
      <point x="333" y="436" type="curve" smooth="yes"/>
      <point x="235" y="121" type="line"/>
      <point x="224" y="534" type="line"/>
      <point x="22" y="534" type="line"/>
      <point x="97" y="0" type="line"/>
      <point x="165" y="0" type="line"/>
      <point x="127" y="-60"/>
      <point x="81" y="-83"/>
      <point x="-21" y="-93" type="curve"/>
      <point x="-17" y="-228" type="line"/>
    </contour>
    <contour>
      <point x="306" y="534" type="move" name="top"/>
    </contour>
  </outline>
</glyph>
<glyph name="uni01B6" format="1">
  <advance width="459"/>
  <unicode hex="01B6"/>
  <outline>
    <contour>
      <point x="396" y="0" type="line"/>
      <point x="433" y="136" type="line"/>
      <point x="197" y="136" type="line"/>
      <point x="462" y="407" type="line"/>
      <point x="480" y="534" type="line"/>
      <point x="58" y="534" type="line"/>
      <point x="38" y="400" type="line"/>
      <point x="250" y="400" type="line"/>
      <point x="-18" y="128" type="line"/>
      <point x="-36" y="0" type="line"/>
    </contour>
    <contour>
      <point x="419" y="225" type="line"/>
      <point x="436" y="331" type="line"/>
      <point x="35" y="331" type="line"/>
      <point x="18" y="225" type="line"/>
    </contour>
    <contour>
      <point x="267" y="534" type="move" name="top"/>
    </contour>
    <contour>
      <point x="191" y="0" type="move" name="bottom"/>
    </contour>
  </outline>
</glyph>
<glyph name="uni01B7" format="1">
  <advance width="559"/>
  <unicode hex="01B7"/>
  <outline>
    <contour>
      <point x="396" y="-20"/>
      <point x="538" y="74"/>
      <point x="538" y="239" type="curve" smooth="yes"/>
      <point x="538" y="348"/>
      <point x="462" y="407"/>
      <point x="347" y="407" type="curve"/>
      <point x="322" y="407" type="line"/>
      <point x="133" y="296" type="line"/>
      <point x="238" y="296" type="line" smooth="yes"/>
      <point x="293" y="296"/>
      <point x="331" y="279"/>
      <point x="331" y="230" type="curve" smooth="yes"/>
      <point x="331" y="168"/>
      <point x="282" y="128"/>
      <point x="220" y="128" type="curve" smooth="yes"/>
      <point x="166" y="128"/>
      <point x="133" y="146"/>
      <point x="92" y="188" type="curve"/>
      <point x="-20" y="91" type="line"/>
      <point x="28" y="25"/>
      <point x="98" y="-20"/>
      <point x="222" y="-20" type="curve" smooth="yes"/>
    </contour>
    <contour>
      <point x="133" y="296" type="line"/>
      <point x="290" y="336" type="line"/>
      <point x="543" y="557" type="line"/>
      <point x="562" y="696" type="line"/>
      <point x="108" y="696" type="line"/>
      <point x="88" y="552" type="line"/>
      <point x="315" y="552" type="line"/>
      <point x="148" y="403" type="line"/>
    </contour>
    <contour>
      <point x="335" y="696" type="move" name="top"/>
    </contour>
    <contour>
      <point x="240" y="0" type="move" name="bottom"/>
    </contour>
  </outline>
</glyph>
<glyph name="uni01BB" format="1">
  <advance width="518"/>
  <unicode hex="01BB"/>
  <outline>
    <contour>
      <point x="491" y="233" type="line"/>
      <point x="508" y="353" type="line"/>
      <point x="74" y="353" type="line"/>
      <point x="57" y="233" type="line"/>
    </contour>
    <component base="two"/>
  </outline>
</glyph>
<glyph name="uni01C0" format="1">
  <advance width="252"/>
  <unicode hex="01C0"/>
  <outline>
    <contour>
      <point x="110" y="744" type="line"/>
      <point x="5" y="0" type="line"/>
      <point x="169" y="0" type="line"/>
      <point x="278" y="761" type="line"/>
    </contour>
  </outline>
</glyph>
<glyph name="uni01C3" format="1">
  <advance width="289"/>
  <unicode hex="01C3"/>
  <outline>
    <contour>
      <point x="124" y="744" type="line"/>
      <point x="56" y="250" type="line"/>
      <point x="221" y="250" type="line"/>
      <point x="292" y="761" type="line"/>
    </contour>
    <component base="period" xOffset="25"/>
  </outline>
</glyph>
<glyph name="uni01E5" format="1">
  <advance width="573"/>
  <unicode hex="01E5"/>
  <outline>
    <contour>
      <point x="398" y="-227"/>
      <point x="484" y="-139"/>
      <point x="512" y="58" type="curve" smooth="yes"/>
      <point x="573" y="491" type="line"/>
      <point x="499" y="535"/>
      <point x="412" y="554"/>
      <point x="337" y="554" type="curve" smooth="yes"/>
      <point x="100" y="554"/>
      <point x="14" y="362"/>
      <point x="14" y="235" type="curve" smooth="yes"/>
      <point x="14" y="122"/>
      <point x="73" y="30"/>
      <point x="191" y="30" type="curve" smooth="yes"/>
      <point x="248" y="30"/>
      <point x="297" y="56"/>
      <point x="330" y="93" type="curve"/>
      <point x="312" y="-19" type="line" smooth="yes"/>
      <point x="303" y="-77"/>
      <point x="254" y="-92"/>
      <point x="203" y="-92" type="curve" smooth="yes"/>
      <point x="163" y="-92"/>
      <point x="117" y="-82"/>
      <point x="57" y="-50" type="curve"/>
      <point x="-1" y="-164" type="line"/>
      <point x="61" y="-203"/>
      <point x="136" y="-227"/>
      <point x="214" y="-227" type="curve" smooth="yes"/>
    </contour>
    <contour>
      <point x="547" y="-54" type="line"/>
      <point x="555" y="9" type="line"/>
      <point x="202" y="9" type="line"/>
      <point x="194" y="-54" type="line"/>
    </contour>
    <contour>
      <point x="231" y="174"/>
      <point x="213" y="195"/>
      <point x="213" y="246" type="curve" smooth="yes"/>
      <point x="213" y="312"/>
      <point x="244" y="418"/>
      <point x="330" y="418" type="curve" smooth="yes"/>
      <point x="345" y="418"/>
      <point x="356" y="416"/>
      <point x="371" y="412" type="curve"/>
      <point x="343" y="232" type="line"/>
      <point x="319" y="196"/>
      <point x="287" y="174"/>
      <point x="259" y="174" type="curve" smooth="yes"/>
    </contour>
    <contour>
      <point x="326" y="534" type="move" name="top"/>
    </contour>
  </outline>
</glyph>
<glyph name="uni0220" format="1">
  <advance width="631"/>
  <unicode hex="0220"/>
  <outline>
    <contour>
      <point x="392" y="716"/>
      <point x="337" y="690"/>
      <point x="269" y="627" type="curve"/>
      <point x="278" y="513" type="line"/>
      <point x="319" y="549"/>
      <point x="349" y="567"/>
      <point x="385" y="567" type="curve" smooth="yes"/>
      <point x="416" y="567"/>
      <point x="429" y="548"/>
      <point x="423" y="506" type="curve" smooth="yes"/>
      <point x="324" y="-215" type="line"/>
      <point x="526" y="-215" type="line"/>
      <point x="627" y="525" type="line" smooth="yes"/>
      <point x="642" y="637"/>
      <point x="590" y="716"/>
      <point x="472" y="716" type="curve" smooth="yes"/>
    </contour>
    <contour>
      <point x="103" y="696" type="line"/>
      <point x="6" y="0" type="line"/>
      <point x="207" y="0" type="line"/>
      <point x="291" y="597" type="line"/>
      <point x="280" y="696" type="line"/>
    </contour>
    <contour>
      <point x="382" y="696" type="move" name="top"/>
    </contour>
  </outline>
</glyph>
<glyph name="uni0221" format="1">
  <advance width="809"/>
  <unicode hex="0221"/>
  <outline>
    <contour>
      <point x="350" y="220" type="line"/>
      <point x="325" y="178"/>
      <point x="288" y="122"/>
      <point x="252" y="122" type="curve" smooth="yes"/>
      <point x="230" y="122"/>
      <point x="211" y="133"/>
      <point x="211" y="199" type="curve" smooth="yes"/>
      <point x="211" y="278"/>
      <point x="233" y="413"/>
      <point x="315" y="413" type="curve" smooth="yes"/>
      <point x="338" y="413"/>
      <point x="352" y="406"/>
      <point x="367" y="389" type="curve"/>
      <point x="339" y="189" type="line" smooth="yes"/>
      <point x="326" y="94"/>
      <point x="402" y="-20"/>
      <point x="575" y="-20" type="curve"/>
      <point x="615" y="115" type="line"/>
      <point x="545" y="115"/>
      <point x="525" y="133"/>
      <point x="535" y="202" type="curve" smooth="yes"/>
      <point x="611" y="744" type="line"/>
      <point x="419" y="764" type="line"/>
      <point x="384" y="511" type="line"/>
      <point x="358" y="538"/>
      <point x="319" y="554"/>
      <point x="279" y="554" type="curve" smooth="yes"/>
      <point x="80" y="554"/>
      <point x="11" y="347"/>
      <point x="11" y="197" type="curve" smooth="yes"/>
      <point x="11" y="61"/>
      <point x="63" y="-20"/>
      <point x="178" y="-20" type="curve" smooth="yes"/>
      <point x="259" y="-20"/>
      <point x="318" y="33"/>
      <point x="367" y="109" type="curve"/>
    </contour>
    <contour>
      <point x="536" y="3" type="line"/>
      <point x="589" y="100" type="line"/>
      <point x="615" y="148"/>
      <point x="630" y="163"/>
      <point x="649" y="163" type="curve" smooth="yes"/>
      <point x="660" y="163"/>
      <point x="667" y="158"/>
      <point x="667" y="148" type="curve" smooth="yes"/>
      <point x="667" y="127"/>
      <point x="646" y="115"/>
      <point x="615" y="115" type="curve"/>
      <point x="575" y="-20" type="line"/>
      <point x="695" y="-20"/>
      <point x="791" y="40"/>
      <point x="791" y="152" type="curve" smooth="yes"/>
      <point x="791" y="218"/>
      <point x="742" y="258"/>
      <point x="675" y="258" type="curve" smooth="yes"/>
      <point x="612" y="258"/>
      <point x="572" y="232"/>
      <point x="534" y="163" type="curve"/>
      <point x="459" y="38" type="line"/>
      <point x="402" y="-56" type="line"/>
      <point x="482" y="-90" type="line"/>
    </contour>
    <contour>
      <point x="469" y="744" type="move" name="top"/>
    </contour>
  </outline>
</glyph>
<glyph name="uni0224" format="1">
  <advance width="536"/>
  <unicode hex="0224"/>
  <outline>
    <contour>
      <point x="482" y="0" type="line"/>
      <point x="506" y="161" type="line"/>
      <point x="237" y="161" type="line"/>
      <point x="561" y="543" type="line"/>
      <point x="582" y="696" type="line"/>
      <point x="97" y="696" type="line"/>
      <point x="76" y="540" type="line"/>
      <point x="326" y="540" type="line"/>
      <point x="-8" y="151" type="line"/>
      <point x="-28" y="0" type="line"/>
    </contour>
    <contour>
      <point x="367" y="-227"/>
      <point x="455" y="-159"/>
      <point x="478" y="-26" type="curve" smooth="yes"/>
      <point x="482" y="0" type="line"/>
      <point x="290" y="0" type="line"/>
      <point x="286" y="-28" type="line" smooth="yes"/>
      <point x="280" y="-68"/>
      <point x="259" y="-86"/>
      <point x="227" y="-86" type="curve" smooth="yes"/>
      <point x="201" y="-86"/>
      <point x="183" y="-79"/>
      <point x="162" y="-67" type="curve"/>
      <point x="86" y="-181" type="line"/>
      <point x="118" y="-207"/>
      <point x="164" y="-227"/>
      <point x="236" y="-227" type="curve" smooth="yes"/>
    </contour>
    <contour>
      <point x="328" y="696" type="move" name="top"/>
    </contour>
  </outline>
</glyph>
<glyph name="uni0234" format="1">
  <advance width="493"/>
  <unicode hex="0234"/>
  <outline>
    <contour>
      <point x="299" y="115" type="line"/>
      <point x="229" y="115"/>
      <point x="209" y="133"/>
      <point x="216" y="182" type="curve" smooth="yes"/>
      <point x="298" y="764" type="line"/>
      <point x="102" y="744" type="line"/>
      <point x="25" y="197" type="line" smooth="yes"/>
      <point x="7" y="65"/>
      <point x="86" y="-20"/>
      <point x="259" y="-20" type="curve"/>
    </contour>
    <contour>
      <point x="220" y="3" type="line"/>
      <point x="273" y="100" type="line"/>
      <point x="299" y="148"/>
      <point x="312" y="163"/>
      <point x="333" y="163" type="curve" smooth="yes"/>
      <point x="344" y="163"/>
      <point x="351" y="158"/>
      <point x="351" y="148" type="curve" smooth="yes"/>
      <point x="351" y="127"/>
      <point x="330" y="115"/>
      <point x="299" y="115" type="curve"/>
      <point x="259" y="-20" type="line"/>
      <point x="379" y="-20"/>
      <point x="475" y="40"/>
      <point x="475" y="152" type="curve" smooth="yes"/>
      <point x="475" y="218"/>
      <point x="426" y="258"/>
      <point x="359" y="258" type="curve" smooth="yes"/>
      <point x="296" y="258"/>
      <point x="256" y="232"/>
      <point x="218" y="163" type="curve"/>
      <point x="143" y="38" type="line"/>
      <point x="86" y="-56" type="line"/>
      <point x="166" y="-90" type="line"/>
    </contour>
    <contour>
      <point x="200" y="744" type="move" name="top"/>
    </contour>
  </outline>
</glyph>
<glyph name="uni0237" format="1">
  <advance width="274"/>
  <unicode hex="0237"/>
  <outline>
    <contour>
      <point x="64" y="-184"/>
      <point x="181" y="-112"/>
      <point x="207" y="76" type="curve" smooth="yes"/>
      <point x="271" y="534" type="line"/>
      <point x="77" y="534" type="line"/>
      <point x="12" y="66" type="line" smooth="yes"/>
      <point x="0" y="-21"/>
      <point x="-40" y="-59"/>
      <point x="-117" y="-88" type="curve"/>
      <point x="-71" y="-227" type="line"/>
    </contour>
    <contour>
      <point x="174" y="534" type="move" name="top"/>
    </contour>
    <contour>
      <point x="66" y="-215" type="move" name="bottom"/>
    </contour>
  </outline>
</glyph>
<glyph name="uni0238" format="1">
  <advance width="853"/>
  <unicode hex="0238"/>
  <outline>
    <contour>
      <point x="239" y="-20"/>
      <point x="292" y="24"/>
      <point x="323" y="85" type="curve"/>
      <point x="328" y="209" type="line"/>
      <point x="301" y="143"/>
      <point x="272" y="122"/>
      <point x="252" y="122" type="curve" smooth="yes"/>
      <point x="232" y="122"/>
      <point x="211" y="132"/>
      <point x="211" y="197" type="curve" smooth="yes"/>
      <point x="211" y="282"/>
      <point x="234" y="413"/>
      <point x="300" y="413" type="curve" smooth="yes"/>
      <point x="324" y="413"/>
      <point x="342" y="394"/>
      <point x="357" y="359" type="curve"/>
      <point x="371" y="480" type="line"/>
      <point x="348" y="531"/>
      <point x="304" y="554"/>
      <point x="259" y="554" type="curve" smooth="yes"/>
      <point x="105" y="554"/>
      <point x="11" y="372"/>
      <point x="11" y="191" type="curve" smooth="yes"/>
      <point x="11" y="60"/>
      <point x="67" y="-20"/>
      <point x="168" y="-20" type="curve" smooth="yes"/>
    </contour>
    <contour>
      <point x="465" y="0" type="line"/>
      <point x="508" y="152" type="line"/>
      <point x="594" y="764" type="line"/>
      <point x="397" y="744" type="line"/>
      <point x="314" y="156" type="line"/>
      <point x="314" y="0" type="line"/>
    </contour>
    <contour>
      <point x="751" y="-20"/>
      <point x="841" y="165"/>
      <point x="842" y="349" type="curve" smooth="yes"/>
      <point x="842" y="478"/>
      <point x="791" y="554"/>
      <point x="694" y="554" type="curve" smooth="yes"/>
      <point x="636" y="554"/>
      <point x="580" y="522"/>
      <point x="545" y="475" type="curve"/>
      <point x="529" y="354" type="line"/>
      <point x="554" y="391"/>
      <point x="579" y="412"/>
      <point x="604" y="412" type="curve" smooth="yes"/>
      <point x="624" y="412"/>
      <point x="642" y="400"/>
      <point x="642" y="340" type="curve" smooth="yes"/>
      <point x="642" y="260"/>
      <point x="620" y="121"/>
      <point x="556" y="121" type="curve" smooth="yes"/>
      <point x="534" y="121"/>
      <point x="514" y="143"/>
      <point x="503" y="202" type="curve"/>
      <point x="473" y="92" type="line"/>
      <point x="493" y="12"/>
      <point x="541" y="-20"/>
      <point x="597" y="-20" type="curve" smooth="yes"/>
    </contour>
    <contour>
      <point x="491" y="744" type="move" name="top"/>
    </contour>
    <contour>
      <point x="386" y="0" type="move" name="bottom"/>
    </contour>
  </outline>
</glyph>
<glyph name="uni023A" format="1">
  <advance width="589"/>
  <unicode hex="023A"/>
  <outline>
    <contour>
      <point x="119" y="-62" type="line"/>
      <point x="184" y="-77" type="line"/>
      <point x="516" y="744" type="line"/>
      <point x="452" y="759" type="line"/>
    </contour>
    <contour>
      <point x="233" y="696" type="line"/>
      <point x="-63" y="0" type="line"/>
      <point x="128" y="0" type="line"/>
      <point x="334" y="587" type="line"/>
      <point x="386" y="0" type="line"/>
      <point x="576" y="0" type="line"/>
      <point x="475" y="696" type="line"/>
    </contour>
    <contour>
      <point x="214" y="269" type="line"/>
      <point x="166" y="135" type="line"/>
      <point x="379" y="135" type="line"/>
      <point x="371" y="269" type="line"/>
    </contour>
    <contour>
      <point x="354" y="696" type="move" name="top"/>
    </contour>
    <contour>
      <point x="256" y="0" type="move" name="bottom"/>
    </contour>
  </outline>
</glyph>
<glyph name="uni0243" format="1">
  <advance width="620"/>
  <unicode hex="0243"/>
  <outline>
    <contour>
      <point x="52" y="266" type="line"/>
      <point x="4" y="266" type="line"/>
      <point x="-8" y="180" type="line"/>
      <point x="331" y="180" type="line"/>
      <point x="343" y="266" type="line"/>
    </contour>
    <component base="B" xOffset="10"/>
  </outline>
</glyph>
<glyph name="uni024C" format="1">
  <advance width="622"/>
  <unicode hex="024C"/>
  <outline>
    <contour>
      <point x="234" y="386" type="line"/>
      <point x="70" y="386" type="line"/>
      <point x="21" y="386" type="line"/>
      <point x="2" y="248" type="line"/>
      <point x="309" y="248" type="line"/>
    </contour>
    <component base="R" xOffset="10"/>
  </outline>
</glyph>
<glyph name="uni024F" format="1">
  <advance width="562"/>
  <unicode hex="024F"/>
  <outline>
    <contour>
      <point x="562" y="284" type="line"/>
      <point x="578" y="399" type="line"/>
      <point x="538" y="399" type="line"/>
      <point x="61" y="399" type="line"/>
      <point x="22" y="399" type="line"/>
      <point x="6" y="284" type="line"/>
    </contour>
    <component base="y" xOffset="22"/>
  </outline>
</glyph>
<glyph name="uni0251" format="1">
  <advance width="574"/>
  <unicode hex="0251"/>
  <outline>
    <contour>
      <point x="262" y="-20"/>
      <point x="311" y="19"/>
      <point x="345" y="72" type="curve"/>
      <point x="366" y="15"/>
      <point x="424" y="-12"/>
      <point x="486" y="-16" type="curve"/>
      <point x="542" y="110" type="line"/>
      <point x="516" y="121"/>
      <point x="516" y="138"/>
      <point x="520" y="172" type="curve" smooth="yes"/>
      <point x="572" y="534" type="line"/>
      <point x="436" y="534" type="line"/>
      <point x="360" y="387" type="line"/>
      <point x="330" y="182" type="line"/>
      <point x="306" y="141"/>
      <point x="279" y="122"/>
      <point x="253" y="122" type="curve" smooth="yes"/>
      <point x="231" y="122"/>
      <point x="210" y="132"/>
      <point x="210" y="198" type="curve" smooth="yes"/>
      <point x="210" y="302"/>
      <point x="235" y="418"/>
      <point x="305" y="418" type="curve" smooth="yes"/>
      <point x="336" y="418"/>
      <point x="360" y="394"/>
      <point x="373" y="347" type="curve"/>
      <point x="433" y="388" type="line"/>
      <point x="426" y="501"/>
      <point x="378" y="554"/>
      <point x="287" y="554" type="curve" smooth="yes"/>
      <point x="117" y="554"/>
      <point x="11" y="374"/>
      <point x="11" y="197" type="curve" smooth="yes"/>
      <point x="11" y="64"/>
      <point x="70" y="-20"/>
      <point x="188" y="-20" type="curve" smooth="yes"/>
    </contour>
    <contour>
      <point x="326" y="534" type="move" name="top"/>
    </contour>
    <contour>
      <point x="250" y="0" type="move" name="bottom"/>
    </contour>
  </outline>
</glyph>
<glyph name="uni0257" format="1">
  <advance width="584"/>
  <unicode hex="0257"/>
  <outline>
    <contour>
      <point x="384" y="511" type="line"/>
      <point x="358" y="538"/>
      <point x="319" y="554"/>
      <point x="279" y="554" type="curve" smooth="yes"/>
      <point x="80" y="554"/>
      <point x="11" y="347"/>
      <point x="11" y="197" type="curve" smooth="yes"/>
      <point x="11" y="61"/>
      <point x="63" y="-20"/>
      <point x="178" y="-20" type="curve" smooth="yes"/>
      <point x="253" y="-20"/>
      <point x="303" y="25"/>
      <point x="335" y="69" type="curve"/>
      <point x="334" y="0" type="line"/>
      <point x="507" y="0" type="line"/>
      <point x="581" y="534" type="line"/>
      <point x="387" y="534" type="line"/>
    </contour>
    <contour>
      <point x="338" y="413"/>
      <point x="352" y="406"/>
      <point x="367" y="389" type="curve"/>
      <point x="341" y="205" type="line"/>
      <point x="317" y="166"/>
      <point x="284" y="122"/>
      <point x="252" y="122" type="curve" smooth="yes"/>
      <point x="230" y="122"/>
      <point x="211" y="133"/>
      <point x="211" y="199" type="curve" smooth="yes"/>
      <point x="211" y="278"/>
      <point x="233" y="413"/>
      <point x="315" y="413" type="curve" smooth="yes"/>
    </contour>
    <component base="hookaboveHELPER2" xOffset="316"/>
    <contour>
      <point x="365" y="744" type="move" name="top"/>
    </contour>
    <contour>
      <point x="252" y="0" type="move" name="bottom"/>
    </contour>
  </outline>
</glyph>
<glyph name="uni0258" format="1">
  <advance width="547"/>
  <unicode hex="0258"/>
  <outline>
    <contour>
      <point x="122" y="554"/>
      <point x="29" y="465"/>
      <point x="29" y="364" type="curve" smooth="yes"/>
      <point x="29" y="236"/>
      <point x="164" y="200"/>
      <point x="335" y="190" type="curve"/>
      <point x="351" y="302" type="line"/>
      <point x="245" y="305"/>
      <point x="226" y="339"/>
      <point x="226" y="371" type="curve" smooth="yes"/>
      <point x="226" y="406"/>
      <point x="247" y="429"/>
      <point x="280" y="429" type="curve" smooth="yes"/>
      <point x="326" y="429"/>
      <point x="342" y="396"/>
      <point x="342" y="336" type="curve" smooth="yes"/>
      <point x="342" y="202"/>
      <point x="310" y="120"/>
      <point x="212" y="120" type="curve" smooth="yes"/>
      <point x="165" y="120"/>
      <point x="129" y="134"/>
      <point x="89" y="164" type="curve"/>
      <point x="5" y="59" type="line"/>
      <point x="52" y="15"/>
      <point x="119" y="-20"/>
      <point x="214" y="-20" type="curve" smooth="yes"/>
      <point x="417" y="-20"/>
      <point x="533" y="119"/>
      <point x="533" y="318" type="curve" smooth="yes"/>
      <point x="533" y="439"/>
      <point x="474" y="554"/>
      <point x="286" y="554" type="curve" smooth="yes"/>
    </contour>
    <contour>
      <point x="282" y="534" type="move" name="top"/>
    </contour>
    <contour>
      <point x="212" y="0" type="move" name="bottom"/>
    </contour>
  </outline>
</glyph>
<glyph name="uni025E" format="1">
  <advance width="569"/>
  <unicode hex="025E"/>
  <outline>
    <contour>
      <point x="465" y="-20"/>
      <point x="537" y="69"/>
      <point x="537" y="160" type="curve" smooth="yes"/>
      <point x="537" y="226"/>
      <point x="495" y="275"/>
      <point x="409" y="283" type="curve"/>
      <point x="499" y="299"/>
      <point x="548" y="347"/>
      <point x="548" y="414" type="curve" smooth="yes"/>
      <point x="548" y="497"/>
      <point x="461" y="554"/>
      <point x="335" y="554" type="curve"/>
      <point x="132" y="554"/>
      <point x="13" y="413"/>
      <point x="13" y="209" type="curve" smooth="yes"/>
      <point x="13" y="60"/>
      <point x="100" y="-20"/>
      <point x="263" y="-20" type="curve"/>
    </contour>
    <contour>
      <point x="223" y="116"/>
      <point x="202" y="138"/>
      <point x="202" y="204" type="curve" smooth="yes"/>
      <point x="202" y="289"/>
      <point x="227" y="422"/>
      <point x="311" y="422" type="curve" smooth="yes"/>
      <point x="337" y="422"/>
      <point x="352" y="410"/>
      <point x="352" y="386" type="curve" smooth="yes"/>
      <point x="352" y="352"/>
      <point x="326" y="332"/>
      <point x="286" y="332" type="curve" smooth="yes"/>
      <point x="283" y="332" type="line"/>
      <point x="255" y="212" type="line"/>
      <point x="283" y="212" type="line" smooth="yes"/>
      <point x="329" y="212"/>
      <point x="341" y="196"/>
      <point x="341" y="172" type="curve" smooth="yes"/>
      <point x="341" y="138"/>
      <point x="320" y="116"/>
      <point x="268" y="116" type="curve"/>
    </contour>
    <contour>
      <point x="332" y="534" type="move" name="top"/>
    </contour>
    <contour>
      <point x="256" y="0" type="move" name="bottom"/>
    </contour>
  </outline>
</glyph>
<glyph name="uni025F" format="1">
  <advance width="346"/>
  <unicode hex="025F"/>
  <outline>
    <contour>
      <point x="70" y="184" type="line"/>
      <point x="332" y="184" type="line"/>
      <point x="351" y="319" type="line"/>
      <point x="17" y="319" type="line"/>
      <point x="-2" y="184" type="line"/>
    </contour>
    <component base="uni0237" xOffset="41"/>
  </outline>
</glyph>
<glyph name="uni0260" format="1">
  <advance width="582"/>
  <unicode hex="0260"/>
  <outline>
    <contour>
      <point x="385" y="534" type="line"/>
      <point x="337" y="202" type="line"/>
      <point x="313" y="166"/>
      <point x="285" y="144"/>
      <point x="257" y="144" type="curve" smooth="yes"/>
      <point x="235" y="144"/>
      <point x="211" y="155"/>
      <point x="211" y="218" type="curve" smooth="yes"/>
      <point x="211" y="292"/>
      <point x="238" y="418"/>
      <point x="328" y="418" type="curve" smooth="yes"/>
      <point x="349" y="418"/>
      <point x="362" y="414"/>
      <point x="389" y="406" type="curve"/>
      <point x="555" y="481" type="line"/>
      <point x="508" y="512"/>
      <point x="415" y="554"/>
      <point x="325" y="554" type="curve" smooth="yes"/>
      <point x="97" y="554"/>
      <point x="12" y="352"/>
      <point x="12" y="211" type="curve" smooth="yes"/>
      <point x="12" y="87"/>
      <point x="71" y="0"/>
      <point x="189" y="0" type="curve" smooth="yes"/>
      <point x="246" y="0"/>
      <point x="291" y="26"/>
      <point x="324" y="63" type="curve"/>
      <point x="317" y="21" type="line" smooth="yes"/>
      <point x="304" y="-67"/>
      <point x="257" y="-82"/>
      <point x="206" y="-82" type="curve" smooth="yes"/>
      <point x="166" y="-82"/>
      <point x="120" y="-72"/>
      <point x="60" y="-40" type="curve"/>
      <point x="-3" y="-164" type="line"/>
      <point x="59" y="-203"/>
      <point x="140" y="-227"/>
      <point x="207" y="-227" type="curve" smooth="yes"/>
      <point x="401" y="-227"/>
      <point x="481" y="-139"/>
      <point x="510" y="58" type="curve" smooth="yes"/>
      <point x="579" y="534" type="line"/>
    </contour>
    <component base="hookaboveHELPER2" xOffset="314"/>
    <contour>
      <point x="372" y="744" type="move" name="top"/>
    </contour>
    <contour>
      <point x="209" y="-215" type="move" name="bottom"/>
    </contour>
  </outline>
</glyph>
<glyph name="uni0263" format="1">
  <advance width="514"/>
  <unicode hex="0263"/>
  <outline>
    <contour>
      <point x="317" y="-227"/>
      <point x="379" y="-166"/>
      <point x="379" y="-70" type="curve" smooth="yes"/>
      <point x="379" y="-13"/>
      <point x="360" y="34"/>
      <point x="330" y="92" type="curve"/>
      <point x="256" y="218" type="line"/>
      <point x="229" y="534" type="line"/>
      <point x="22" y="534" type="line"/>
      <point x="149" y="93" type="line"/>
      <point x="226" y="-6" type="line"/>
      <point x="235" y="-32"/>
      <point x="242" y="-53"/>
      <point x="242" y="-75" type="curve" smooth="yes"/>
      <point x="242" y="-96"/>
      <point x="230" y="-112"/>
      <point x="209" y="-112" type="curve" smooth="yes"/>
      <point x="195" y="-112"/>
      <point x="187" y="-104"/>
      <point x="187" y="-90" type="curve" smooth="yes"/>
      <point x="187" y="-68"/>
      <point x="204" y="-39"/>
      <point x="226" y="-8" type="curve"/>
      <point x="331" y="93" type="line"/>
      <point x="568" y="534" type="line"/>
      <point x="366" y="534" type="line"/>
      <point x="256" y="218" type="line"/>
      <point x="148" y="94" type="line"/>
      <point x="93" y="24"/>
      <point x="49" y="-39"/>
      <point x="49" y="-110" type="curve" smooth="yes"/>
      <point x="49" y="-179"/>
      <point x="101" y="-227"/>
      <point x="197" y="-227" type="curve" smooth="yes"/>
    </contour>
    <contour>
      <point x="296" y="534" type="move" name="top"/>
    </contour>
    <contour>
      <point x="197" y="-215" type="move" name="bottom"/>
    </contour>
  </outline>
</glyph>
<glyph name="uni0264" format="1">
  <advance width="582"/>
  <unicode hex="0264"/>
  <outline>
    <contour>
      <point x="370" y="-20"/>
      <point x="419" y="47"/>
      <point x="419" y="121" type="curve" smooth="yes"/>
      <point x="419" y="167"/>
      <point x="403" y="203"/>
      <point x="375" y="248" type="curve"/>
      <point x="301" y="359" type="line"/>
      <point x="287" y="413" type="line" smooth="yes"/>
      <point x="263" y="507"/>
      <point x="231" y="554"/>
      <point x="145" y="554" type="curve" smooth="yes"/>
      <point x="97" y="554"/>
      <point x="63" y="542"/>
      <point x="27" y="523" type="curve"/>
      <point x="66" y="408" type="line"/>
      <point x="79" y="413"/>
      <point x="89" y="417"/>
      <point x="109" y="417" type="curve" smooth="yes"/>
      <point x="130" y="417"/>
      <point x="140" y="410"/>
      <point x="150" y="383" type="curve" smooth="yes"/>
      <point x="199" y="252" type="line"/>
      <point x="278" y="168" type="line"/>
      <point x="287" y="150"/>
      <point x="292" y="135"/>
      <point x="292" y="118" type="curve" smooth="yes"/>
      <point x="292" y="100"/>
      <point x="282" y="90"/>
      <point x="266" y="90" type="curve" smooth="yes"/>
      <point x="254" y="90"/>
      <point x="248" y="97"/>
      <point x="248" y="108" type="curve" smooth="yes"/>
      <point x="248" y="126"/>
      <point x="262" y="147"/>
      <point x="278" y="168" type="curve"/>
      <point x="375" y="248" type="line"/>
      <point x="467" y="381" type="line" smooth="yes"/>
      <point x="485" y="407"/>
      <point x="499" y="417"/>
      <point x="521" y="417" type="curve" smooth="yes"/>
      <point x="539" y="417"/>
      <point x="547" y="413"/>
      <point x="560" y="408" type="curve"/>
      <point x="627" y="521" type="line"/>
      <point x="597" y="540"/>
      <point x="565" y="554"/>
      <point x="515" y="554" type="curve" smooth="yes"/>
      <point x="425" y="554"/>
      <point x="382" y="512"/>
      <point x="335" y="423" type="curve" smooth="yes"/>
      <point x="301" y="359" type="line"/>
      <point x="199" y="252" type="line"/>
      <point x="149" y="196"/>
      <point x="120" y="145"/>
      <point x="120" y="91" type="curve" smooth="yes"/>
      <point x="120" y="29"/>
      <point x="165" y="-20"/>
      <point x="254" y="-20" type="curve" smooth="yes"/>
    </contour>
    <contour>
      <point x="316" y="534" type="move" name="top"/>
    </contour>
    <contour>
      <point x="256" y="0" type="move" name="bottom"/>
    </contour>
  </outline>
</glyph>
<glyph name="uni0265" format="1">
  <advance width="555"/>
  <unicode hex="0265"/>
  <outline>
    <contour>
      <point x="453" y="-207" type="line"/>
      <point x="556" y="534" type="line"/>
      <point x="362" y="534" type="line"/>
      <point x="320" y="236" type="line"/>
      <point x="289" y="180"/>
      <point x="257" y="141"/>
      <point x="234" y="141" type="curve" smooth="yes"/>
      <point x="220" y="141"/>
      <point x="212" y="153"/>
      <point x="218" y="195" type="curve" smooth="yes"/>
      <point x="267" y="534" type="line"/>
      <point x="73" y="534" type="line"/>
      <point x="18" y="141" type="line" smooth="yes"/>
      <point x="4" y="39"/>
      <point x="53" y="-20"/>
      <point x="137" y="-20" type="curve" smooth="yes"/>
      <point x="204" y="-20"/>
      <point x="264" y="23"/>
      <point x="300" y="72" type="curve"/>
      <point x="259" y="-227" type="line"/>
    </contour>
    <contour>
      <point x="312" y="534" type="move" name="top"/>
    </contour>
    <contour>
      <point x="208" y="-215" type="move" name="bottom"/>
    </contour>
  </outline>
</glyph>
<glyph name="uni0267" format="1">
  <advance width="559"/>
  <unicode hex="0267"/>
  <outline>
    <component base="hookHELPER" xOffset="125"/>
    <component base="uni0266"/>
    <contour>
      <point x="216" y="-215" type="move" name="bottom"/>
    </contour>
  </outline>
</glyph>
<glyph name="uni0269" format="1">
  <advance width="289"/>
  <unicode hex="0269"/>
  <outline>
    <contour>
      <point x="5" y="41"/>
      <point x="56" y="-20"/>
      <point x="157" y="-20" type="curve" smooth="yes"/>
      <point x="198" y="-20"/>
      <point x="243" y="-12"/>
      <point x="273" y="1" type="curve"/>
      <point x="255" y="138" type="line"/>
      <point x="249" y="136"/>
      <point x="242" y="135"/>
      <point x="235" y="135" type="curve" smooth="yes"/>
      <point x="222" y="135"/>
      <point x="212" y="142"/>
      <point x="216" y="167" type="curve" smooth="yes"/>
      <point x="267" y="534" type="line"/>
      <point x="73" y="534" type="line"/>
      <point x="20" y="152" type="line" smooth="yes"/>
    </contour>
    <contour>
      <point x="170" y="534" type="move" name="top"/>
    </contour>
    <contour>
      <point x="107" y="0" type="move" name="bottom"/>
    </contour>
  </outline>
</glyph>
<glyph name="uni026C" format="1">
  <advance width="470"/>
  <unicode hex="026C"/>
  <outline>
    <contour>
      <point x="360" y="237" type="line"/>
      <point x="392" y="239"/>
      <point x="421" y="245"/>
      <point x="443" y="251" type="curve"/>
      <point x="444" y="347" type="line"/>
      <point x="419" y="342"/>
      <point x="400" y="339"/>
      <point x="374" y="337" type="curve"/>
      <point x="177" y="333" type="line"/>
      <point x="146" y="333"/>
      <point x="127" y="342"/>
      <point x="127" y="365" type="curve" smooth="yes"/>
      <point x="127" y="383"/>
      <point x="140" y="397"/>
      <point x="161" y="397" type="curve" smooth="yes"/>
      <point x="171" y="397"/>
      <point x="177" y="396"/>
      <point x="185" y="394" type="curve"/>
      <point x="203" y="484" type="line"/>
      <point x="192" y="487"/>
      <point x="176" y="490"/>
      <point x="158" y="490" type="curve" smooth="yes"/>
      <point x="68" y="490"/>
      <point x="4" y="440"/>
      <point x="4" y="356" type="curve" smooth="yes"/>
      <point x="4" y="284"/>
      <point x="56" y="236"/>
      <point x="163" y="233" type="curve"/>
    </contour>
    <component base="l" xOffset="130"/>
  </outline>
</glyph>
<glyph name="uni027F" format="1">
  <advance width="398"/>
  <unicode hex="027F"/>
  <outline>
    <contour>
      <point x="176" y="328" type="line"/>
      <point x="131" y="0" type="line"/>
      <point x="325" y="0" type="line"/>
      <point x="370" y="328" type="line"/>
    </contour>
    <component base="hookHELPERright" xOffset="356" yOffset="328" xScale="-1" yScale="-1"/>
    <contour>
      <point x="215" y="534" type="move" name="top"/>
    </contour>
    <contour>
      <point x="228" y="0" type="move" name="bottom"/>
    </contour>
  </outline>
</glyph>
<glyph name="uni0283" format="1">
  <advance width="277"/>
  <unicode hex="0283"/>
  <outline>
    <contour>
      <point x="78" y="534" type="line"/>
      <point x="4" y="0" type="line"/>
      <point x="198" y="0" type="line"/>
      <point x="272" y="534" type="line"/>
    </contour>
    <component base="hookHELPER" xOffset="-163"/>
    <component base="hookaboveHELPER2" xOffset="7"/>
    <contour>
      <point x="314" y="744" type="move" name="top"/>
    </contour>
    <contour>
      <point x="-44" y="-215" type="move" name="bottom"/>
    </contour>
  </outline>
</glyph>
<glyph name="uni028D" format="1">
  <advance width="756"/>
  <unicode hex="028D"/>
  <outline>
    <component base="w" xOffset="756" yOffset="534" xScale="-1" yScale="-1"/>
    <contour>
      <point x="409" y="534" type="move" name="top"/>
    </contour>
    <contour>
      <point x="333" y="0" type="move" name="bottom"/>
    </contour>
  </outline>
</glyph>
<glyph name="uni028E" format="1">
  <advance width="520"/>
  <unicode hex="028E"/>
  <outline>
    <contour>
      <point x="149" y="0" type="line"/>
      <point x="285" y="412" type="line"/>
      <point x="296" y="0" type="line"/>
      <point x="498" y="0" type="line"/>
      <point x="423" y="534" type="line"/>
      <point x="354" y="533" type="line"/>
      <point x="390" y="595"/>
      <point x="440" y="620"/>
      <point x="541" y="631" type="curve"/>
      <point x="537" y="764" type="line"/>
      <point x="361" y="759"/>
      <point x="239" y="684"/>
      <point x="175" y="534" type="curve" smooth="yes"/>
      <point x="-54" y="0" type="line"/>
    </contour>
    <contour>
      <point x="328" y="744" type="move" name="top"/>
    </contour>
    <contour>
      <point x="224" y="0" type="move" name="bottom"/>
    </contour>
  </outline>
</glyph>
<glyph name="uni028F" format="1">
  <advance width="518"/>
  <unicode hex="028F"/>
  <outline>
    <contour>
      <point x="364" y="534" type="line"/>
      <point x="266" y="321" type="line"/>
      <point x="228" y="534" type="line"/>
      <point x="22" y="534" type="line"/>
      <point x="152" y="188" type="line"/>
      <point x="125" y="0" type="line"/>
      <point x="319" y="0" type="line"/>
      <point x="346" y="189" type="line"/>
      <point x="572" y="534" type="line"/>
    </contour>
    <contour>
      <point x="297" y="534" type="move" name="top"/>
    </contour>
    <contour>
      <point x="221" y="0" type="move" name="bottom"/>
    </contour>
  </outline>
</glyph>
<glyph name="uni02A0" format="1">
  <advance width="578"/>
  <unicode hex="02A0"/>
  <outline>
    <contour>
      <point x="97" y="554"/>
      <point x="11" y="363"/>
      <point x="11" y="197" type="curve" smooth="yes"/>
      <point x="11" y="64"/>
      <point x="71" y="-20"/>
      <point x="185" y="-20" type="curve" smooth="yes"/>
      <point x="250" y="-20"/>
      <point x="301" y="16"/>
      <point x="314" y="36" type="curve"/>
      <point x="277" y="-227" type="line"/>
      <point x="472" y="-207" type="line"/>
      <point x="575" y="534" type="line"/>
      <point x="484" y="546" type="line"/>
      <point x="391" y="547" type="line"/>
      <point x="373" y="551"/>
      <point x="353" y="554"/>
      <point x="323" y="554" type="curve" smooth="yes"/>
    </contour>
    <contour>
      <point x="341" y="418"/>
      <point x="352" y="417"/>
      <point x="368" y="415" type="curve"/>
      <point x="333" y="182" type="line"/>
      <point x="309" y="141"/>
      <point x="283" y="122"/>
      <point x="256" y="122" type="curve" smooth="yes"/>
      <point x="233" y="122"/>
      <point x="210" y="132"/>
      <point x="210" y="198" type="curve" smooth="yes"/>
      <point x="210" y="292"/>
      <point x="240" y="418"/>
      <point x="325" y="418" type="curve" smooth="yes"/>
    </contour>
    <component base="hookaboveHELPER2" xOffset="310"/>
    <contour>
      <point x="373" y="744" type="move" name="top"/>
    </contour>
    <contour>
      <point x="218" y="-215" type="move" name="bottom"/>
    </contour>
  </outline>
</glyph>
<glyph name="uni02A3" format="1">
  <advance width="999"/>
  <unicode hex="02A3"/>
  <outline>
    <contour>
      <point x="569" y="534" type="line"/>
      <point x="549" y="390" type="line"/>
      <point x="769" y="390" type="line"/>
      <point x="522" y="131" type="line"/>
      <point x="505" y="0" type="line"/>
      <point x="937" y="0" type="line"/>
      <point x="974" y="146" type="line"/>
      <point x="758" y="146" type="line"/>
      <point x="1003" y="397" type="line"/>
      <point x="1021" y="534" type="line"/>
    </contour>
    <component base="d"/>
    <contour>
      <point x="569" y="744" type="move" name="top"/>
    </contour>
    <contour>
      <point x="464" y="0" type="move" name="bottom"/>
    </contour>
  </outline>
</glyph>
<glyph name="uni02A5" format="1">
  <advance width="1125"/>
  <unicode hex="02A5"/>
  <outline>
    <contour>
      <point x="569" y="534" type="line"/>
      <point x="549" y="390" type="line"/>
      <point x="774" y="390" type="line"/>
      <point x="523" y="138" type="line"/>
      <point x="505" y="0" type="line"/>
      <point x="890" y="0" type="line"/>
      <point x="969" y="146" type="line"/>
      <point x="746" y="146" type="line"/>
      <point x="1003" y="407" type="line"/>
      <point x="1020" y="534" type="line"/>
    </contour>
    <contour>
      <point x="856" y="-133" type="line"/>
      <point x="864" y="-82"/>
      <point x="870" y="-32"/>
      <point x="880" y="0" type="curve"/>
      <point x="914" y="130" type="line"/>
      <point x="930" y="178"/>
      <point x="954" y="201"/>
      <point x="980" y="201" type="curve" smooth="yes"/>
      <point x="994" y="201"/>
      <point x="1001" y="193"/>
      <point x="1001" y="181" type="curve" smooth="yes"/>
      <point x="1001" y="158"/>
      <point x="980" y="146"/>
      <point x="950" y="146" type="curve"/>
      <point x="890" y="0" type="line"/>
      <point x="1035" y="-1"/>
      <point x="1126" y="57"/>
      <point x="1126" y="184" type="curve" smooth="yes"/>
      <point x="1126" y="256"/>
      <point x="1073" y="297"/>
      <point x="1002" y="297" type="curve" smooth="yes"/>
      <point x="930" y="297"/>
      <point x="866" y="261"/>
      <point x="817" y="146" type="curve"/>
      <point x="778" y="2" type="line"/>
      <point x="768" y="-34"/>
      <point x="760" y="-84"/>
      <point x="753" y="-131" type="curve"/>
    </contour>
    <component base="d"/>
    <contour>
      <point x="514" y="744" type="move" name="top"/>
    </contour>
  </outline>
</glyph>
<glyph name="uni02AE" format="1">
  <advance width="689"/>
  <unicode hex="02AE"/>
  <outline>
    <contour>
      <point x="587" y="-207" type="line"/>
      <point x="690" y="534" type="line"/>
      <point x="496" y="534" type="line"/>
      <point x="454" y="236" type="line"/>
      <point x="423" y="180"/>
      <point x="391" y="141"/>
      <point x="368" y="141" type="curve" smooth="yes"/>
      <point x="354" y="141"/>
      <point x="346" y="154"/>
      <point x="352" y="195" type="curve" smooth="yes"/>
      <point x="370" y="327" type="line"/>
      <point x="176" y="327" type="line"/>
      <point x="152" y="141" type="line" smooth="yes"/>
      <point x="139" y="40"/>
      <point x="187" y="-20"/>
      <point x="271" y="-20" type="curve" smooth="yes"/>
      <point x="338" y="-20"/>
      <point x="398" y="23"/>
      <point x="434" y="72" type="curve"/>
      <point x="393" y="-227" type="line"/>
    </contour>
    <component base="hookHELPERright" xOffset="356" yOffset="327" xScale="-1" yScale="-1"/>
    <contour>
      <point x="421" y="534" type="move" name="top"/>
    </contour>
    <contour>
      <point x="270" y="-215" type="move" name="bottom"/>
    </contour>
  </outline>
</glyph>
<glyph name="uni02AF" format="1">
  <advance width="690"/>
  <unicode hex="02AF"/>
  <outline>
    <contour>
      <point x="616" y="0" type="line"/>
      <point x="690" y="534" type="line"/>
      <point x="496" y="534" type="line"/>
      <point x="454" y="236" type="line"/>
      <point x="423" y="180"/>
      <point x="391" y="141"/>
      <point x="368" y="141" type="curve" smooth="yes"/>
      <point x="354" y="141"/>
      <point x="346" y="154"/>
      <point x="352" y="195" type="curve" smooth="yes"/>
      <point x="370" y="327" type="line"/>
      <point x="176" y="327" type="line"/>
      <point x="152" y="141" type="line" smooth="yes"/>
      <point x="139" y="40"/>
      <point x="187" y="-20"/>
      <point x="271" y="-20" type="curve" smooth="yes"/>
      <point x="338" y="-20"/>
      <point x="394" y="19"/>
      <point x="431" y="68" type="curve"/>
      <point x="422" y="0" type="line"/>
    </contour>
    <component base="hookHELPERright" xOffset="356" yOffset="327" xScale="-1" yScale="-1"/>
    <component base="hookHELPERright" xOffset="436"/>
    <contour>
      <point x="421" y="534" type="move" name="top"/>
    </contour>
    <contour>
      <point x="270" y="-215" type="move" name="bottom"/>
    </contour>
  </outline>
</glyph>
<glyph name="uni02B2" format="1">
  <advance width="218"/>
  <unicode hex="02B2"/>
  <outline>
    <contour>
      <point x="145" y="665" type="line"/>
      <point x="111" y="426" type="line" smooth="yes"/>
      <point x="104" y="378"/>
      <point x="83" y="365"/>
      <point x="43" y="348" type="curve"/>
      <point x="63" y="291" type="line"/>
      <point x="138" y="312"/>
      <point x="185" y="337"/>
      <point x="198" y="426" type="curve" smooth="yes"/>
      <point x="231" y="665" type="line"/>
    </contour>
    <contour>
      <point x="173" y="811"/>
      <point x="147" y="785"/>
      <point x="147" y="755" type="curve" smooth="yes"/>
      <point x="147" y="729"/>
      <point x="166" y="709"/>
      <point x="196" y="709" type="curve" smooth="yes"/>
      <point x="231" y="709"/>
      <point x="255" y="736"/>
      <point x="255" y="765" type="curve" smooth="yes"/>
      <point x="255" y="791"/>
      <point x="238" y="811"/>
      <point x="207" y="811" type="curve" smooth="yes"/>
    </contour>
  </outline>
</glyph>
<glyph name="uni02B8" format="1">
  <advance width="364"/>
  <unicode hex="02B8"/>
  <outline>
    <contour>
      <point x="305" y="669" type="line"/>
      <point x="205" y="454" type="line"/>
      <point x="171" y="669" type="line"/>
      <point x="88" y="669" type="line"/>
      <point x="147" y="400" type="line"/>
      <point x="169" y="401" type="line"/>
      <point x="145" y="362"/>
      <point x="124" y="348"/>
      <point x="66" y="337" type="curve"/>
      <point x="71" y="280" type="line"/>
      <point x="164" y="288"/>
      <point x="210" y="329"/>
      <point x="243" y="393" type="curve" smooth="yes"/>
      <point x="388" y="669" type="line"/>
    </contour>
  </outline>
</glyph>
<glyph name="uni02BF" format="1">
  <advance width="212"/>
  <unicode hex="02BF"/>
  <outline>
    <contour>
      <point x="253" y="785" type="line"/>
      <point x="228" y="785"/>
      <point x="208" y="768"/>
      <point x="208" y="732" type="curve" smooth="yes"/>
      <point x="208" y="704"/>
      <point x="222" y="693"/>
      <point x="242" y="693" type="curve"/>
      <point x="227" y="593" type="line"/>
      <point x="144" y="593"/>
      <point x="96" y="645"/>
      <point x="96" y="722" type="curve" smooth="yes"/>
      <point x="96" y="820"/>
      <point x="165" y="886"/>
      <point x="269" y="886" type="curve"/>
    </contour>
  </outline>
</glyph>
<glyph name="uni02E0" format="1">
  <advance width="368"/>
  <unicode hex="02E0"/>
  <outline>
    <contour>
      <point x="247" y="290"/>
      <point x="274" y="320"/>
      <point x="274" y="361" type="curve" smooth="yes"/>
      <point x="274" y="385"/>
      <point x="264" y="410"/>
      <point x="248" y="436" type="curve"/>
      <point x="216" y="490" type="line"/>
      <point x="185" y="665" type="line"/>
      <point x="99" y="665" type="line"/>
      <point x="171" y="438" type="line"/>
      <point x="204" y="396" type="line"/>
      <point x="209" y="382"/>
      <point x="211" y="373"/>
      <point x="211" y="364" type="curve" smooth="yes"/>
      <point x="211" y="351"/>
      <point x="205" y="342"/>
      <point x="194" y="342" type="curve" smooth="yes"/>
      <point x="186" y="342"/>
      <point x="184" y="346"/>
      <point x="184" y="353" type="curve" smooth="yes"/>
      <point x="184" y="365"/>
      <point x="192" y="380"/>
      <point x="204" y="396" type="curve"/>
      <point x="248" y="436" type="line"/>
      <point x="381" y="665" type="line"/>
      <point x="296" y="665" type="line"/>
      <point x="216" y="490" type="line"/>
      <point x="171" y="438" type="line"/>
      <point x="148" y="412"/>
      <point x="119" y="377"/>
      <point x="119" y="344" type="curve" smooth="yes"/>
      <point x="119" y="310"/>
      <point x="143" y="290"/>
      <point x="190" y="290" type="curve" smooth="yes"/>
    </contour>
  </outline>
</glyph>
<glyph name="uni02E1" format="1">
  <advance width="189"/>
  <unicode hex="02E1"/>
  <outline>
    <contour>
      <point x="142" y="391"/>
      <point x="164" y="395"/>
      <point x="176" y="400" type="curve"/>
      <point x="166" y="461" type="line"/>
      <point x="162" y="460"/>
      <point x="157" y="459"/>
      <point x="152" y="459" type="curve" smooth="yes"/>
      <point x="147" y="459"/>
      <point x="145" y="462"/>
      <point x="146" y="469" type="curve" smooth="yes"/>
      <point x="190" y="780" type="line"/>
      <point x="103" y="772" type="line"/>
      <point x="60" y="467" type="line" smooth="yes"/>
      <point x="52" y="414"/>
      <point x="83" y="391"/>
      <point x="125" y="391" type="curve" smooth="yes"/>
    </contour>
  </outline>
</glyph>
<glyph name="uni02E2" format="1">
  <advance width="313"/>
  <unicode hex="02E2"/>
  <outline>
    <contour>
      <point x="135" y="673"/>
      <point x="89" y="632"/>
      <point x="89" y="583" type="curve" smooth="yes"/>
      <point x="89" y="544"/>
      <point x="117" y="524"/>
      <point x="170" y="511" type="curve" smooth="yes"/>
      <point x="220" y="499"/>
      <point x="228" y="493"/>
      <point x="228" y="479" type="curve" smooth="yes"/>
      <point x="228" y="459"/>
      <point x="206" y="452"/>
      <point x="177" y="452" type="curve" smooth="yes"/>
      <point x="142" y="452"/>
      <point x="122" y="459"/>
      <point x="96" y="477" type="curve"/>
      <point x="55" y="431" type="line"/>
      <point x="81" y="409"/>
      <point x="117" y="391"/>
      <point x="173" y="391" type="curve" smooth="yes"/>
      <point x="242" y="391"/>
      <point x="311" y="420"/>
      <point x="311" y="490" type="curve" smooth="yes"/>
      <point x="311" y="528"/>
      <point x="284" y="550"/>
      <point x="226" y="563" type="curve" smooth="yes"/>
      <point x="181" y="573"/>
      <point x="171" y="579"/>
      <point x="171" y="591" type="curve" smooth="yes"/>
      <point x="171" y="604"/>
      <point x="184" y="612"/>
      <point x="215" y="612" type="curve" smooth="yes"/>
      <point x="240" y="612"/>
      <point x="259" y="606"/>
      <point x="281" y="592" type="curve"/>
      <point x="320" y="638" type="line"/>
      <point x="291" y="661"/>
      <point x="253" y="673"/>
      <point x="216" y="673" type="curve" smooth="yes"/>
    </contour>
  </outline>
</glyph>
<glyph name="uni02E3" format="1">
  <advance width="346"/>
  <unicode hex="02E3"/>
  <outline>
    <contour>
      <point x="98" y="665" type="line"/>
      <point x="163" y="540" type="line"/>
      <point x="207" y="497" type="line"/>
      <point x="246" y="400" type="line"/>
      <point x="333" y="400" type="line"/>
      <point x="260" y="542" type="line"/>
      <point x="215" y="581" type="line"/>
      <point x="182" y="665" type="line"/>
    </contour>
    <contour>
      <point x="270" y="665" type="line"/>
      <point x="215" y="581" type="line"/>
      <point x="162" y="540" type="line"/>
      <point x="51" y="400" type="line"/>
      <point x="140" y="400" type="line"/>
      <point x="207" y="497" type="line"/>
      <point x="262" y="542" type="line"/>
      <point x="356" y="665" type="line"/>
    </contour>
  </outline>
</glyph>
<glyph name="uni02E4" format="1">
  <advance width="327"/>
  <unicode hex="02E4"/>
  <outline>
    <contour>
      <point x="261" y="578" type="line"/>
      <point x="226" y="586" type="line" smooth="yes"/>
      <point x="190" y="595"/>
      <point x="171" y="608"/>
      <point x="171" y="638" type="curve" smooth="yes"/>
      <point x="171" y="686"/>
      <point x="199" y="713"/>
      <point x="243" y="713" type="curve" smooth="yes"/>
      <point x="270" y="713"/>
      <point x="293" y="703"/>
      <point x="315" y="686" type="curve"/>
      <point x="359" y="734" type="line"/>
      <point x="326" y="763"/>
      <point x="290" y="779"/>
      <point x="242" y="779" type="curve" smooth="yes"/>
      <point x="151" y="779"/>
      <point x="86" y="726"/>
      <point x="86" y="636" type="curve" smooth="yes"/>
      <point x="86" y="590"/>
      <point x="110" y="564"/>
      <point x="156" y="549" type="curve" smooth="yes"/>
      <point x="170" y="544" type="line"/>
      <point x="150" y="400" type="line"/>
      <point x="236" y="400" type="line"/>
    </contour>
  </outline>
</glyph>
<glyph name="gravecomb" format="1">
  <advance width="357"/>
  <unicode hex="0300"/>
  <outline>
    <contour>
      <point x="93" y="712" type="line"/>
      <point x="332" y="616" type="line"/>
      <point x="385" y="709" type="line"/>
      <point x="173" y="856" type="line"/>
    </contour>
    <contour>
      <point x="243" y="856" type="move" name="top"/>
    </contour>
    <contour>
      <point x="203" y="534" type="move" name="_top"/>
    </contour>
  </outline>
</glyph>
<glyph name="acutecomb" format="1">
  <advance width="358"/>
  <unicode hex="0301"/>
  <outline>
    <contour>
      <point x="87" y="712" type="line"/>
      <point x="131" y="613" type="line"/>
      <point x="391" y="712" type="line"/>
      <point x="331" y="856" type="line"/>
    </contour>
    <contour>
      <point x="244" y="856" type="move" name="top"/>
    </contour>
    <contour>
      <point x="214" y="534" type="move" name="_top"/>
    </contour>
  </outline>
</glyph>
<glyph name="uni0302" format="1">
  <advance width="460"/>
  <unicode hex="0302"/>
  <outline>
    <contour>
      <point x="294" y="708" type="line"/>
      <point x="414" y="612" type="line"/>
      <point x="489" y="689" type="line"/>
      <point x="368" y="840" type="line"/>
      <point x="252" y="840" type="line"/>
      <point x="89" y="689" type="line"/>
      <point x="147" y="612" type="line"/>
    </contour>
    <contour>
      <point x="309" y="840" type="move" name="top"/>
    </contour>
    <contour>
      <point x="270" y="534" type="move" name="_top"/>
    </contour>
  </outline>
</glyph>
<glyph name="uni0307" format="1">
  <advance width="278"/>
  <unicode hex="0307"/>
  <outline>
    <contour>
      <point x="259" y="617"/>
      <point x="313" y="668"/>
      <point x="313" y="736" type="curve" smooth="yes"/>
      <point x="313" y="790"/>
      <point x="275" y="829"/>
      <point x="216" y="829" type="curve"/>
      <point x="147" y="829"/>
      <point x="93" y="778"/>
      <point x="93" y="710" type="curve" smooth="yes"/>
      <point x="93" y="656"/>
      <point x="131" y="617"/>
      <point x="190" y="617" type="curve"/>
    </contour>
    <contour>
      <point x="203" y="723" type="move" name="_center"/>
    </contour>
    <contour>
      <point x="216" y="829" type="move" name="top"/>
    </contour>
    <contour>
      <point x="176" y="534" type="move" name="_top"/>
    </contour>
  </outline>
</glyph>
<glyph name="uni0308" format="1">
  <advance width="491"/>
  <unicode hex="0308"/>
  <outline>
    <contour>
      <point x="239" y="634"/>
      <point x="286" y="678"/>
      <point x="286" y="737" type="curve" smooth="yes"/>
      <point x="286" y="784"/>
      <point x="253" y="818"/>
      <point x="201" y="818" type="curve"/>
      <point x="141" y="818"/>
      <point x="94" y="774"/>
      <point x="94" y="715" type="curve" smooth="yes"/>
      <point x="94" y="668"/>
      <point x="127" y="634"/>
      <point x="179" y="634" type="curve"/>
    </contour>
    <contour>
      <point x="479" y="634"/>
      <point x="526" y="678"/>
      <point x="526" y="737" type="curve" smooth="yes"/>
      <point x="526" y="784"/>
      <point x="493" y="818"/>
      <point x="441" y="818" type="curve"/>
      <point x="381" y="818"/>
      <point x="334" y="774"/>
      <point x="334" y="715" type="curve" smooth="yes"/>
      <point x="334" y="668"/>
      <point x="367" y="634"/>
      <point x="419" y="634" type="curve"/>
    </contour>
    <contour>
      <point x="312" y="818" type="move" name="top"/>
    </contour>
    <contour>
      <point x="283" y="534" type="move" name="_top"/>
    </contour>
  </outline>
</glyph>
<glyph name="hookabovecomb" format="1">
  <advance width="311"/>
  <unicode hex="0309"/>
  <outline>
    <contour>
      <point x="241" y="601" type="line"/>
      <point x="248" y="650" type="line"/>
      <point x="308" y="662"/>
      <point x="348" y="695"/>
      <point x="348" y="754" type="curve" smooth="yes"/>
      <point x="348" y="810"/>
      <point x="308" y="856"/>
      <point x="221" y="856" type="curve" smooth="yes"/>
      <point x="181" y="856"/>
      <point x="143" y="847"/>
      <point x="109" y="829" type="curve"/>
      <point x="129" y="754" type="line"/>
      <point x="150" y="762"/>
      <point x="167" y="767"/>
      <point x="189" y="767" type="curve" smooth="yes"/>
      <point x="213" y="767"/>
      <point x="223" y="759"/>
      <point x="223" y="743" type="curve" smooth="yes"/>
      <point x="223" y="717"/>
      <point x="199" y="705"/>
      <point x="147" y="704" type="curve"/>
      <point x="134" y="601" type="line"/>
    </contour>
    <contour>
      <point x="98" y="511" type="move" name="_topright"/>
    </contour>
    <contour>
      <point x="245" y="856" type="move" name="top"/>
    </contour>
    <contour>
      <point x="178" y="534" type="move" name="_top"/>
    </contour>
  </outline>
</glyph>
<glyph name="uni030B" format="1">
  <advance width="462"/>
  <unicode hex="030B"/>
  <outline>
    <contour>
      <point x="265" y="666" type="line"/>
      <point x="354" y="620" type="line"/>
      <point x="509" y="816" type="line"/>
      <point x="396" y="877" type="line"/>
    </contour>
    <contour>
      <point x="86" y="663" type="line"/>
      <point x="177" y="624" type="line"/>
      <point x="325" y="821" type="line"/>
      <point x="210" y="877" type="line"/>
    </contour>
    <contour>
      <point x="222" y="534" type="move" name="_top"/>
    </contour>
  </outline>
</glyph>
<glyph name="uni030C" format="1">
  <advance width="460"/>
  <unicode hex="030C"/>
  <outline>
    <contour>
      <point x="290" y="734" type="line"/>
      <point x="170" y="830" type="line"/>
      <point x="98" y="753" type="line"/>
      <point x="220" y="602" type="line"/>
      <point x="336" y="602" type="line"/>
      <point x="498" y="753" type="line"/>
      <point x="438" y="830" type="line"/>
    </contour>
    <contour>
      <point x="300" y="830" type="move" name="top"/>
    </contour>
    <contour>
      <point x="268" y="534" type="move" name="_top"/>
    </contour>
  </outline>
</glyph>
<glyph name="uni0311" format="1">
  <advance width="430"/>
  <unicode hex="0311"/>
  <outline>
    <contour>
      <point x="197" y="640"/>
      <point x="228" y="673"/>
      <point x="274" y="673" type="curve" smooth="yes"/>
      <point x="318" y="673"/>
      <point x="339" y="642"/>
      <point x="343" y="595" type="curve"/>
      <point x="448" y="610" type="line"/>
      <point x="454" y="712"/>
      <point x="410" y="807"/>
      <point x="289" y="807" type="curve" smooth="yes"/>
      <point x="170" y="807"/>
      <point x="100" y="714"/>
      <point x="78" y="612" type="curve"/>
      <point x="179" y="593" type="line"/>
    </contour>
    <contour>
      <point x="285" y="807" type="move" name="top"/>
    </contour>
    <contour>
      <point x="251" y="534" type="move" name="_top"/>
    </contour>
  </outline>
</glyph>
<glyph name="uni0312" format="1">
  <advance width="242"/>
  <unicode hex="0312"/>
  <outline>
    <component base="uni0326" xOffset="241" yOffset="526" xScale="-1" yScale="-1"/>
    <contour>
      <point x="162" y="534" type="move" name="_top"/>
    </contour>
  </outline>
</glyph>
<glyph name="uni0313" format="1">
  <advance width="241"/>
  <unicode hex="0313"/>
  <outline>
    <component base="uni0326" xOffset="131" yOffset="935"/>
    <contour>
      <point x="139" y="534" type="move" name="_top"/>
    </contour>
  </outline>
</glyph>
<glyph name="uni0318" format="1">
  <advance width="281"/>
  <unicode hex="0318"/>
  <outline>
    <contour>
      <point x="79" y="-155" type="line"/>
      <point x="-29" y="-155" type="line"/>
      <point x="-43" y="-258" type="line"/>
      <point x="65" y="-258" type="line"/>
      <point x="51" y="-356" type="line"/>
      <point x="163" y="-356" type="line"/>
      <point x="205" y="-56" type="line"/>
      <point x="93" y="-56" type="line"/>
    </contour>
    <contour>
      <point x="120" y="0" type="move" name="_bottom"/>
    </contour>
    <contour>
      <point x="83" y="-356" type="move" name="bottom"/>
    </contour>
  </outline>
</glyph>
<glyph name="uni031A" format="1">
  <advance width="284"/>
  <unicode hex="031A"/>
  <outline>
    <contour>
      <point x="94" y="715" type="line"/>
      <point x="206" y="715" type="line"/>
      <point x="189" y="596" type="line"/>
      <point x="300" y="596" type="line"/>
      <point x="331" y="815" type="line"/>
      <point x="107" y="815" type="line"/>
    </contour>
    <contour>
      <point x="215" y="815" type="move" name="top"/>
    </contour>
    <contour>
      <point x="188" y="534" type="move" name="_top"/>
    </contour>
  </outline>
</glyph>
<glyph name="uni031E" format="1">
  <advance width="394"/>
  <unicode hex="031E"/>
  <outline>
    <contour>
      <point x="315" y="-85" type="line"/>
      <point x="-19" y="-85" type="line"/>
      <point x="-34" y="-189" type="line"/>
      <point x="72" y="-189" type="line"/>
      <point x="52" y="-329" type="line"/>
      <point x="173" y="-329" type="line"/>
      <point x="193" y="-189" type="line"/>
      <point x="300" y="-189" type="line"/>
    </contour>
    <contour>
      <point x="170" y="0" type="move" name="_bottom"/>
    </contour>
    <contour>
      <point x="113" y="-329" type="move" name="bottom"/>
    </contour>
  </outline>
</glyph>
<glyph name="uni0324" format="1">
  <advance width="491"/>
  <unicode hex="0324"/>
  <outline>
    <component base="uni0308" xOffset="-124" yOffset="-882"/>
    <contour>
      <point x="206" y="0" type="move" name="_bottom"/>
    </contour>
    <contour>
      <point x="175" y="-249" type="move" name="bottom"/>
    </contour>
  </outline>
</glyph>
<glyph name="uni0325" format="1">
  <advance width="364"/>
  <unicode hex="0325"/>
  <outline>
    <component base="uni030A" xOffset="-131" yOffset="-930"/>
    <contour>
      <point x="144" y="0" type="move" name="_bottom"/>
    </contour>
    <contour>
      <point x="98" y="-337" type="move" name="bottom"/>
    </contour>
  </outline>
</glyph>
<glyph name="uni0326" format="1">
  <advance width="242"/>
  <unicode hex="0326"/>
  <outline>
    <contour>
      <point x="15" y="-62"/>
      <point x="-29" y="-103"/>
      <point x="-29" y="-165" type="curve" smooth="yes"/>
      <point x="-29" y="-193"/>
      <point x="-17" y="-212"/>
      <point x="3" y="-226" type="curve"/>
      <point x="-41" y="-342" type="line"/>
      <point x="51" y="-342" type="line"/>
      <point x="114" y="-244" type="line" smooth="yes"/>
      <point x="140" y="-204"/>
      <point x="153" y="-178"/>
      <point x="153" y="-142" type="curve" smooth="yes"/>
      <point x="153" y="-94"/>
      <point x="117" y="-62"/>
      <point x="68" y="-62" type="curve" smooth="yes"/>
    </contour>
    <contour>
      <point x="84" y="0" type="move" name="_bottom"/>
    </contour>
  </outline>
</glyph>
<glyph name="uni032A" format="1">
  <advance width="375"/>
  <unicode hex="032A"/>
  <outline>
    <contour>
      <point x="68" y="-259" type="line"/>
      <point x="78" y="-179" type="line"/>
      <point x="170" y="-179" type="line"/>
      <point x="160" y="-259" type="line"/>
      <point x="271" y="-259" type="line"/>
      <point x="295" y="-85" type="line"/>
      <point x="-19" y="-85" type="line"/>
      <point x="-43" y="-259" type="line"/>
    </contour>
    <contour>
      <point x="150" y="0" type="move" name="_bottom"/>
    </contour>
    <contour>
      <point x="128" y="-259" type="move" name="bottom"/>
    </contour>
  </outline>
</glyph>
<glyph name="uni032C" format="1">
  <advance width="460"/>
  <unicode hex="032C"/>
  <outline>
    <component base="uni030C.case" xOffset="-143" yOffset="-1020"/>
    <contour>
      <point x="194" y="0" type="move" name="_bottom"/>
    </contour>
    <contour>
      <point x="154" y="-273" type="move" name="bottom"/>
    </contour>
  </outline>
</glyph>
<glyph name="uni032F" format="1">
  <advance width="431"/>
  <unicode hex="032F"/>
  <outline>
    <component base="uni0311" xOffset="-120" yOffset="-860"/>
    <contour>
      <point x="177" y="0" type="move" name="_bottom"/>
    </contour>
    <contour>
      <point x="148" y="-267" type="move" name="bottom"/>
    </contour>
  </outline>
</glyph>
<glyph name="uni033A" format="1">
  <advance width="374"/>
  <unicode hex="033A"/>
  <outline>
    <contour>
      <point x="-44" y="-259" type="line"/>
      <point x="270" y="-259" type="line"/>
      <point x="294" y="-85" type="line"/>
      <point x="183" y="-85" type="line"/>
      <point x="171" y="-165" type="line"/>
      <point x="80" y="-165" type="line"/>
      <point x="91" y="-85" type="line"/>
      <point x="-20" y="-85" type="line"/>
    </contour>
    <contour>
      <point x="149" y="0" type="move" name="_bottom"/>
    </contour>
    <contour>
      <point x="113" y="-259" type="move" name="bottom"/>
    </contour>
  </outline>
</glyph>
<glyph name="uni033C" format="1">
  <advance width="498"/>
  <unicode hex="033C"/>
  <outline>
    <contour>
      <point x="27" y="-53"/>
      <point x="-22" y="-136"/>
      <point x="-41" y="-235" type="curve"/>
      <point x="35" y="-247" type="line"/>
      <point x="50" y="-200"/>
      <point x="64" y="-177"/>
      <point x="95" y="-177" type="curve" smooth="yes"/>
      <point x="123" y="-177"/>
      <point x="132" y="-200"/>
      <point x="133" y="-247" type="curve"/>
      <point x="200" y="-247" type="line"/>
      <point x="211" y="-138"/>
      <point x="183" y="-53"/>
      <point x="104" y="-53" type="curve" smooth="yes"/>
    </contour>
    <contour>
      <point x="223" y="-53"/>
      <point x="174" y="-138"/>
      <point x="154" y="-247" type="curve"/>
      <point x="221" y="-247" type="line"/>
      <point x="236" y="-200"/>
      <point x="251" y="-177"/>
      <point x="281" y="-177" type="curve" smooth="yes"/>
      <point x="310" y="-177"/>
      <point x="318" y="-198"/>
      <point x="319" y="-247" type="curve"/>
      <point x="397" y="-239" type="line"/>
      <point x="407" y="-138"/>
      <point x="379" y="-53"/>
      <point x="300" y="-53" type="curve" smooth="yes"/>
    </contour>
    <contour>
      <point x="200" y="0" type="move" name="_bottom"/>
    </contour>
    <contour>
      <point x="181" y="-247" type="move" name="bottom"/>
    </contour>
  </outline>
</glyph>
<glyph name="uni0361" format="1">
  <advance width="371"/>
  <unicode hex="0361"/>
  <outline>
    <contour>
      <point x="137" y="618" type="line"/>
      <point x="207" y="647"/>
      <point x="308" y="681"/>
      <point x="428" y="681" type="curve" smooth="yes"/>
      <point x="547" y="681"/>
      <point x="640" y="649"/>
      <point x="702" y="620" type="curve"/>
      <point x="767" y="700" type="line"/>
      <point x="695" y="762"/>
      <point x="602" y="824"/>
      <point x="444" y="824" type="curve" smooth="yes"/>
      <point x="288" y="824"/>
      <point x="179" y="764"/>
      <point x="91" y="702" type="curve"/>
    </contour>
  </outline>
</glyph>
<glyph name="uni0373" format="1">
  <advance width="507"/>
  <unicode hex="0373"/>
  <outline>
    <contour>
      <point x="390" y="501" type="line"/>
      <point x="195" y="501" type="line"/>
      <point x="94" y="-227" type="line"/>
      <point x="288" y="-207" type="line"/>
    </contour>
    <contour>
      <point x="61" y="383"/>
      <point x="95" y="389"/>
      <point x="153" y="389" type="curve" smooth="yes"/>
      <point x="528" y="389" type="line"/>
      <point x="548" y="534" type="line"/>
      <point x="132" y="534" type="line" smooth="yes"/>
      <point x="80" y="534"/>
      <point x="47" y="527"/>
      <point x="13" y="513" type="curve"/>
      <point x="31" y="374" type="line"/>
    </contour>
    <contour>
      <point x="291" y="534" type="move" name="top"/>
    </contour>
  </outline>
</glyph>
<glyph name="tonos" format="1">
  <advance width="247"/>
  <unicode hex="0384"/>
  <outline>
    <contour>
      <point x="89" y="596" type="line"/>
      <point x="211" y="596" type="line"/>
      <point x="297" y="839" type="line"/>
      <point x="112" y="853" type="line"/>
    </contour>
    <contour>
      <point x="142" y="534" type="move" name="_top"/>
    </contour>
  </outline>
</glyph>
<glyph name="dieresistonos" format="1">
  <advance width="513"/>
  <unicode hex="0385"/>
  <outline>
    <contour>
      <point x="135" y="772"/>
      <point x="88" y="728"/>
      <point x="88" y="669" type="curve" smooth="yes"/>
      <point x="88" y="622"/>
      <point x="121" y="588"/>
      <point x="173" y="588" type="curve"/>
      <point x="233" y="588"/>
      <point x="280" y="632"/>
      <point x="280" y="691" type="curve" smooth="yes"/>
      <point x="280" y="738"/>
      <point x="247" y="772"/>
      <point x="195" y="772" type="curve" smooth="yes"/>
    </contour>
    <contour>
      <point x="397" y="772"/>
      <point x="350" y="728"/>
      <point x="350" y="669" type="curve" smooth="yes"/>
      <point x="350" y="622"/>
      <point x="383" y="588"/>
      <point x="435" y="588" type="curve"/>
      <point x="495" y="588"/>
      <point x="542" y="632"/>
      <point x="542" y="691" type="curve" smooth="yes"/>
      <point x="542" y="738"/>
      <point x="509" y="772"/>
      <point x="457" y="772" type="curve" smooth="yes"/>
    </contour>
    <contour>
      <point x="269" y="752" type="line"/>
      <point x="370" y="752" type="line"/>
      <point x="441" y="952" type="line"/>
      <point x="288" y="963" type="line"/>
    </contour>
    <contour>
      <point x="294" y="534" type="move" name="_top"/>
    </contour>
  </outline>
</glyph>
<glyph name="uni0394" format="1">
  <advance width="597"/>
  <unicode hex="0394"/>
  <outline>
    <contour>
      <point x="361" y="146" type="line"/>
      <point x="201" y="146" type="line"/>
      <point x="338" y="549" type="line"/>
    </contour>
    <contour>
      <point x="237" y="696" type="line"/>
      <point x="-63" y="0" type="line"/>
      <point x="584" y="0" type="line"/>
      <point x="479" y="696" type="line"/>
    </contour>
    <contour>
      <point x="358" y="696" type="move" name="top"/>
    </contour>
    <contour>
      <point x="260" y="0" type="move" name="bottom"/>
    </contour>
  </outline>
</glyph>
<glyph name="Lambda" format="1">
  <advance width="589"/>
  <unicode hex="039B"/>
  <outline>
    <contour>
      <point x="233" y="696" type="line"/>
      <point x="-63" y="0" type="line"/>
      <point x="153" y="0" type="line"/>
      <point x="335" y="552" type="line"/>
      <point x="367" y="0" type="line"/>
      <point x="576" y="0" type="line"/>
      <point x="475" y="696" type="line"/>
    </contour>
    <contour>
      <point x="354" y="696" type="move" name="top"/>
    </contour>
    <contour>
      <point x="260" y="0" type="move" name="bottom"/>
    </contour>
  </outline>
</glyph>
<glyph name="Xi" format="1">
  <advance width="516"/>
  <unicode hex="039E"/>
  <outline>
    <contour>
      <point x="2" y="174" type="line"/>
      <point x="-22" y="0" type="line"/>
      <point x="460" y="0" type="line"/>
      <point x="484" y="174" type="line"/>
    </contour>
    <contour>
      <point x="103" y="431" type="line"/>
      <point x="81" y="276" type="line"/>
      <point x="434" y="276" type="line"/>
      <point x="456" y="431" type="line"/>
    </contour>
    <contour>
      <point x="75" y="696" type="line"/>
      <point x="51" y="528" type="line"/>
      <point x="517" y="528" type="line"/>
      <point x="562" y="696" type="line"/>
    </contour>
    <contour>
      <point x="316" y="696" type="move" name="top"/>
    </contour>
    <contour>
      <point x="218" y="0" type="move" name="bottom"/>
    </contour>
  </outline>
</glyph>
<glyph name="pi" format="1">
  <advance width="596"/>
  <unicode hex="03C0"/>
  <outline>
    <contour>
      <point x="222" y="0" type="line"/>
      <point x="278" y="405" type="line"/>
      <point x="87" y="405" type="line"/>
      <point x="32" y="0" type="line"/>
    </contour>
    <contour>
      <point x="550" y="120" type="line"/>
      <point x="520" y="136"/>
      <point x="516" y="156"/>
      <point x="522" y="201" type="curve" smooth="yes"/>
      <point x="550" y="405" type="line"/>
      <point x="355" y="405" type="line"/>
      <point x="323" y="177" type="line" smooth="yes"/>
      <point x="306" y="53"/>
      <point x="367" y="-4"/>
      <point x="477" y="-20" type="curve"/>
    </contour>
    <contour>
      <point x="57" y="385"/>
      <point x="77" y="389"/>
      <point x="103" y="389" type="curve" smooth="yes"/>
      <point x="615" y="389" type="line"/>
      <point x="635" y="534" type="line"/>
      <point x="128" y="534" type="line" smooth="yes"/>
      <point x="86" y="534"/>
      <point x="50" y="525"/>
      <point x="19" y="513" type="curve"/>
      <point x="37" y="379" type="line"/>
    </contour>
    <contour>
      <point x="336" y="534" type="move" name="top"/>
    </contour>
    <contour>
      <point x="260" y="0" type="move" name="bottom"/>
    </contour>
  </outline>
</glyph>
<glyph name="rho" format="1">
  <advance width="580"/>
  <unicode hex="03C1"/>
  <outline>
    <contour>
      <point x="158" y="-207" type="line"/>
      <point x="222" y="242" type="line" smooth="yes"/>
      <point x="241" y="372"/>
      <point x="264" y="413"/>
      <point x="310" y="413" type="curve" smooth="yes"/>
      <point x="340" y="413"/>
      <point x="362" y="400"/>
      <point x="362" y="329" type="curve" smooth="yes"/>
      <point x="362" y="244"/>
      <point x="337" y="121"/>
      <point x="267" y="121" type="curve" smooth="yes"/>
      <point x="235" y="121"/>
      <point x="216" y="135"/>
      <point x="200" y="165" type="curve"/>
      <point x="183" y="37" type="line"/>
      <point x="204" y="2"/>
      <point x="243" y="-20"/>
      <point x="294" y="-20" type="curve" smooth="yes"/>
      <point x="476" y="-20"/>
      <point x="561" y="153"/>
      <point x="561" y="327" type="curve" smooth="yes"/>
      <point x="561" y="476"/>
      <point x="464" y="554"/>
      <point x="319" y="554" type="curve" smooth="yes"/>
      <point x="144" y="554"/>
      <point x="56" y="453"/>
      <point x="32" y="278" type="curve" smooth="yes"/>
      <point x="-38" y="-227" type="line"/>
    </contour>
    <contour>
      <point x="319" y="534" type="move" name="top"/>
    </contour>
  </outline>
</glyph>
<glyph name="tau" format="1">
  <advance width="475"/>
  <unicode hex="03C4"/>
  <outline>
    <contour>
      <point x="356" y="120" type="line"/>
      <point x="327" y="136"/>
      <point x="322" y="156"/>
      <point x="328" y="201" type="curve" smooth="yes"/>
      <point x="357" y="405" type="line"/>
      <point x="162" y="405" type="line"/>
      <point x="130" y="177" type="line" smooth="yes"/>
      <point x="113" y="53"/>
      <point x="184" y="-4"/>
      <point x="294" y="-20" type="curve"/>
    </contour>
    <contour>
      <point x="61" y="383"/>
      <point x="95" y="389"/>
      <point x="153" y="389" type="curve" smooth="yes"/>
      <point x="496" y="389" type="line"/>
      <point x="516" y="534" type="line"/>
      <point x="132" y="534" type="line" smooth="yes"/>
      <point x="80" y="534"/>
      <point x="47" y="527"/>
      <point x="13" y="513" type="curve"/>
      <point x="31" y="374" type="line"/>
    </contour>
    <contour>
      <point x="275" y="534" type="move" name="top"/>
    </contour>
    <contour>
      <point x="200" y="0" type="move" name="bottom"/>
    </contour>
  </outline>
</glyph>
<glyph name="chi" format="1">
  <advance width="495"/>
  <unicode hex="03C7"/>
  <outline>
    <contour>
      <point x="-3" y="494" type="line"/>
      <point x="53" y="424"/>
      <point x="83" y="343"/>
      <point x="134" y="180" type="curve"/>
      <point x="215" y="37" type="line"/>
      <point x="262" y="-227" type="line"/>
      <point x="455" y="-194" type="line"/>
      <point x="332" y="181" type="line"/>
      <point x="249" y="318" type="line"/>
      <point x="227" y="443"/>
      <point x="219" y="479"/>
      <point x="190" y="548" type="curve"/>
    </contour>
    <contour>
      <point x="249" y="318" type="line"/>
      <point x="134" y="180" type="line"/>
      <point x="-97" y="-207" type="line"/>
      <point x="104" y="-227" type="line"/>
      <point x="215" y="37" type="line"/>
      <point x="332" y="181" type="line"/>
      <point x="534" y="528" type="line"/>
      <point x="329" y="548" type="line"/>
    </contour>
    <contour>
      <point x="285" y="534" type="move" name="top"/>
    </contour>
  </outline>
</glyph>
<glyph name="uni03CF" format="1">
  <advance width="695"/>
  <unicode hex="03CF"/>
  <outline>
    <contour>
      <point x="455" y="0" type="line"/>
      <point x="657" y="0" type="line"/>
      <point x="679" y="154" type="line"/>
      <point x="479" y="154" type="line"/>
    </contour>
    <component base="Kappa"/>
    <component base="hookHELPER.case" xOffset="280"/>
  </outline>
</glyph>
<glyph name="uni03D6" format="1">
  <advance width="749"/>
  <unicode hex="03D6"/>
  <outline>
    <contour>
      <point x="278" y="-20"/>
      <point x="328" y="15"/>
      <point x="363" y="109" type="curve"/>
      <point x="372" y="12"/>
      <point x="431" y="-20"/>
      <point x="512" y="-20" type="curve" smooth="yes"/>
      <point x="650" y="-20"/>
      <point x="733" y="115"/>
      <point x="733" y="257" type="curve" smooth="yes"/>
      <point x="733" y="393"/>
      <point x="645" y="481"/>
      <point x="601" y="534" type="curve"/>
      <point x="500" y="534" type="line"/>
      <point x="530" y="468"/>
      <point x="550" y="387"/>
      <point x="550" y="305" type="curve" smooth="yes"/>
      <point x="550" y="242"/>
      <point x="538" y="122"/>
      <point x="488" y="122" type="curve" smooth="yes"/>
      <point x="460" y="122"/>
      <point x="460" y="152"/>
      <point x="466" y="196" type="curve" smooth="yes"/>
      <point x="481" y="309" type="line"/>
      <point x="301" y="285" type="line"/>
      <point x="287" y="191" type="line" smooth="yes"/>
      <point x="279" y="137"/>
      <point x="266" y="122"/>
      <point x="246" y="122" type="curve" smooth="yes"/>
      <point x="226" y="122"/>
      <point x="217" y="137"/>
      <point x="217" y="180" type="curve" smooth="yes"/>
      <point x="217" y="280"/>
      <point x="267" y="423"/>
      <point x="349" y="534" type="curve"/>
      <point x="244" y="534" type="line"/>
      <point x="122" y="422"/>
      <point x="28" y="319"/>
      <point x="28" y="168" type="curve" smooth="yes"/>
      <point x="28" y="37"/>
      <point x="99" y="-20"/>
      <point x="201" y="-20" type="curve" smooth="yes"/>
    </contour>
    <contour>
      <point x="68" y="398"/>
      <point x="82" y="400"/>
      <point x="130" y="400" type="curve" smooth="yes"/>
      <point x="758" y="400" type="line"/>
      <point x="776" y="534" type="line"/>
      <point x="191" y="534" type="line" smooth="yes"/>
      <point x="99" y="534"/>
      <point x="59" y="525"/>
      <point x="19" y="507" type="curve"/>
      <point x="39" y="389" type="line"/>
    </contour>
    <contour>
      <point x="405" y="534" type="move" name="top"/>
    </contour>
    <contour>
      <point x="329" y="0" type="move" name="bottom"/>
    </contour>
  </outline>
</glyph>
<glyph name="uni03D7" format="1">
  <advance width="527"/>
  <unicode hex="03D7"/>
  <outline>
    <contour>
      <point x="410" y="373" type="line"/>
      <point x="524" y="516" type="line"/>
      <point x="433" y="551" type="line"/>
      <point x="128" y="176" type="line"/>
      <point x="2" y="15" type="line"/>
      <point x="93" y="-20" type="line"/>
    </contour>
    <contour>
      <point x="510" y="120" type="line"/>
      <point x="480" y="136"/>
      <point x="475" y="156"/>
      <point x="481" y="201" type="curve" smooth="yes"/>
      <point x="524" y="516" type="line"/>
      <point x="410" y="373" type="line"/>
      <point x="336" y="272"/>
      <point x="286" y="182"/>
      <point x="286" y="115" type="curve" smooth="yes"/>
      <point x="286" y="36"/>
      <point x="358" y="-6"/>
      <point x="437" y="-20" type="curve"/>
    </contour>
    <contour>
      <point x="368" y="-227"/>
      <point x="459" y="-167"/>
      <point x="482" y="-38" type="curve" smooth="yes"/>
      <point x="510" y="120" type="line"/>
      <point x="346" y="120" type="line"/>
      <point x="319" y="-33" type="line" smooth="yes"/>
      <point x="309" y="-88"/>
      <point x="293" y="-107"/>
      <point x="250" y="-107" type="curve" smooth="yes"/>
      <point x="224" y="-107"/>
      <point x="209" y="-100"/>
      <point x="186" y="-88" type="curve"/>
      <point x="109" y="-181" type="line"/>
      <point x="141" y="-207"/>
      <point x="187" y="-227"/>
      <point x="259" y="-227" type="curve" smooth="yes"/>
    </contour>
    <contour>
      <point x="16" y="411" type="line"/>
      <point x="46" y="395"/>
      <point x="51" y="375"/>
      <point x="45" y="330" type="curve" smooth="yes"/>
      <point x="2" y="15" type="line"/>
      <point x="128" y="176" type="line"/>
      <point x="202" y="277"/>
      <point x="240" y="349"/>
      <point x="240" y="416" type="curve" smooth="yes"/>
      <point x="240" y="495"/>
      <point x="168" y="537"/>
      <point x="89" y="551" type="curve"/>
    </contour>
    <contour>
      <point x="309" y="534" type="move" name="top"/>
    </contour>
  </outline>
</glyph>
<glyph name="uni03DC" format="1">
  <advance width="503"/>
  <unicode hex="03DC"/>
  <outline>
    <contour>
      <point x="494" y="369" type="line"/>
      <point x="464" y="391"/>
      <point x="426" y="402"/>
      <point x="372" y="402" type="curve" smooth="yes"/>
      <point x="105" y="402" type="line"/>
      <point x="85" y="258" type="line"/>
      <point x="344" y="258" type="line" smooth="yes"/>
      <point x="384" y="258"/>
      <point x="406" y="252"/>
      <point x="433" y="242" type="curve"/>
    </contour>
    <component base="Gamma"/>
  </outline>
</glyph>
<glyph name="uni03E0" format="1">
  <advance width="601"/>
  <unicode hex="03E0"/>
  <outline>
    <contour>
      <point x="588" y="0" type="line"/>
      <point x="425" y="696" type="line"/>
      <point x="251" y="696" type="line"/>
      <point x="269" y="641" type="line"/>
      <point x="316" y="536" type="line"/>
      <point x="409" y="0" type="line"/>
    </contour>
    <contour>
      <point x="112" y="0" type="line"/>
      <point x="414" y="666" type="line"/>
      <point x="269" y="641" type="line"/>
      <point x="-63" y="0" type="line"/>
    </contour>
    <contour>
      <point x="300" y="0" type="line"/>
      <point x="450" y="389" type="line"/>
      <point x="351" y="395" type="line"/>
      <point x="177" y="0" type="line"/>
    </contour>
    <contour>
      <point x="360" y="696" type="move" name="top"/>
    </contour>
    <contour>
      <point x="262" y="0" type="move" name="bottom"/>
    </contour>
  </outline>
</glyph>
<glyph name="uni03F1" format="1">
  <advance width="578"/>
  <unicode hex="03F1"/>
  <outline>
    <contour>
      <point x="442" y="-195" type="line"/>
      <point x="434" y="-111"/>
      <point x="391" y="-76"/>
      <point x="298" y="-60" type="curve" smooth="yes"/>
      <point x="199" y="-43"/>
      <point x="182" y="-29"/>
      <point x="187" y="2" type="curve" smooth="yes"/>
      <point x="222" y="242" type="line"/>
      <point x="240" y="372"/>
      <point x="264" y="413"/>
      <point x="311" y="413" type="curve" smooth="yes"/>
      <point x="340" y="413"/>
      <point x="362" y="400"/>
      <point x="362" y="336" type="curve" smooth="yes"/>
      <point x="362" y="254"/>
      <point x="337" y="161"/>
      <point x="267" y="161" type="curve" smooth="yes"/>
      <point x="235" y="161"/>
      <point x="216" y="175"/>
      <point x="200" y="205" type="curve"/>
      <point x="183" y="77" type="line"/>
      <point x="213" y="42"/>
      <point x="253" y="20"/>
      <point x="314" y="20" type="curve" smooth="yes"/>
      <point x="452" y="20"/>
      <point x="561" y="153"/>
      <point x="561" y="334" type="curve" smooth="yes"/>
      <point x="561" y="476"/>
      <point x="464" y="554"/>
      <point x="319" y="554" type="curve" smooth="yes"/>
      <point x="144" y="554"/>
      <point x="56" y="453"/>
      <point x="32" y="278" type="curve" smooth="yes"/>
      <point x="-1" y="38" type="line" smooth="yes"/>
      <point x="-20" y="-97"/>
      <point x="46" y="-156"/>
      <point x="165" y="-176" type="curve" smooth="yes"/>
      <point x="249" y="-190"/>
      <point x="267" y="-194"/>
      <point x="274" y="-226" type="curve"/>
    </contour>
    <contour>
      <point x="324" y="534" type="move" name="top"/>
    </contour>
  </outline>
</glyph>
<glyph name="uni03F9" format="1">
  <advance width="591"/>
  <unicode hex="03F9"/>
  <outline>
    <contour>
      <point x="122" y="716"/>
      <point x="25" y="464"/>
      <point x="25" y="270" type="curve" smooth="yes"/>
      <point x="25" y="81"/>
      <point x="137" y="-20"/>
      <point x="311" y="-20" type="curve" smooth="yes"/>
      <point x="426" y="-20"/>
      <point x="508" y="25"/>
      <point x="565" y="76" type="curve"/>
      <point x="489" y="193" type="line"/>
      <point x="447" y="162"/>
      <point x="406" y="135"/>
      <point x="347" y="135" type="curve" smooth="yes"/>
      <point x="271" y="135"/>
      <point x="234" y="179"/>
      <point x="234" y="274" type="curve" smooth="yes"/>
      <point x="234" y="377"/>
      <point x="270" y="568"/>
      <point x="407" y="568" type="curve" smooth="yes"/>
      <point x="463" y="568"/>
      <point x="495" y="550"/>
      <point x="526" y="523" type="curve"/>
      <point x="633" y="626" type="line"/>
      <point x="584" y="684"/>
      <point x="511" y="716"/>
      <point x="405" y="716" type="curve" smooth="yes"/>
    </contour>
    <contour>
      <point x="390" y="354" type="move" name="center"/>
    </contour>
    <contour>
      <point x="262" y="0" type="move" name="bottom"/>
    </contour>
    <contour>
      <point x="360" y="696" type="move" name="top"/>
    </contour>
  </outline>
</glyph>
<glyph name="uni03FB" format="1">
  <advance width="661"/>
  <unicode hex="03FB"/>
  <outline>
    <contour>
      <point x="420" y="534" type="line"/>
      <point x="324" y="211" type="line"/>
      <point x="308" y="534" type="line"/>
      <point x="92" y="534" type="line"/>
      <point x="-74" y="-226" type="line"/>
      <point x="107" y="-214" type="line"/>
      <point x="181" y="153" type="line" smooth="yes"/>
      <point x="196" y="227"/>
      <point x="202" y="292"/>
      <point x="203" y="366" type="curve"/>
      <point x="223" y="51" type="line"/>
      <point x="379" y="51" type="line"/>
      <point x="486" y="368" type="line"/>
      <point x="467" y="292"/>
      <point x="457" y="229"/>
      <point x="449" y="155" type="curve" smooth="yes"/>
      <point x="432" y="0" type="line"/>
      <point x="614" y="0" type="line"/>
      <point x="644" y="534" type="line"/>
    </contour>
    <contour>
      <point x="370" y="534" type="move" name="top"/>
    </contour>
  </outline>
</glyph>
<glyph name="uni03FC" format="1">
  <advance width="580"/>
  <unicode hex="03FC"/>
  <outline>
    <contour>
      <point x="-73" y="-148" type="line"/>
      <point x="-22" y="-148" type="line"/>
      <point x="293" y="-148" type="line"/>
      <point x="308" y="-42" type="line"/>
      <point x="-58" y="-42" type="line"/>
    </contour>
    <component base="rho"/>
  </outline>
</glyph>
<glyph name="uni0404" format="1">
  <advance width="566"/>
  <unicode hex="0404"/>
  <outline>
    <contour>
      <point x="406" y="-20"/>
      <point x="488" y="25"/>
      <point x="545" y="76" type="curve"/>
      <point x="469" y="188" type="line"/>
      <point x="427" y="157"/>
      <point x="386" y="130"/>
      <point x="337" y="130" type="curve" smooth="yes"/>
      <point x="261" y="130"/>
      <point x="224" y="174"/>
      <point x="224" y="274" type="curve" smooth="yes"/>
      <point x="224" y="381"/>
      <point x="260" y="572"/>
      <point x="397" y="572" type="curve" smooth="yes"/>
      <point x="443" y="572"/>
      <point x="475" y="554"/>
      <point x="506" y="527" type="curve"/>
      <point x="613" y="626" type="line"/>
      <point x="564" y="684"/>
      <point x="491" y="716"/>
      <point x="395" y="716" type="curve" smooth="yes"/>
      <point x="122" y="716"/>
      <point x="25" y="464"/>
      <point x="25" y="270" type="curve" smooth="yes"/>
      <point x="25" y="81"/>
      <point x="137" y="-20"/>
      <point x="301" y="-20" type="curve" smooth="yes"/>
    </contour>
    <contour>
      <point x="444" y="286" type="line"/>
      <point x="463" y="424" type="line"/>
      <point x="228" y="424" type="line"/>
      <point x="210" y="286" type="line"/>
    </contour>
    <contour>
      <point x="343" y="696" type="move" name="top"/>
    </contour>
    <contour>
      <point x="245" y="0" type="move" name="bottom"/>
    </contour>
  </outline>
</glyph>
<glyph name="uni040B" format="1">
  <advance width="754"/>
  <unicode hex="040B"/>
  <outline>
    <contour>
      <point x="64" y="696" type="line"/>
      <point x="43" y="546" type="line"/>
      <point x="567" y="546" type="line"/>
      <point x="607" y="696" type="line"/>
    </contour>
    <component base="uni04BA" xOffset="127"/>
  </outline>
</glyph>
<glyph name="uni0413" format="1">
  <advance width="499"/>
  <unicode hex="0413"/>
  <outline>
    <contour>
      <point x="5" y="0" type="line"/>
      <point x="207" y="0" type="line"/>
      <point x="289" y="584" type="line"/>
      <point x="103" y="696" type="line"/>
    </contour>
    <contour>
      <point x="103" y="696" type="line"/>
      <point x="267" y="538" type="line"/>
      <point x="524" y="538" type="line"/>
      <point x="565" y="696" type="line"/>
    </contour>
    <contour>
      <point x="340" y="696" type="move" name="top"/>
    </contour>
    <contour>
      <point x="106" y="0" type="move" name="bottom"/>
    </contour>
    <contour>
      <point x="216" y="0" type="move" name="bottomright"/>
    </contour>
  </outline>
</glyph>
<glyph name="uni0417" format="1">
  <advance width="540"/>
  <unicode hex="0417"/>
  <outline>
    <contour>
      <point x="219" y="716"/>
      <point x="135" y="684"/>
      <point x="60" y="621" type="curve"/>
      <point x="142" y="519" type="line"/>
      <point x="190" y="555"/>
      <point x="232" y="572"/>
      <point x="277" y="572" type="curve" smooth="yes"/>
      <point x="319" y="572"/>
      <point x="335" y="552"/>
      <point x="335" y="520" type="curve" smooth="yes"/>
      <point x="335" y="469"/>
      <point x="302" y="436"/>
      <point x="239" y="436" type="curve" smooth="yes"/>
      <point x="183" y="436" type="line"/>
      <point x="140" y="295" type="line"/>
      <point x="217" y="295" type="line" smooth="yes"/>
      <point x="281" y="295"/>
      <point x="310" y="271"/>
      <point x="310" y="227" type="curve" smooth="yes"/>
      <point x="310" y="166"/>
      <point x="269" y="126"/>
      <point x="200" y="126" type="curve" smooth="yes"/>
      <point x="153" y="126"/>
      <point x="119" y="144"/>
      <point x="82" y="183" type="curve"/>
      <point x="-36" y="81" type="line"/>
      <point x="15" y="17"/>
      <point x="83" y="-20"/>
      <point x="199" y="-20" type="curve" smooth="yes"/>
      <point x="383" y="-20"/>
      <point x="519" y="73"/>
      <point x="519" y="222" type="curve" smooth="yes"/>
      <point x="519" y="306"/>
      <point x="462" y="355"/>
      <point x="357" y="367" type="curve"/>
      <point x="491" y="394"/>
      <point x="546" y="464"/>
      <point x="546" y="546" type="curve" smooth="yes"/>
      <point x="546" y="649"/>
      <point x="460" y="716"/>
      <point x="321" y="716" type="curve" smooth="yes"/>
    </contour>
    <contour>
      <point x="321" y="696" type="move" name="top"/>
    </contour>
    <contour>
      <point x="227" y="0" type="move" name="bottom"/>
    </contour>
  </outline>
</glyph>
<glyph name="uni0418" format="1">
  <advance width="640"/>
  <unicode hex="0418"/>
  <outline>
    <contour>
      <point x="422" y="696" type="line"/>
      <point x="190" y="177" type="line"/>
      <point x="223" y="269"/>
      <point x="248" y="357"/>
      <point x="267" y="484" type="curve" smooth="yes"/>
      <point x="298" y="696" type="line"/>
      <point x="103" y="696" type="line"/>
      <point x="6" y="0" type="line"/>
      <point x="245" y="0" type="line"/>
      <point x="473" y="525" type="line"/>
      <point x="437" y="416"/>
      <point x="412" y="343"/>
      <point x="393" y="214" type="curve" smooth="yes"/>
      <point x="364" y="0" type="line"/>
      <point x="559" y="0" type="line"/>
      <point x="656" y="696" type="line"/>
    </contour>
    <contour>
      <point x="380" y="696" type="move" name="top"/>
    </contour>
    <contour>
      <point x="281" y="0" type="move" name="bottom"/>
    </contour>
    <contour>
      <point x="569" y="0" type="move" name="bottomright"/>
    </contour>
  </outline>
</glyph>
<glyph name="uni041A" format="1">
  <advance width="634"/>
  <unicode hex="041A"/>
  <outline>
    <contour>
      <point x="523" y="704"/>
      <point x="478" y="684"/>
      <point x="418" y="591" type="curve" smooth="yes"/>
      <point x="314" y="430" type="line"/>
      <point x="268" y="430" type="line"/>
      <point x="305" y="696" type="line"/>
      <point x="103" y="696" type="line"/>
      <point x="6" y="0" type="line"/>
      <point x="208" y="0" type="line"/>
      <point x="249" y="291" type="line"/>
      <point x="302" y="291" type="line"/>
      <point x="404" y="0" type="line"/>
      <point x="612" y="0" type="line"/>
      <point x="472" y="367" type="line"/>
      <point x="566" y="504" type="line" smooth="yes"/>
      <point x="601" y="555"/>
      <point x="631" y="572"/>
      <point x="682" y="578" type="curve"/>
      <point x="645" y="716" type="line"/>
    </contour>
    <contour>
      <point x="387" y="696" type="move" name="top"/>
    </contour>
    <contour>
      <point x="279" y="0" type="move" name="bottom"/>
    </contour>
    <contour>
      <point x="578" y="0" type="move" name="bottomright"/>
    </contour>
  </outline>
</glyph>
<glyph name="uni042A" format="1">
  <advance width="722"/>
  <unicode hex="042A"/>
  <outline>
    <contour>
      <point x="432" y="696" type="line"/>
      <point x="64" y="696" type="line"/>
      <point x="43" y="546" type="line"/>
      <point x="209" y="546" type="line"/>
    </contour>
    <component base="uni042C" xOffset="127"/>
  </outline>
</glyph>
<glyph name="uni042C" format="1">
  <advance width="595"/>
  <unicode hex="042C"/>
  <outline>
    <contour>
      <point x="6" y="0" type="line"/>
      <point x="280" y="0" type="line" smooth="yes"/>
      <point x="502" y="0"/>
      <point x="586" y="147"/>
      <point x="586" y="276" type="curve" smooth="yes"/>
      <point x="586" y="402"/>
      <point x="495" y="469"/>
      <point x="335" y="469" type="curve" smooth="yes"/>
      <point x="258" y="469" type="line"/>
      <point x="239" y="331" type="line"/>
      <point x="296" y="331" type="line" smooth="yes"/>
      <point x="352" y="331"/>
      <point x="374" y="300"/>
      <point x="374" y="260" type="curve" smooth="yes"/>
      <point x="374" y="217"/>
      <point x="355" y="145"/>
      <point x="272" y="145" type="curve" smooth="yes"/>
      <point x="228" y="145" type="line"/>
      <point x="305" y="696" type="line"/>
      <point x="103" y="696" type="line"/>
    </contour>
    <contour>
      <point x="357" y="696" type="move" name="top"/>
    </contour>
    <contour>
      <point x="259" y="0" type="move" name="bottom"/>
    </contour>
  </outline>
</glyph>
<glyph name="uni042F" format="1">
  <advance width="601"/>
  <unicode hex="042F"/>
  <outline>
    <contour>
      <point x="143" y="288" type="line"/>
      <point x="-49" y="0" type="line"/>
      <point x="166" y="0" type="line"/>
      <point x="315" y="252" type="line"/>
    </contour>
    <contour>
      <point x="292" y="237" type="line"/>
      <point x="367" y="237" type="line"/>
      <point x="386" y="375" type="line"/>
      <point x="323" y="375" type="line" smooth="yes"/>
      <point x="280" y="375"/>
      <point x="256" y="399"/>
      <point x="256" y="444" type="curve" smooth="yes"/>
      <point x="256" y="504"/>
      <point x="285" y="555"/>
      <point x="361" y="555" type="curve" smooth="yes"/>
      <point x="395" y="555" type="line"/>
      <point x="318" y="0" type="line"/>
      <point x="520" y="0" type="line"/>
      <point x="617" y="696" type="line"/>
      <point x="369" y="696" type="line" smooth="yes"/>
      <point x="119" y="696"/>
      <point x="43" y="563"/>
      <point x="43" y="435" type="curve" smooth="yes"/>
      <point x="43" y="351"/>
      <point x="83" y="299"/>
      <point x="146" y="271" type="curve"/>
    </contour>
    <contour>
      <point x="363" y="696" type="move" name="top"/>
    </contour>
    <contour>
      <point x="265" y="0" type="move" name="bottom"/>
    </contour>
  </outline>
</glyph>
<glyph name="uni0432" format="1">
  <advance width="566"/>
  <unicode hex="0432"/>
  <outline>
    <contour>
      <point x="132" y="554"/>
      <point x="13" y="385"/>
      <point x="13" y="224" type="curve" smooth="yes"/>
      <point x="13" y="61"/>
      <point x="117" y="-20"/>
      <point x="280" y="-20" type="curve" smooth="yes"/>
      <point x="409" y="-20"/>
      <point x="540" y="36"/>
      <point x="540" y="164" type="curve" smooth="yes"/>
      <point x="540" y="237"/>
      <point x="488" y="268"/>
      <point x="429" y="282" type="curve"/>
      <point x="507" y="315"/>
      <point x="541" y="358"/>
      <point x="541" y="421" type="curve" smooth="yes"/>
      <point x="541" y="507"/>
      <point x="451" y="554"/>
      <point x="339" y="554" type="curve" smooth="yes"/>
    </contour>
    <contour>
      <point x="330" y="229"/>
      <point x="348" y="207"/>
      <point x="348" y="177" type="curve" smooth="yes"/>
      <point x="348" y="130"/>
      <point x="315" y="111"/>
      <point x="283" y="111" type="curve" smooth="yes"/>
      <point x="237" y="111"/>
      <point x="205" y="137"/>
      <point x="205" y="217" type="curve" smooth="yes"/>
      <point x="205" y="222"/>
      <point x="205" y="228"/>
      <point x="205" y="232" type="curve"/>
      <point x="241" y="237"/>
      <point x="273" y="242"/>
      <point x="303" y="248" type="curve"/>
    </contour>
    <contour>
      <point x="351" y="431"/>
      <point x="361" y="416"/>
      <point x="361" y="397" type="curve" smooth="yes"/>
      <point x="361" y="357"/>
      <point x="315" y="331"/>
      <point x="216" y="320" type="curve"/>
      <point x="234" y="382"/>
      <point x="273" y="431"/>
      <point x="325" y="431" type="curve" smooth="yes"/>
    </contour>
  </outline>
</glyph>
<glyph name="uni0433" format="1">
  <advance width="477"/>
  <unicode hex="0433"/>
  <outline>
    <contour>
      <point x="191" y="554"/>
      <point x="112" y="528"/>
      <point x="58" y="486" type="curve"/>
      <point x="117" y="379" type="line"/>
      <point x="154" y="401"/>
      <point x="201" y="417"/>
      <point x="237" y="417" type="curve" smooth="yes"/>
      <point x="271" y="417"/>
      <point x="280" y="405"/>
      <point x="280" y="391" type="curve" smooth="yes"/>
      <point x="280" y="375"/>
      <point x="275" y="364"/>
      <point x="180" y="333" type="curve" smooth="yes"/>
      <point x="30" y="284"/>
      <point x="-11" y="222"/>
      <point x="-11" y="141" type="curve" smooth="yes"/>
      <point x="-11" y="44"/>
      <point x="73" y="-20"/>
      <point x="204" y="-20" type="curve" smooth="yes"/>
      <point x="301" y="-20"/>
      <point x="396" y="12"/>
      <point x="458" y="64" type="curve"/>
      <point x="379" y="170" type="line"/>
      <point x="338" y="140"/>
      <point x="285" y="116"/>
      <point x="236" y="116" type="curve" smooth="yes"/>
      <point x="208" y="116"/>
      <point x="192" y="126"/>
      <point x="192" y="146" type="curve" smooth="yes"/>
      <point x="192" y="170"/>
      <point x="206" y="186"/>
      <point x="297" y="217" type="curve" smooth="yes"/>
      <point x="428" y="262"/>
      <point x="471" y="328"/>
      <point x="471" y="405" type="curve" smooth="yes"/>
      <point x="471" y="493"/>
      <point x="391" y="554"/>
      <point x="267" y="554" type="curve" smooth="yes"/>
    </contour>
    <contour>
      <point x="283" y="534" type="move" name="top"/>
    </contour>
    <contour>
      <point x="207" y="0" type="move" name="bottom"/>
    </contour>
  </outline>
</glyph>
<glyph name="uni0444" format="1">
  <advance width="830"/>
  <unicode hex="0444"/>
  <outline>
    <contour>
      <point x="437" y="-207" type="line"/>
      <point x="471" y="34" type="line"/>
      <point x="498" y="-1"/>
      <point x="534" y="-20"/>
      <point x="583" y="-20" type="curve" smooth="yes"/>
      <point x="751" y="-20"/>
      <point x="818" y="175"/>
      <point x="818" y="348" type="curve" smooth="yes"/>
      <point x="818" y="475"/>
      <point x="770" y="554"/>
      <point x="668" y="554" type="curve" smooth="yes"/>
      <point x="624" y="554"/>
      <point x="579" y="541"/>
      <point x="537" y="505" type="curve"/>
      <point x="571" y="744" type="line"/>
      <point x="392" y="764" type="line"/>
      <point x="356" y="503" type="line"/>
      <point x="325" y="539"/>
      <point x="291" y="554"/>
      <point x="247" y="554" type="curve" smooth="yes"/>
      <point x="69" y="554"/>
      <point x="13" y="353"/>
      <point x="13" y="204" type="curve" smooth="yes"/>
      <point x="13" y="59"/>
      <point x="72" y="-20"/>
      <point x="168" y="-20" type="curve" smooth="yes"/>
      <point x="214" y="-20"/>
      <point x="254" y="-3"/>
      <point x="289" y="30" type="curve"/>
      <point x="254" y="-227" type="line"/>
    </contour>
    <contour>
      <point x="221" y="119"/>
      <point x="206" y="136"/>
      <point x="206" y="196" type="curve" smooth="yes"/>
      <point x="206" y="265"/>
      <point x="220" y="415"/>
      <point x="293" y="415" type="curve" smooth="yes"/>
      <point x="313" y="415"/>
      <point x="326" y="403"/>
      <point x="339" y="383" type="curve"/>
      <point x="306" y="153" type="line"/>
      <point x="284" y="130"/>
      <point x="269" y="119"/>
      <point x="247" y="119" type="curve" smooth="yes"/>
    </contour>
    <contour>
      <point x="513" y="119"/>
      <point x="502" y="128"/>
      <point x="487" y="150" type="curve"/>
      <point x="520" y="379" type="line"/>
      <point x="543" y="401"/>
      <point x="562" y="415"/>
      <point x="585" y="415" type="curve" smooth="yes"/>
      <point x="612" y="415"/>
      <point x="624" y="395"/>
      <point x="624" y="347" type="curve" smooth="yes"/>
      <point x="624" y="271"/>
      <point x="607" y="119"/>
      <point x="535" y="119" type="curve" smooth="yes"/>
    </contour>
    <contour>
      <point x="482" y="744" type="move" name="top"/>
    </contour>
  </outline>
</glyph>
<glyph name="uni0448" format="1">
  <advance width="821"/>
  <unicode hex="0448"/>
  <outline>
    <contour>
      <point x="474" y="-20"/>
      <point x="534" y="16"/>
      <point x="573" y="78" type="curve"/>
      <point x="574" y="0" type="line"/>
      <point x="743" y="0" type="line"/>
      <point x="817" y="534" type="line"/>
      <point x="623" y="534" type="line"/>
      <point x="580" y="223" type="line"/>
      <point x="562" y="180"/>
      <point x="531" y="141"/>
      <point x="510" y="141" type="curve" smooth="yes"/>
      <point x="497" y="141"/>
      <point x="488" y="151"/>
      <point x="494" y="193" type="curve" smooth="yes"/>
      <point x="542" y="534" type="line"/>
      <point x="348" y="534" type="line"/>
      <point x="293" y="141" type="line" smooth="yes"/>
      <point x="279" y="39"/>
      <point x="325" y="-20"/>
      <point x="411" y="-20" type="curve" smooth="yes"/>
    </contour>
    <contour>
      <point x="213" y="-20"/>
      <point x="296" y="45"/>
      <point x="328" y="137" type="curve"/>
      <point x="309" y="229" type="line"/>
      <point x="287" y="182"/>
      <point x="257" y="141"/>
      <point x="233" y="141" type="curve" smooth="yes"/>
      <point x="220" y="141"/>
      <point x="212" y="151"/>
      <point x="218" y="193" type="curve" smooth="yes"/>
      <point x="267" y="534" type="line"/>
      <point x="73" y="534" type="line"/>
      <point x="18" y="141" type="line" smooth="yes"/>
      <point x="4" y="39"/>
      <point x="50" y="-20"/>
      <point x="135" y="-20" type="curve" smooth="yes"/>
    </contour>
    <contour>
      <point x="441" y="534" type="move" name="top"/>
    </contour>
    <contour>
      <point x="373" y="0" type="move" name="bottom"/>
    </contour>
    <contour>
      <point x="764" y="0" type="move" name="bottomright"/>
    </contour>
  </outline>
</glyph>
<glyph name="uni044A" format="1">
  <advance width="617"/>
  <unicode hex="044A"/>
  <outline>
    <contour>
      <point x="375" y="534" type="line"/>
      <point x="38" y="534" type="line"/>
      <point x="18" y="395" type="line"/>
      <point x="162" y="395" type="line"/>
    </contour>
    <component base="uni044C" xOffset="103"/>
  </outline>
</glyph>
<glyph name="uni044C" format="1">
  <advance width="514"/>
  <unicode hex="044C"/>
  <outline>
    <contour>
      <point x="217" y="251" type="line"/>
      <point x="248" y="251" type="line" smooth="yes"/>
      <point x="295" y="251"/>
      <point x="308" y="232"/>
      <point x="308" y="197" type="curve" smooth="yes"/>
      <point x="308" y="161"/>
      <point x="295" y="103"/>
      <point x="237" y="103" type="curve" smooth="yes"/>
      <point x="229" y="103"/>
      <point x="223" y="104"/>
      <point x="214" y="106" type="curve"/>
      <point x="272" y="534" type="line"/>
      <point x="78" y="534" type="line"/>
      <point x="7" y="18" type="line"/>
      <point x="84" y="-7"/>
      <point x="151" y="-20"/>
      <point x="231" y="-20" type="curve" smooth="yes"/>
      <point x="440" y="-20"/>
      <point x="501" y="111"/>
      <point x="501" y="203" type="curve" smooth="yes"/>
      <point x="501" y="317"/>
      <point x="427" y="371"/>
      <point x="266" y="371" type="curve" smooth="yes"/>
      <point x="233" y="371" type="line"/>
    </contour>
    <contour>
      <point x="295" y="534" type="move" name="top"/>
    </contour>
    <contour>
      <point x="219" y="0" type="move" name="bottom"/>
    </contour>
  </outline>
</glyph>
<glyph name="uni044D" format="1">
  <advance width="476"/>
  <unicode hex="044D"/>
  <outline>
    <contour>
      <point x="348" y="-20"/>
      <point x="461" y="118"/>
      <point x="461" y="314" type="curve" smooth="yes"/>
      <point x="461" y="456"/>
      <point x="378" y="554"/>
      <point x="231" y="554" type="curve" smooth="yes"/>
      <point x="155" y="554"/>
      <point x="92" y="532"/>
      <point x="34" y="489" type="curve"/>
      <point x="103" y="381" type="line"/>
      <point x="139" y="404"/>
      <point x="168" y="414"/>
      <point x="203" y="414" type="curve" smooth="yes"/>
      <point x="244" y="414"/>
      <point x="270" y="390"/>
      <point x="270" y="340" type="curve" smooth="yes"/>
      <point x="270" y="328"/>
      <point x="270" y="332"/>
      <point x="265" y="270" type="curve"/>
      <point x="262" y="243" type="line"/>
      <point x="253" y="149"/>
      <point x="200" y="120"/>
      <point x="151" y="120" type="curve" smooth="yes"/>
      <point x="120" y="120"/>
      <point x="94" y="127"/>
      <point x="61" y="153" type="curve"/>
      <point x="-32" y="47" type="line"/>
      <point x="17" y="5"/>
      <point x="76" y="-20"/>
      <point x="153" y="-20" type="curve" smooth="yes"/>
    </contour>
    <contour>
      <point x="274" y="219" type="line"/>
      <point x="285" y="323" type="line"/>
      <point x="100" y="323" type="line"/>
      <point x="85" y="219" type="line"/>
    </contour>
    <contour>
      <point x="256" y="534" type="move" name="top"/>
    </contour>
    <contour>
      <point x="200" y="0" type="move" name="bottom"/>
    </contour>
  </outline>
</glyph>
<glyph name="uni044E" format="1">
  <advance width="831"/>
  <unicode hex="044E"/>
  <outline>
    <contour>
      <point x="312" y="335" type="line"/>
      <point x="245" y="335" type="line"/>
      <point x="273" y="534" type="line"/>
      <point x="78" y="534" type="line"/>
      <point x="4" y="0" type="line"/>
      <point x="199" y="0" type="line"/>
      <point x="228" y="205" type="line"/>
      <point x="295" y="205" type="line"/>
    </contour>
    <contour>
      <point x="740" y="-20"/>
      <point x="816" y="165"/>
      <point x="817" y="323" type="curve" smooth="yes"/>
      <point x="818" y="465"/>
      <point x="730" y="554"/>
      <point x="585" y="554" type="curve" smooth="yes"/>
      <point x="354" y="554"/>
      <point x="278" y="370"/>
      <point x="278" y="211" type="curve" smooth="yes"/>
      <point x="278" y="66"/>
      <point x="365" y="-20"/>
      <point x="509" y="-20" type="curve" smooth="yes"/>
    </contour>
    <contour>
      <point x="492" y="122"/>
      <point x="476" y="144"/>
      <point x="476" y="201" type="curve" smooth="yes"/>
      <point x="476" y="270"/>
      <point x="487" y="412"/>
      <point x="569" y="412" type="curve" smooth="yes"/>
      <point x="603" y="412"/>
      <point x="620" y="390"/>
      <point x="619" y="333" type="curve" smooth="yes"/>
      <point x="618" y="264"/>
      <point x="607" y="122"/>
      <point x="525" y="122" type="curve" smooth="yes"/>
    </contour>
    <contour>
      <point x="453" y="534" type="move" name="top"/>
    </contour>
    <contour>
      <point x="377" y="0" type="move" name="bottom"/>
    </contour>
  </outline>
</glyph>
<glyph name="uni0452" format="1">
  <advance width="569"/>
  <unicode hex="0452"/>
  <outline>
    <contour>
      <point x="61" y="696" type="line"/>
      <point x="46" y="590" type="line"/>
      <point x="97" y="590" type="line"/>
      <point x="404" y="590" type="line"/>
      <point x="434" y="696" type="line"/>
    </contour>
    <contour>
      <point x="364" y="-184"/>
      <point x="481" y="-112"/>
      <point x="507" y="76" type="curve" smooth="yes"/>
      <point x="535" y="278" type="line"/>
      <point x="341" y="278" type="line"/>
      <point x="312" y="66" type="line" smooth="yes"/>
      <point x="300" y="-21"/>
      <point x="260" y="-59"/>
      <point x="183" y="-88" type="curve"/>
      <point x="229" y="-227" type="line"/>
    </contour>
    <contour>
      <point x="370" y="554"/>
      <point x="304" y="512"/>
      <point x="270" y="451" type="curve"/>
      <point x="313" y="764" type="line"/>
      <point x="117" y="744" type="line"/>
      <point x="13" y="0" type="line"/>
      <point x="207" y="0" type="line"/>
      <point x="246" y="278" type="line"/>
      <point x="281" y="353"/>
      <point x="310" y="393"/>
      <point x="334" y="393" type="curve" smooth="yes"/>
      <point x="347" y="393"/>
      <point x="356" y="383"/>
      <point x="350" y="341" type="curve" smooth="yes"/>
      <point x="341" y="278" type="line"/>
      <point x="535" y="278" type="line"/>
      <point x="551" y="393" type="line" smooth="yes"/>
      <point x="565" y="495"/>
      <point x="519" y="554"/>
      <point x="436" y="554" type="curve" smooth="yes"/>
    </contour>
    <contour>
      <point x="289" y="267" type="move" name="center"/>
    </contour>
    <contour>
      <point x="248" y="0" type="move" name="bottom"/>
    </contour>
    <contour>
      <point x="353" y="744" type="move" name="top"/>
    </contour>
  </outline>
</glyph>
<glyph name="uni0454" format="1">
  <advance width="479"/>
  <unicode hex="0454"/>
  <outline>
    <contour>
      <point x="180" y="219" type="line"/>
      <point x="375" y="219" type="line"/>
      <point x="390" y="323" type="line"/>
      <point x="195" y="323" type="line"/>
    </contour>
    <contour>
      <point x="99" y="554"/>
      <point x="12" y="355"/>
      <point x="12" y="217" type="curve" smooth="yes"/>
      <point x="12" y="74"/>
      <point x="101" y="-20"/>
      <point x="252" y="-20" type="curve" smooth="yes"/>
      <point x="334" y="-20"/>
      <point x="395" y="5"/>
      <point x="449" y="44" type="curve"/>
      <point x="379" y="160" type="line"/>
      <point x="342" y="137"/>
      <point x="313" y="125"/>
      <point x="274" y="125" type="curve" smooth="yes"/>
      <point x="228" y="125"/>
      <point x="199" y="140"/>
      <point x="199" y="212" type="curve" smooth="yes"/>
      <point x="199" y="299"/>
      <point x="219" y="413"/>
      <point x="324" y="413" type="curve" smooth="yes"/>
      <point x="358" y="413"/>
      <point x="386" y="401"/>
      <point x="414" y="377" type="curve"/>
      <point x="507" y="480" type="line"/>
      <point x="462" y="527"/>
      <point x="400" y="554"/>
      <point x="324" y="554" type="curve" smooth="yes"/>
    </contour>
    <contour>
      <point x="277" y="534" type="move" name="top"/>
    </contour>
    <contour>
      <point x="202" y="0" type="move" name="bottom"/>
    </contour>
  </outline>
</glyph>
<glyph name="uni045F" format="1">
  <advance width="554"/>
  <unicode hex="045F"/>
  <outline>
    <contour>
      <point x="66" y="-175" type="line"/>
      <point x="192" y="-175" type="line"/>
      <point x="224" y="44" type="line"/>
      <point x="83" y="66" type="line"/>
    </contour>
    <component base="u"/>
  </outline>
</glyph>
<glyph name="uni0462" format="1">
  <advance width="681"/>
  <unicode hex="0462"/>
  <outline>
    <contour>
      <point x="365" y="0" type="line" smooth="yes"/>
      <point x="587" y="0"/>
      <point x="671" y="142"/>
      <point x="671" y="263" type="curve" smooth="yes"/>
      <point x="671" y="389"/>
      <point x="580" y="456"/>
      <point x="420" y="456" type="curve" smooth="yes"/>
      <point x="343" y="456" type="line"/>
      <point x="324" y="318" type="line"/>
      <point x="381" y="318" type="line" smooth="yes"/>
      <point x="437" y="318"/>
      <point x="459" y="287"/>
      <point x="459" y="250" type="curve" smooth="yes"/>
      <point x="459" y="210"/>
      <point x="440" y="145"/>
      <point x="357" y="145" type="curve" smooth="yes"/>
      <point x="313" y="145" type="line"/>
      <point x="390" y="696" type="line"/>
      <point x="188" y="696" type="line"/>
      <point x="91" y="0" type="line"/>
    </contour>
    <contour>
      <point x="164" y="516" type="line"/>
      <point x="511" y="516" type="line"/>
      <point x="527" y="631" type="line"/>
      <point x="380" y="631" type="line"/>
      <point x="51" y="631" type="line"/>
      <point x="35" y="516" type="line"/>
    </contour>
    <contour>
      <point x="289" y="696" type="move" name="top"/>
    </contour>
    <contour>
      <point x="300" y="0" type="move" name="bottom"/>
    </contour>
  </outline>
</glyph>
<glyph name="uni0466" format="1">
  <advance width="665"/>
  <unicode hex="0466"/>
  <outline>
    <contour>
      <point x="276" y="696" type="line"/>
      <point x="-63" y="0" type="line"/>
      <point x="139" y="0" type="line"/>
      <point x="374" y="578" type="line"/>
      <point x="454" y="0" type="line"/>
      <point x="652" y="0" type="line"/>
      <point x="511" y="696" type="line"/>
    </contour>
    <contour>
      <point x="257" y="382" type="line"/>
      <point x="209" y="243" type="line"/>
      <point x="453" y="243" type="line"/>
      <point x="445" y="382" type="line"/>
    </contour>
    <contour>
      <point x="261" y="260" type="line"/>
      <point x="225" y="0" type="line"/>
      <point x="364" y="0" type="line"/>
      <point x="400" y="260" type="line"/>
    </contour>
    <contour>
      <point x="392" y="696" type="move" name="top"/>
    </contour>
    <contour>
      <point x="294" y="0" type="move" name="bottom"/>
    </contour>
  </outline>
</glyph>
<glyph name="uni0467" format="1">
  <advance width="594"/>
  <unicode hex="0467"/>
  <outline>
    <contour>
      <point x="225" y="534" type="line"/>
      <point x="-54" y="0" type="line"/>
      <point x="127" y="0" type="line"/>
      <point x="319" y="440" type="line"/>
      <point x="391" y="0" type="line"/>
      <point x="572" y="0" type="line"/>
      <point x="441" y="534" type="line"/>
    </contour>
    <contour>
      <point x="206" y="298" type="line"/>
      <point x="190" y="178" type="line"/>
      <point x="375" y="178" type="line"/>
      <point x="391" y="298" type="line"/>
    </contour>
    <contour>
      <point x="198" y="0" type="line"/>
      <point x="321" y="0" type="line"/>
      <point x="347" y="188" type="line"/>
      <point x="224" y="188" type="line"/>
    </contour>
    <contour>
      <point x="336" y="534" type="move" name="top"/>
    </contour>
    <contour>
      <point x="260" y="0" type="move" name="bottom"/>
    </contour>
  </outline>
</glyph>
<glyph name="uni0468" format="1">
  <advance width="935"/>
  <unicode hex="0468"/>
  <outline>
    <contour>
      <point x="481" y="382" type="line"/>
      <point x="261" y="382" type="line"/>
      <point x="305" y="696" type="line"/>
      <point x="103" y="696" type="line"/>
      <point x="5" y="0" type="line"/>
      <point x="207" y="0" type="line"/>
      <point x="241" y="243" type="line"/>
      <point x="461" y="243" type="line"/>
    </contour>
    <component base="uni0466" xOffset="284" xScale="0.98"/>
    <contour>
      <point x="527" y="696" type="move" name="top"/>
    </contour>
    <contour>
      <point x="429" y="0" type="move" name="bottom"/>
    </contour>
  </outline>
</glyph>
<glyph name="uni0469" format="1">
  <advance width="815"/>
  <unicode hex="0469"/>
  <outline>
    <contour>
      <point x="472" y="534" type="line"/>
      <point x="215" y="0" type="line"/>
      <point x="386" y="0" type="line"/>
      <point x="564" y="440" type="line"/>
      <point x="622" y="0" type="line"/>
      <point x="793" y="0" type="line"/>
      <point x="685" y="534" type="line"/>
    </contour>
    <contour>
      <point x="446" y="0" type="line"/>
      <point x="560" y="0" type="line"/>
      <point x="588" y="201" type="line"/>
      <point x="474" y="201" type="line"/>
    </contour>
    <contour>
      <point x="241" y="308" type="line"/>
      <point x="273" y="534" type="line"/>
      <point x="78" y="534" type="line"/>
      <point x="4" y="0" type="line"/>
      <point x="199" y="0" type="line"/>
      <point x="225" y="188" type="line"/>
      <point x="619" y="188" type="line"/>
      <point x="635" y="308" type="line"/>
    </contour>
    <contour>
      <point x="446" y="534" type="move" name="top"/>
    </contour>
    <contour>
      <point x="370" y="0" type="move" name="bottom"/>
    </contour>
  </outline>
</glyph>
<glyph name="uni046B" format="1">
  <advance width="740"/>
  <unicode hex="046B"/>
  <outline>
    <contour>
      <point x="150" y="0" type="line"/>
      <point x="245" y="199" type="line"/>
      <point x="279" y="199" type="line"/>
      <point x="251" y="0" type="line"/>
      <point x="416" y="0" type="line"/>
      <point x="444" y="199" type="line"/>
      <point x="480" y="199" type="line"/>
      <point x="524" y="0" type="line"/>
      <point x="693" y="0" type="line"/>
      <point x="602" y="319" type="line"/>
      <point x="145" y="319" type="line"/>
      <point x="-34" y="0" type="line"/>
    </contour>
    <contour>
      <point x="461" y="238" type="line"/>
      <point x="640" y="456" type="line"/>
      <point x="650" y="534" type="line"/>
      <point x="520" y="534" type="line"/>
      <point x="371" y="319" type="line"/>
      <point x="270" y="534" type="line"/>
      <point x="150" y="534" type="line"/>
      <point x="140" y="456" type="line"/>
      <point x="261" y="238" type="line"/>
    </contour>
    <contour>
      <point x="522" y="428" type="line"/>
      <point x="536" y="534" type="line"/>
      <point x="238" y="534" type="line"/>
      <point x="224" y="428" type="line"/>
    </contour>
    <contour>
      <point x="408" y="534" type="move" name="top"/>
    </contour>
    <contour>
      <point x="332" y="0" type="move" name="bottom"/>
    </contour>
  </outline>
</glyph>
<glyph name="uni046C" format="1">
  <advance width="1011"/>
  <unicode hex="046C"/>
  <outline>
    <contour>
      <point x="437" y="0" type="line"/>
      <point x="521" y="248" type="line"/>
      <point x="556" y="248" type="line"/>
      <point x="522" y="0" type="line"/>
      <point x="704" y="0" type="line"/>
      <point x="738" y="248" type="line"/>
      <point x="772" y="248" type="line"/>
      <point x="788" y="0" type="line"/>
      <point x="989" y="0" type="line"/>
      <point x="924" y="387" type="line"/>
      <point x="402" y="387" type="line"/>
      <point x="230" y="0" type="line"/>
    </contour>
    <contour>
      <point x="795" y="320" type="line"/>
      <point x="987" y="576" type="line"/>
      <point x="1003" y="696" type="line"/>
      <point x="874" y="696" type="line"/>
      <point x="664" y="387" type="line"/>
      <point x="531" y="696" type="line"/>
      <point x="408" y="696" type="line"/>
      <point x="392" y="576" type="line"/>
      <point x="514" y="319" type="line"/>
    </contour>
    <contour>
      <point x="834" y="563" type="line"/>
      <point x="882" y="696" type="line"/>
      <point x="514" y="696" type="line"/>
      <point x="524" y="563" type="line"/>
    </contour>
    <contour>
      <point x="208" y="0" type="line"/>
      <point x="242" y="244" type="line"/>
      <point x="472" y="244" type="line"/>
      <point x="492" y="387" type="line"/>
      <point x="262" y="387" type="line"/>
      <point x="305" y="696" type="line"/>
      <point x="103" y="696" type="line"/>
      <point x="6" y="0" type="line"/>
    </contour>
    <contour>
      <point x="565" y="696" type="move" name="top"/>
    </contour>
    <contour>
      <point x="467" y="0" type="move" name="bottom"/>
    </contour>
  </outline>
</glyph>
<glyph name="uni0474" format="1">
  <advance width="633"/>
  <unicode hex="0474"/>
  <outline>
    <contour>
      <point x="381" y="0" type="line"/>
      <point x="571" y="525" type="line" smooth="yes"/>
      <point x="586" y="566"/>
      <point x="600" y="574"/>
      <point x="621" y="574" type="curve" smooth="yes"/>
      <point x="635" y="574"/>
      <point x="645" y="570"/>
      <point x="656" y="563" type="curve"/>
      <point x="721" y="680" type="line"/>
      <point x="691" y="700"/>
      <point x="652" y="716"/>
      <point x="594" y="716" type="curve" smooth="yes"/>
      <point x="496" y="716"/>
      <point x="426" y="674"/>
      <point x="388" y="540" type="curve" smooth="yes"/>
      <point x="273" y="140" type="line"/>
      <point x="247" y="696" type="line"/>
      <point x="35" y="696" type="line"/>
      <point x="121" y="0" type="line"/>
    </contour>
    <contour>
      <point x="341" y="696" type="move" name="top"/>
    </contour>
    <contour>
      <point x="251" y="0" type="move" name="bottom"/>
    </contour>
  </outline>
</glyph>
<glyph name="uni0475" format="1">
  <advance width="539"/>
  <unicode hex="0475"/>
  <outline>
    <component base="uni2C71"/>
    <contour>
      <point x="290" y="534" type="move" name="top"/>
    </contour>
    <contour>
      <point x="226" y="0" type="move" name="bottom"/>
    </contour>
  </outline>
</glyph>
<glyph name="uni0493" format="1">
  <advance width="476"/>
  <unicode hex="0493"/>
  <outline>
    <contour>
      <point x="300" y="-20"/>
      <point x="395" y="12"/>
      <point x="457" y="64" type="curve"/>
      <point x="378" y="170" type="line"/>
      <point x="337" y="140"/>
      <point x="284" y="116"/>
      <point x="235" y="116" type="curve" smooth="yes"/>
      <point x="207" y="116"/>
      <point x="191" y="127"/>
      <point x="191" y="147" type="curve" smooth="yes"/>
      <point x="191" y="172"/>
      <point x="205" y="191"/>
      <point x="296" y="221" type="curve"/>
      <point x="316" y="247" type="line"/>
      <point x="437" y="289"/>
      <point x="470" y="343"/>
      <point x="470" y="405" type="curve" smooth="yes"/>
      <point x="470" y="493"/>
      <point x="390" y="554"/>
      <point x="266" y="554" type="curve" smooth="yes"/>
      <point x="190" y="554"/>
      <point x="111" y="528"/>
      <point x="57" y="486" type="curve"/>
      <point x="116" y="379" type="line"/>
      <point x="153" y="401"/>
      <point x="200" y="417"/>
      <point x="236" y="417" type="curve" smooth="yes"/>
      <point x="270" y="417"/>
      <point x="279" y="404"/>
      <point x="279" y="390" type="curve" smooth="yes"/>
      <point x="279" y="374"/>
      <point x="277" y="360"/>
      <point x="159" y="320" type="curve"/>
      <point x="145" y="297" type="line"/>
      <point x="23" y="260"/>
      <point x="-12" y="205"/>
      <point x="-12" y="135" type="curve" smooth="yes"/>
      <point x="-12" y="44"/>
      <point x="72" y="-20"/>
      <point x="203" y="-20" type="curve" smooth="yes"/>
    </contour>
    <contour>
      <point x="426" y="248" type="line"/>
      <point x="254" y="297" type="line"/>
      <point x="226" y="305" type="line"/>
      <point x="52" y="368" type="line"/>
      <point x="27" y="293" type="line"/>
      <point x="169" y="252" type="line"/>
      <point x="198" y="242" type="line"/>
      <point x="400" y="176" type="line"/>
    </contour>
  </outline>
</glyph>
<glyph name="uni049C" format="1">
  <advance width="659"/>
  <unicode hex="049C"/>
  <outline>
    <contour>
      <point x="208" y="0" type="line"/>
      <point x="249" y="291" type="line"/>
      <point x="357" y="291" type="line"/>
      <point x="424" y="0" type="line"/>
      <point x="632" y="0" type="line"/>
      <point x="522" y="367" type="line"/>
      <point x="586" y="504" type="line" smooth="yes"/>
      <point x="612" y="560"/>
      <point x="651" y="572"/>
      <point x="702" y="578" type="curve"/>
      <point x="665" y="716" type="line"/>
      <point x="543" y="704"/>
      <point x="485" y="693"/>
      <point x="427" y="567" type="curve" smooth="yes"/>
      <point x="364" y="430" type="line"/>
      <point x="268" y="430" type="line"/>
      <point x="305" y="696" type="line"/>
      <point x="103" y="696" type="line"/>
      <point x="6" y="0" type="line"/>
    </contour>
    <contour>
      <point x="314" y="145" type="line"/>
      <point x="374" y="575" type="line"/>
      <point x="310" y="575" type="line"/>
      <point x="250" y="145" type="line"/>
    </contour>
    <contour>
      <point x="389" y="696" type="move" name="top"/>
    </contour>
    <contour>
      <point x="291" y="0" type="move" name="bottom"/>
    </contour>
  </outline>
</glyph>
<glyph name="uni04A0" format="1">
  <advance width="761"/>
  <unicode hex="04A0"/>
  <outline>
    <contour>
      <point x="432" y="696" type="line"/>
      <point x="64" y="696" type="line"/>
      <point x="43" y="546" type="line"/>
      <point x="209" y="546" type="line"/>
    </contour>
    <component base="uni041A" xOffset="127"/>
  </outline>
</glyph>
<glyph name="uni04A1" format="1">
  <advance width="667"/>
  <unicode hex="04A1"/>
  <outline>
    <contour>
      <point x="374" y="534" type="line"/>
      <point x="38" y="534" type="line"/>
      <point x="19" y="395" type="line"/>
      <point x="161" y="395" type="line"/>
    </contour>
    <component base="uni043A" xOffset="102"/>
  </outline>
</glyph>
<glyph name="uni04A6" format="1">
  <advance width="988"/>
  <unicode hex="04A6"/>
  <outline>
    <contour>
      <point x="713" y="481"/>
      <point x="664" y="462"/>
      <point x="617" y="425" type="curve"/>
      <point x="601" y="297" type="line"/>
      <point x="626" y="319"/>
      <point x="656" y="335"/>
      <point x="701" y="335" type="curve" smooth="yes"/>
      <point x="755" y="335"/>
      <point x="772" y="303"/>
      <point x="761" y="226" type="curve" smooth="yes"/>
      <point x="730" y="0" type="line"/>
      <point x="932" y="0" type="line"/>
      <point x="963" y="224" type="line" smooth="yes"/>
      <point x="985" y="382"/>
      <point x="921" y="481"/>
      <point x="776" y="481" type="curve" smooth="yes"/>
    </contour>
    <component base="uni041F"/>
    <component base="hookHELPER.case" xOffset="555"/>
    <contour>
      <point x="554" y="696" type="move" name="top"/>
    </contour>
  </outline>
</glyph>
<glyph name="uni04AF" format="1">
  <advance width="514"/>
  <unicode hex="04AF"/>
  <outline>
    <contour>
      <point x="370" y="534" type="line"/>
      <point x="246" y="160" type="line"/>
      <point x="235" y="534" type="line"/>
      <point x="22" y="534" type="line"/>
      <point x="127" y="0" type="line"/>
      <point x="95" y="-227" type="line"/>
      <point x="285" y="-207" type="line"/>
      <point x="315" y="0" type="line"/>
      <point x="568" y="534" type="line"/>
    </contour>
    <contour>
      <point x="296" y="534" type="move" name="top"/>
    </contour>
  </outline>
</glyph>
<glyph name="uni04B1" format="1">
  <advance width="514"/>
  <unicode hex="04B1"/>
  <outline>
    <contour>
      <point x="49" y="90" type="line"/>
      <point x="35" y="-10" type="line"/>
      <point x="125" y="-10" type="line"/>
      <point x="406" y="-10" type="line"/>
      <point x="420" y="90" type="line"/>
      <point x="354" y="90" type="line"/>
    </contour>
    <component base="uni04AF"/>
  </outline>
</glyph>
<glyph name="uni04B5" format="1">
  <advance width="677"/>
  <unicode hex="04B5"/>
  <outline>
    <contour>
      <point x="18" y="534" type="line"/>
      <point x="-4" y="395" type="line"/>
      <point x="137" y="395" type="line"/>
      <point x="332" y="395" type="line"/>
      <point x="369" y="395" type="line"/>
      <point x="406" y="534" type="line"/>
    </contour>
    <contour>
      <point x="292" y="-20"/>
      <point x="349" y="15"/>
      <point x="393" y="67" type="curve"/>
      <point x="391" y="0" type="line"/>
      <point x="560" y="0" type="line"/>
      <point x="634" y="534" type="line"/>
      <point x="440" y="534" type="line"/>
      <point x="393" y="197" type="line"/>
      <point x="371" y="163"/>
      <point x="346" y="138"/>
      <point x="326" y="138" type="curve" smooth="yes"/>
      <point x="309" y="138"/>
      <point x="297" y="147"/>
      <point x="303" y="189" type="curve" smooth="yes"/>
      <point x="351" y="534" type="line"/>
      <point x="157" y="534" type="line"/>
      <point x="103" y="151" type="line" smooth="yes"/>
      <point x="89" y="49"/>
      <point x="127" y="-20"/>
      <point x="228" y="-20" type="curve" smooth="yes"/>
    </contour>
    <component base="descStraightcy" xOffset="442"/>
    <contour>
      <point x="568" y="0" type="move" name="ogonek"/>
    </contour>
    <contour>
      <point x="382" y="534" type="move" name="top"/>
    </contour>
    <contour>
      <point x="644" y="534" type="move" name="topright"/>
    </contour>
    <contour>
      <point x="570" y="0" type="move" name="bottomright"/>
    </contour>
    <contour>
      <point x="335" y="0" type="move" name="bottom"/>
    </contour>
  </outline>
</glyph>
<glyph name="uni04B8" format="1">
  <advance width="612"/>
  <unicode hex="04B8"/>
  <outline>
    <contour>
      <point x="298" y="555" type="line"/>
      <point x="238" y="125" type="line"/>
      <point x="303" y="125" type="line"/>
      <point x="363" y="555" type="line"/>
    </contour>
    <contour>
      <point x="70" y="696" type="line"/>
      <point x="35" y="452" type="line" smooth="yes"/>
      <point x="14" y="294"/>
      <point x="77" y="195"/>
      <point x="218" y="195" type="curve" smooth="yes"/>
      <point x="280" y="195"/>
      <point x="330" y="214"/>
      <point x="377" y="253" type="curve"/>
      <point x="392" y="380" type="line"/>
      <point x="368" y="356"/>
      <point x="341" y="341"/>
      <point x="296" y="341" type="curve" smooth="yes"/>
      <point x="239" y="341"/>
      <point x="223" y="373"/>
      <point x="233" y="450" type="curve" smooth="yes"/>
      <point x="268" y="696" type="line"/>
    </contour>
    <contour>
      <point x="426" y="696" type="line"/>
      <point x="329" y="0" type="line"/>
      <point x="531" y="0" type="line"/>
      <point x="628" y="696" type="line"/>
    </contour>
    <contour>
      <point x="347" y="696" type="move" name="top"/>
    </contour>
    <contour>
      <point x="310" y="0" type="move" name="bottomleft"/>
    </contour>
    <contour>
      <point x="541" y="0" type="move" name="bottomright"/>
    </contour>
    <contour>
      <point x="268" y="0" type="move" name="bottom"/>
    </contour>
  </outline>
</glyph>
<glyph name="uni04BB" format="1">
  <advance width="556"/>
  <unicode hex="04BB"/>
  <outline>
    <contour>
      <point x="352" y="494"/>
      <point x="286" y="452"/>
      <point x="252" y="391" type="curve"/>
      <point x="303" y="764" type="line"/>
      <point x="107" y="744" type="line"/>
      <point x="3" y="0" type="line"/>
      <point x="197" y="0" type="line"/>
      <point x="228" y="218" type="line"/>
      <point x="263" y="293"/>
      <point x="292" y="333"/>
      <point x="316" y="333" type="curve" smooth="yes"/>
      <point x="329" y="333"/>
      <point x="338" y="323"/>
      <point x="332" y="281" type="curve" smooth="yes"/>
      <point x="292" y="0" type="line"/>
      <point x="486" y="0" type="line"/>
      <point x="533" y="333" type="line" smooth="yes"/>
      <point x="547" y="435"/>
      <point x="501" y="494"/>
      <point x="418" y="494" type="curve" smooth="yes"/>
    </contour>
    <contour>
      <point x="345" y="744" type="move" name="top"/>
    </contour>
    <contour>
      <point x="240" y="0" type="move" name="bottom"/>
    </contour>
    <contour>
      <point x="496" y="0" type="move" name="bottomright"/>
    </contour>
  </outline>
</glyph>
<glyph name="uni04C3" format="1">
  <advance width="643"/>
  <unicode hex="04C3"/>
  <outline>
    <contour>
      <point x="210" y="0" type="line"/>
      <point x="249" y="284" type="line"/>
      <point x="362" y="284" type="line"/>
      <point x="476" y="363" type="line"/>
      <point x="546" y="484" type="line" smooth="yes"/>
      <point x="592" y="563"/>
      <point x="631" y="572"/>
      <point x="672" y="578" type="curve"/>
      <point x="635" y="716" type="line"/>
      <point x="496" y="702"/>
      <point x="456" y="673"/>
      <point x="394" y="557" type="curve" smooth="yes"/>
      <point x="324" y="426" type="line"/>
      <point x="269" y="426" type="line"/>
      <point x="305" y="696" type="line"/>
      <point x="103" y="696" type="line"/>
      <point x="8" y="0" type="line"/>
    </contour>
    <contour>
      <point x="581" y="0" type="line"/>
      <point x="607" y="195" type="line" smooth="yes"/>
      <point x="629" y="360"/>
      <point x="562" y="426"/>
      <point x="427" y="426" type="curve"/>
      <point x="351" y="284" type="line"/>
      <point x="397" y="284"/>
      <point x="413" y="257"/>
      <point x="405" y="197" type="curve" smooth="yes"/>
      <point x="379" y="0" type="line"/>
    </contour>
    <component base="hookHELPER.case" xOffset="204"/>
    <contour>
      <point x="381" y="696" type="move" name="top"/>
    </contour>
  </outline>
</glyph>
<glyph name="uni04E8" format="1">
  <advance width="678"/>
  <unicode hex="04E8"/>
  <outline>
    <contour>
      <point x="148" y="404" type="line"/>
      <point x="132" y="298" type="line"/>
      <point x="553" y="298" type="line"/>
      <point x="569" y="404" type="line"/>
    </contour>
    <contour>
      <point x="112" y="716"/>
      <point x="25" y="458"/>
      <point x="25" y="268" type="curve" smooth="yes"/>
      <point x="25" y="89"/>
      <point x="121" y="-20"/>
      <point x="301" y="-20" type="curve"/>
      <point x="591" y="-20"/>
      <point x="676" y="241"/>
      <point x="676" y="429" type="curve" smooth="yes"/>
      <point x="676" y="609"/>
      <point x="580" y="716"/>
      <point x="400" y="716" type="curve"/>
    </contour>
    <contour>
      <point x="451" y="575"/>
      <point x="478" y="537"/>
      <point x="478" y="443" type="curve" smooth="yes"/>
      <point x="478" y="342"/>
      <point x="456" y="121"/>
      <point x="313" y="121" type="curve" smooth="yes"/>
      <point x="250" y="121"/>
      <point x="223" y="160"/>
      <point x="223" y="255" type="curve" smooth="yes"/>
      <point x="223" y="352"/>
      <point x="245" y="575"/>
      <point x="388" y="575" type="curve"/>
    </contour>
    <contour>
      <point x="399" y="696" type="move" name="top"/>
    </contour>
    <contour>
      <point x="301" y="0" type="move" name="bottom"/>
    </contour>
  </outline>
</glyph>
<glyph name="uni04E9" format="1">
  <advance width="572"/>
  <unicode hex="04E9"/>
  <outline>
    <contour>
      <point x="399" y="321" type="line"/>
      <point x="189" y="321" type="line"/>
      <point x="176" y="221" type="line"/>
      <point x="388" y="221" type="line"/>
    </contour>
    <contour>
      <point x="481" y="-20"/>
      <point x="557" y="165"/>
      <point x="558" y="323" type="curve" smooth="yes"/>
      <point x="559" y="465"/>
      <point x="471" y="554"/>
      <point x="323" y="554" type="curve"/>
      <point x="89" y="554"/>
      <point x="13" y="370"/>
      <point x="13" y="211" type="curve" smooth="yes"/>
      <point x="13" y="66"/>
      <point x="100" y="-20"/>
      <point x="247" y="-20" type="curve"/>
    </contour>
    <contour>
      <point x="219" y="117"/>
      <point x="201" y="142"/>
      <point x="201" y="204" type="curve" smooth="yes"/>
      <point x="201" y="278"/>
      <point x="212" y="417"/>
      <point x="310" y="417" type="curve"/>
      <point x="352" y="417"/>
      <point x="371" y="392"/>
      <point x="370" y="330" type="curve" smooth="yes"/>
      <point x="369" y="256"/>
      <point x="358" y="117"/>
      <point x="260" y="117" type="curve" smooth="yes"/>
    </contour>
    <contour>
      <point x="316" y="534" type="move" name="top"/>
    </contour>
    <contour>
      <point x="250" y="0" type="move" name="bottom"/>
    </contour>
  </outline>
</glyph>
<glyph name="uni04FB" format="1">
  <advance width="476"/>
  <unicode hex="04FB"/>
  <outline>
    <contour>
      <point x="290" y="-20"/>
      <point x="397" y="38"/>
      <point x="459" y="75" type="curve"/>
      <point x="383" y="162" type="line"/>
      <point x="339" y="137"/>
      <point x="284" y="116"/>
      <point x="235" y="116" type="curve" smooth="yes"/>
      <point x="207" y="116"/>
      <point x="191" y="127"/>
      <point x="191" y="147" type="curve" smooth="yes"/>
      <point x="191" y="172"/>
      <point x="205" y="191"/>
      <point x="296" y="221" type="curve"/>
      <point x="316" y="247" type="line"/>
      <point x="437" y="289"/>
      <point x="470" y="343"/>
      <point x="470" y="405" type="curve" smooth="yes"/>
      <point x="470" y="493"/>
      <point x="390" y="554"/>
      <point x="266" y="554" type="curve" smooth="yes"/>
      <point x="190" y="554"/>
      <point x="111" y="528"/>
      <point x="57" y="486" type="curve"/>
      <point x="116" y="379" type="line"/>
      <point x="153" y="401"/>
      <point x="200" y="417"/>
      <point x="236" y="417" type="curve" smooth="yes"/>
      <point x="270" y="417"/>
      <point x="279" y="404"/>
      <point x="279" y="390" type="curve" smooth="yes"/>
      <point x="279" y="374"/>
      <point x="277" y="360"/>
      <point x="159" y="320" type="curve"/>
      <point x="145" y="297" type="line"/>
      <point x="23" y="260"/>
      <point x="-12" y="205"/>
      <point x="-12" y="135" type="curve" smooth="yes"/>
      <point x="-12" y="44"/>
      <point x="72" y="-20"/>
      <point x="191" y="-20" type="curve" smooth="yes"/>
    </contour>
    <contour>
      <point x="348" y="-227"/>
      <point x="426" y="-156"/>
      <point x="443" y="-38" type="curve" smooth="yes"/>
      <point x="459" y="75" type="line"/>
      <point x="292" y="0" type="line"/>
      <point x="285" y="-43" type="line" smooth="yes"/>
      <point x="279" y="-81"/>
      <point x="261" y="-97"/>
      <point x="227" y="-97" type="curve" smooth="yes"/>
      <point x="201" y="-97"/>
      <point x="181" y="-90"/>
      <point x="158" y="-78" type="curve"/>
      <point x="86" y="-181" type="line"/>
      <point x="118" y="-207"/>
      <point x="164" y="-227"/>
      <point x="236" y="-227" type="curve" smooth="yes"/>
    </contour>
    <contour>
      <point x="432" y="259" type="line"/>
      <point x="257" y="303" type="line"/>
      <point x="229" y="310" type="line"/>
      <point x="54" y="366" type="line"/>
      <point x="30" y="291" type="line"/>
      <point x="174" y="255" type="line"/>
      <point x="203" y="246" type="line"/>
      <point x="407" y="187" type="line"/>
    </contour>
    <contour>
      <point x="278" y="534" type="move" name="top"/>
    </contour>
  </outline>
</glyph>
<glyph name="uni04FE" format="1">
  <advance width="594"/>
  <unicode hex="04FE"/>
  <outline>
    <contour>
      <point x="434" y="696" type="line"/>
      <point x="322" y="466" type="line"/>
      <point x="186" y="369" type="line"/>
      <point x="-48" y="0" type="line"/>
      <point x="168" y="0" type="line"/>
      <point x="290" y="269" type="line"/>
      <point x="428" y="375" type="line"/>
      <point x="649" y="696" type="line"/>
    </contour>
    <contour>
      <point x="62" y="696" type="line"/>
      <point x="186" y="369" type="line"/>
      <point x="290" y="269" type="line"/>
      <point x="350" y="0" type="line"/>
      <point x="566" y="0" type="line"/>
      <point x="428" y="375" type="line"/>
      <point x="322" y="466" type="line"/>
      <point x="277" y="696" type="line"/>
    </contour>
    <contour>
      <point x="547" y="308" type="line"/>
      <point x="567" y="428" type="line"/>
      <point x="66" y="428" type="line"/>
      <point x="46" y="308" type="line"/>
    </contour>
    <contour>
      <point x="357" y="696" type="move" name="top"/>
    </contour>
    <contour>
      <point x="259" y="0" type="move" name="bottom"/>
    </contour>
    <contour>
      <point x="508" y="0" type="move" name="bottomright"/>
    </contour>
  </outline>
</glyph>
<glyph name="uni04FF" format="1">
  <advance width="518"/>
  <unicode hex="04FF"/>
  <outline>
    <contour>
      <point x="151" y="0" type="line"/>
      <point x="245" y="198" type="line"/>
      <point x="379" y="282" type="line"/>
      <point x="545" y="534" type="line"/>
      <point x="341" y="534" type="line"/>
      <point x="271" y="357" type="line"/>
      <point x="141" y="283" type="line"/>
      <point x="-57" y="0" type="line"/>
    </contour>
    <contour>
      <point x="499" y="0" type="line"/>
      <point x="379" y="282" type="line"/>
      <point x="271" y="357" type="line"/>
      <point x="244" y="534" type="line"/>
      <point x="30" y="534" type="line"/>
      <point x="141" y="283" type="line"/>
      <point x="245" y="198" type="line"/>
      <point x="286" y="0" type="line"/>
    </contour>
    <contour>
      <point x="464" y="219" type="line"/>
      <point x="482" y="331" type="line"/>
      <point x="48" y="331" type="line"/>
      <point x="30" y="219" type="line"/>
    </contour>
    <contour>
      <point x="297" y="534" type="move" name="top"/>
    </contour>
    <contour>
      <point x="221" y="0" type="move" name="bottom"/>
    </contour>
    <contour>
      <point x="431" y="0" type="move" name="bottomright"/>
    </contour>
  </outline>
</glyph>
<glyph name="uni0503" format="1">
  <advance width="860"/>
  <unicode hex="0503"/>
  <outline>
    <contour>
      <point x="253" y="-20"/>
      <point x="323" y="15"/>
      <point x="389" y="121" type="curve"/>
      <point x="350" y="220" type="line"/>
      <point x="325" y="178"/>
      <point x="288" y="122"/>
      <point x="252" y="122" type="curve" smooth="yes"/>
      <point x="230" y="122"/>
      <point x="211" y="133"/>
      <point x="211" y="199" type="curve" smooth="yes"/>
      <point x="211" y="278"/>
      <point x="233" y="413"/>
      <point x="315" y="413" type="curve" smooth="yes"/>
      <point x="338" y="413"/>
      <point x="352" y="406"/>
      <point x="367" y="389" type="curve"/>
      <point x="339" y="189" type="line"/>
      <point x="334" y="46"/>
      <point x="415" y="-20"/>
      <point x="556" y="-20" type="curve" smooth="yes"/>
      <point x="754" y="-20"/>
      <point x="841" y="115"/>
      <point x="852" y="380" type="curve"/>
      <point x="659" y="380" type="line"/>
      <point x="654" y="262"/>
      <point x="636" y="122"/>
      <point x="566" y="122" type="curve" smooth="yes"/>
      <point x="540" y="122"/>
      <point x="527" y="140"/>
      <point x="532" y="176" type="curve" smooth="yes"/>
      <point x="611" y="744" type="line"/>
      <point x="419" y="764" type="line"/>
      <point x="384" y="511" type="line"/>
      <point x="358" y="538"/>
      <point x="319" y="554"/>
      <point x="279" y="554" type="curve" smooth="yes"/>
      <point x="80" y="554"/>
      <point x="11" y="347"/>
      <point x="11" y="197" type="curve" smooth="yes"/>
      <point x="11" y="61"/>
      <point x="63" y="-20"/>
      <point x="178" y="-20" type="curve" smooth="yes"/>
    </contour>
    <contour>
      <point x="495" y="744" type="move" name="top"/>
    </contour>
    <contour>
      <point x="390" y="0" type="move" name="bottom"/>
    </contour>
  </outline>
</glyph>
<glyph name="uni0505" format="1">
  <advance width="667"/>
  <unicode hex="0505"/>
  <outline>
    <contour>
      <point x="561" y="-20"/>
      <point x="649" y="115"/>
      <point x="660" y="380" type="curve"/>
      <point x="467" y="380" type="line"/>
      <point x="462" y="262"/>
      <point x="444" y="122"/>
      <point x="373" y="122" type="curve" smooth="yes"/>
      <point x="349" y="122"/>
      <point x="337" y="134"/>
      <point x="322" y="173" type="curve" smooth="yes"/>
      <point x="303" y="222" type="line"/>
      <point x="126" y="190" type="line"/>
      <point x="141" y="146" type="line" smooth="yes"/>
      <point x="179" y="34"/>
      <point x="241" y="-20"/>
      <point x="368" y="-20" type="curve" smooth="yes"/>
    </contour>
    <contour>
      <point x="227" y="172" type="line"/>
      <point x="345" y="200"/>
      <point x="415" y="267"/>
      <point x="415" y="375" type="curve" smooth="yes"/>
      <point x="415" y="485"/>
      <point x="340" y="534"/>
      <point x="199" y="534" type="curve" smooth="yes"/>
      <point x="53" y="534" type="line"/>
      <point x="35" y="402" type="line"/>
      <point x="178" y="402" type="line" smooth="yes"/>
      <point x="210" y="402"/>
      <point x="225" y="390"/>
      <point x="225" y="364" type="curve" smooth="yes"/>
      <point x="225" y="329"/>
      <point x="207" y="298"/>
      <point x="160" y="298" type="curve" smooth="yes"/>
      <point x="63" y="298" type="line"/>
      <point x="46" y="172" type="line"/>
    </contour>
    <contour>
      <point x="369" y="534" type="move" name="top"/>
    </contour>
    <contour>
      <point x="293" y="0" type="move" name="bottom"/>
    </contour>
  </outline>
</glyph>
<glyph name="uni0506" format="1">
  <advance width="497"/>
  <unicode hex="0506"/>
  <outline>
    <contour>
      <point x="83" y="696" type="line"/>
      <point x="61" y="555" type="line"/>
      <point x="190" y="555" type="line" smooth="yes"/>
      <point x="243" y="555"/>
      <point x="271" y="535"/>
      <point x="271" y="491" type="curve" smooth="yes"/>
      <point x="271" y="441"/>
      <point x="246" y="386"/>
      <point x="175" y="386" type="curve" smooth="yes"/>
      <point x="76" y="386" type="line"/>
      <point x="57" y="248" type="line"/>
      <point x="253" y="247" type="line"/>
      <point x="447" y="319"/>
      <point x="479" y="403"/>
      <point x="479" y="504" type="curve" smooth="yes"/>
      <point x="479" y="619"/>
      <point x="389" y="696"/>
      <point x="215" y="696" type="curve" smooth="yes"/>
    </contour>
    <contour>
      <point x="139" y="262" type="line"/>
      <point x="236" y="0" type="line"/>
      <point x="456" y="0" type="line"/>
      <point x="323" y="300" type="line"/>
    </contour>
    <component base="descStraightcy.case" xOffset="270" xScale="0.98"/>
    <contour>
      <point x="309" y="696" type="move" name="top"/>
    </contour>
  </outline>
</glyph>
<glyph name="uni0507" format="1">
  <advance width="448"/>
  <unicode hex="0507"/>
  <outline>
    <contour>
      <point x="135" y="184" type="line"/>
      <point x="201" y="0" type="line"/>
      <point x="405" y="0" type="line"/>
      <point x="302" y="222" type="line"/>
    </contour>
    <contour>
      <point x="206" y="172" type="line"/>
      <point x="332" y="197"/>
      <point x="414" y="257"/>
      <point x="414" y="375" type="curve" smooth="yes"/>
      <point x="414" y="487"/>
      <point x="340" y="534"/>
      <point x="198" y="534" type="curve" smooth="yes"/>
      <point x="53" y="534" type="line"/>
      <point x="34" y="402" type="line"/>
      <point x="177" y="402" type="line" smooth="yes"/>
      <point x="212" y="402"/>
      <point x="224" y="389"/>
      <point x="224" y="364" type="curve" smooth="yes"/>
      <point x="224" y="328"/>
      <point x="206" y="298"/>
      <point x="158" y="298" type="curve" smooth="yes"/>
      <point x="63" y="298" type="line"/>
      <point x="45" y="172" type="line"/>
    </contour>
    <component base="descStraightcy" xOffset="221" xScale="0.98"/>
    <contour>
      <point x="259" y="534" type="move" name="top"/>
    </contour>
  </outline>
</glyph>
<glyph name="uni050A" format="1">
  <advance width="914"/>
  <unicode hex="050A"/>
  <outline>
    <contour>
      <point x="809" y="-20"/>
      <point x="895" y="115"/>
      <point x="906" y="380" type="curve"/>
      <point x="713" y="380" type="line"/>
      <point x="708" y="262"/>
      <point x="690" y="122"/>
      <point x="620" y="122" type="curve" smooth="yes"/>
      <point x="594" y="122"/>
      <point x="583" y="140"/>
      <point x="588" y="176" type="curve" smooth="yes"/>
      <point x="662" y="696" type="line"/>
      <point x="460" y="696" type="line"/>
      <point x="424" y="439" type="line"/>
      <point x="269" y="439" type="line"/>
      <point x="305" y="696" type="line"/>
      <point x="103" y="696" type="line"/>
      <point x="6" y="0" type="line"/>
      <point x="208" y="0" type="line"/>
      <point x="247" y="281" type="line"/>
      <point x="401" y="281" type="line"/>
      <point x="390" y="206" type="line" smooth="yes"/>
      <point x="369" y="64"/>
      <point x="448" y="-20"/>
      <point x="606" y="-20" type="curve" smooth="yes"/>
    </contour>
    <contour>
      <point x="517" y="696" type="move" name="top"/>
    </contour>
    <contour>
      <point x="419" y="0" type="move" name="bottom"/>
    </contour>
  </outline>
</glyph>
<glyph name="uni050E" format="1">
  <advance width="686"/>
  <unicode hex="050E"/>
  <outline>
    <contour>
      <point x="581" y="-20"/>
      <point x="667" y="115"/>
      <point x="678" y="380" type="curve"/>
      <point x="485" y="380" type="line"/>
      <point x="480" y="262"/>
      <point x="462" y="122"/>
      <point x="392" y="122" type="curve" smooth="yes"/>
      <point x="366" y="122"/>
      <point x="355" y="140"/>
      <point x="360" y="176" type="curve" smooth="yes"/>
      <point x="411" y="542" type="line"/>
      <point x="566" y="542" type="line"/>
      <point x="608" y="696" type="line"/>
      <point x="64" y="696" type="line"/>
      <point x="43" y="542" type="line"/>
      <point x="209" y="542" type="line"/>
      <point x="162" y="206" type="line" smooth="yes"/>
      <point x="142" y="64"/>
      <point x="220" y="-20"/>
      <point x="378" y="-20" type="curve" smooth="yes"/>
    </contour>
    <contour>
      <point x="332" y="696" type="move" name="top"/>
    </contour>
    <contour>
      <point x="303" y="0" type="move" name="bottom"/>
    </contour>
  </outline>
</glyph>
<glyph name="uni0514" format="1">
  <advance width="844"/>
  <unicode hex="0514"/>
  <outline>
    <contour>
      <point x="179" y="696" type="line"/>
      <point x="312" y="547" type="line"/>
      <point x="463" y="547" type="line"/>
      <point x="463" y="696" type="line"/>
    </contour>
    <contour>
      <point x="179" y="696" type="line"/>
      <point x="108" y="413" type="line" smooth="yes"/>
      <point x="45" y="160"/>
      <point x="29" y="148"/>
      <point x="-33" y="130" type="curve"/>
      <point x="-5" y="-20" type="line"/>
      <point x="179" y="4"/>
      <point x="220" y="76"/>
      <point x="300" y="421" type="curve" smooth="yes"/>
      <point x="330" y="550" type="line"/>
    </contour>
    <component base="X" xOffset="262" xScale="0.98"/>
    <contour>
      <point x="487" y="696" type="move" name="top"/>
    </contour>
    <contour>
      <point x="389" y="0" type="move" name="bottom"/>
    </contour>
  </outline>
</glyph>
<glyph name="uni0516" format="1">
  <advance width="856"/>
  <unicode hex="0516"/>
  <outline>
    <contour>
      <point x="208" y="0" type="line"/>
      <point x="285" y="553" type="line"/>
      <point x="327" y="553" type="line" smooth="yes"/>
      <point x="376" y="553"/>
      <point x="399" y="528"/>
      <point x="399" y="486" type="curve" smooth="yes"/>
      <point x="399" y="426"/>
      <point x="368" y="362"/>
      <point x="304" y="362" type="curve" smooth="yes"/>
      <point x="242" y="362" type="line"/>
      <point x="222" y="217" type="line"/>
      <point x="306" y="217" type="line" smooth="yes"/>
      <point x="479" y="217"/>
      <point x="581" y="339"/>
      <point x="581" y="495" type="curve" smooth="yes"/>
      <point x="581" y="628"/>
      <point x="504" y="696"/>
      <point x="348" y="696" type="curve" smooth="yes"/>
      <point x="103" y="696" type="line"/>
      <point x="6" y="0" type="line"/>
    </contour>
    <contour>
      <point x="805" y="0" type="line"/>
      <point x="679" y="330" type="line"/>
      <point x="766" y="468" type="line" smooth="yes"/>
      <point x="827" y="565"/>
      <point x="880" y="573"/>
      <point x="916" y="578" type="curve"/>
      <point x="881" y="716" type="line"/>
      <point x="775" y="705"/>
      <point x="711" y="699"/>
      <point x="634" y="565" type="curve" smooth="yes"/>
      <point x="499" y="331" type="line"/>
      <point x="493" y="305" type="line"/>
      <point x="589" y="0" type="line"/>
    </contour>
    <contour>
      <point x="488" y="696" type="move" name="top"/>
    </contour>
    <contour>
      <point x="390" y="0" type="move" name="bottom"/>
    </contour>
  </outline>
</glyph>
<glyph name="uni0517" format="1">
  <advance width="858"/>
  <unicode hex="0517"/>
  <outline>
    <contour>
      <point x="545" y="219" type="line"/>
      <point x="619" y="0" type="line"/>
      <point x="816" y="0" type="line"/>
      <point x="715" y="268" type="line"/>
      <point x="758" y="329" type="line" smooth="yes"/>
      <point x="787" y="370"/>
      <point x="810" y="397"/>
      <point x="865" y="413" type="curve"/>
      <point x="815" y="554" type="line"/>
      <point x="719" y="535"/>
      <point x="681" y="502"/>
      <point x="639" y="442" type="curve" smooth="yes"/>
      <point x="560" y="329" type="line"/>
    </contour>
    <component base="p" xOffset="1" xScale="0.98"/>
    <contour>
      <point x="472" y="534" type="move" name="top"/>
    </contour>
  </outline>
</glyph>
